<?xml version="1.0" encoding="UTF-8"?>
<svg data-name="Layer 1" version="1.1" viewBox="0 0 786.82 572.26" xmlns="http://www.w3.org/2000/svg">
<defs>
<meshgradient id="b" x="4.0758271" y="-0.71945083" gradientUnits="userSpaceOnUse">
<meshrow>
<meshpatch>
<stop stop-color="#fff" path="c 293.617,32.9776  556.389,0  834.583,0"/>
<stop stop-color="#7e7e7e" path="c 0,189.171  -260.632,385.684  0,567.513"/>
<stop stop-color="#fff" path="c -278.194,0  -556.389,0  -834.583,0"/>
<stop stop-color="#7e7e7e" path="c 0,-189.171  310.189,-202.14  0,-567.513"/>
</meshpatch>
</meshrow>
</meshgradient>
<meshgradient id="a" x="439.44107" y="55.301336" gradientTransform="translate(36.381 -15.435)" gradientUnits="userSpaceOnUse">
<meshrow>
<meshpatch>
<stop stop-color="#fff" path="c 10.4273,-10.4273  27.3333,-10.4273  37.7606,0"/>
<stop stop-color="#f2ea00" path="c 10.4273,10.4273  10.4273,27.3333  0,37.7606"/>
<stop stop-color="#fff" path="c -10.4273,10.4273  -27.3333,10.4273  -37.7606,1.42109e-14"/>
<stop stop-color="#f2ea00" path="c -10.4273,-10.4273  -10.4273,-27.3333  0,-37.7606"/>
</meshpatch>
</meshrow>
</meshgradient>
</defs>
<circle cx="494.7" cy="58.747" r="26.701" fill="url(#a)"/>
<path d="m776.26 515.11c49.256-33.575 72.782-89.994 58.054-143.81q-0.54895-2.0059-1.1588-4.0027c-9.7642-31.947-33.921-62.31-69.129-72.518-29.562-8.5711-61.831-1.9801-92.672-5.3885-60.542-6.691-107.48-50.529-140.51-96.429-33.026-45.9-58.408-97.277-102.29-135.2-72.337-62.504-190.34-75.961-280.02-35.276-89.687 40.686-146.82 130.95-144.38 220.91 2.4365 89.96 62.112 175.97 148.78 221.6 31.837 16.764 68.659 28.639 105.3 24.484 31.797-3.6057 60.688-18.896 92.336-23.435 49.757-7.1369 99.197 12.996 142.23 36.457 43.036 23.461 84.605 51.269 133.51 62.145 47.486 10.561 106.32-19.794 149.95-49.536z" fill="url(#b)" stroke-width="1.1741"/>
<path transform="translate(-206.59 -163.87)" d="m815.02 219.19c-0.87006-0.58-1.75-1.13-2.6201-1.69a380.24 380.24 0 0 0-80.31-38.93l-6.54 90.22h-41.46v-103.39c-2.61-0.54-5.24-1.05-7.87-1.53v104.92h-49.27a102.27 102.27 0 0 1-102.27-102.27v-1e-4c-2.64 0.57-5.26 1.18-7.88 1.83v100.44h-40.13l-6.23-86.03a380.86 380.86 0 0 0-81.94 43.53c-0.44 0.3-0.88 0.61-1.31 0.91-2.21 1.55-4.39 3.13-6.56 4.73v344.19h118.27l-2.09-28.95-11.5-158.95h231.59l-11.5 158.95-2.09 28.95h116.96v-353.45q-2.61-1.77-5.25-3.48zm-298.22 142.78h-33.39l-6.17-85.3h39.56zm159.42 0h-56.08v-1.69a6.1798 6.1798 0 0 0-6.19-6.18h-24.38a6.1776 6.1776 0 0 0-6.18 6.18v1.69h-58.71v-85.3h151.54zm7.87 0v-85.3h40.89l-6.17 85.3z" fill="#3f3d56"/>
<path transform="translate(-206.59 -163.87)" d="m206.59 598.16a289 289 0 0 0 28.12 28.95l730.58 1a289 289 0 0 0 28.12-28.95z" fill="#3f3d56"/>
<path transform="translate(-206.59 -163.87)" d="m702.02 505.46v85.704a4.1223 4.1223 0 0 0 4.1191 4.1191h127a4.1223 4.1223 0 0 0 4.1191-4.1191v-85.704a4.1243 4.1243 0 0 0-4.1191-4.1145h-127a4.1243 4.1243 0 0 0-4.1191 4.1145z" fill="#3f3d56"/>
<path transform="translate(-206.59 -163.87)" d="m705 506.53v83.58a2.2052 2.2052 0 0 0 2.2014 2.2014h124.89a2.2052 2.2052 0 0 0 2.2014-2.2014v-83.58a2.2062 2.2062 0 0 0-2.2014-2.206h-124.89a2.2062 2.2062 0 0 0-2.2014 2.206z" fill="#6c63ff"/>
<path transform="translate(-206.59 -163.87)" d="m699.36 607.88a2.4698 2.4698 0 0 0 1.9435 0.92984h135.99a2.5024 2.5024 0 0 0 2.4461-3.0157l-2.111-10.027a2.5069 2.5069 0 0 0-1.5581-1.8178 2.4247 2.4247 0 0 0-0.888-0.1675h-131.78a2.4245 2.4245 0 0 0-0.888 0.1675 2.5067 2.5067 0 0 0-1.5581 1.8178l-2.111 10.027a2.5005 2.5005 0 0 0 0.51102 2.0859z" fill="#2f2e41"/>
<rect transform="translate(1457.7 1029.8) rotate(180)" x="830.03" y="595.59" width="4.1885" height="2.5131" rx=".48819" fill="#3f3d56"/>
<rect transform="translate(1440.9 1029.8) rotate(180)" x="821.66" y="595.59" width="4.1885" height="2.5131" rx=".48819" fill="#3f3d56"/>
<rect transform="translate(1424.2 1029.8) rotate(180)" x="813.28" y="595.59" width="4.1885" height="2.5131" rx=".48819" fill="#3f3d56"/>
<rect transform="translate(1407.4 1029.8) rotate(180)" x="804.9" y="595.59" width="4.1885" height="2.5131" rx=".48819" fill="#3f3d56"/>
<rect transform="translate(1390.7 1029.8) rotate(180)" x="796.53" y="595.59" width="4.1885" height="2.5131" rx=".48819" fill="#3f3d56"/>
<rect transform="translate(1373.9 1029.8) rotate(180)" x="788.15" y="595.59" width="4.1885" height="2.5131" rx=".48819" fill="#3f3d56"/>
<rect transform="translate(1357.1 1029.8) rotate(180)" x="779.77" y="595.59" width="4.1885" height="2.5131" rx=".48819" fill="#3f3d56"/>
<rect transform="translate(1340.4 1029.8) rotate(180)" x="771.39" y="595.59" width="4.1885" height="2.5131" rx=".48819" fill="#3f3d56"/>
<rect transform="translate(1323.6 1029.8) rotate(180)" x="763.02" y="595.59" width="4.1885" height="2.5131" rx=".48819" fill="#3f3d56"/>
<rect transform="translate(1306.9 1029.8) rotate(180)" x="754.64" y="595.59" width="4.1885" height="2.5131" rx=".48819" fill="#3f3d56"/>
<rect transform="translate(1290.1 1029.8) rotate(180)" x="746.26" y="595.59" width="4.1885" height="2.5131" rx=".48819" fill="#3f3d56"/>
<rect transform="translate(1273.4 1029.8) rotate(180)" x="737.89" y="595.59" width="4.1885" height="2.5131" rx=".48819" fill="#3f3d56"/>
<rect transform="translate(1256.6 1029.8) rotate(180)" x="729.51" y="595.59" width="4.1885" height="2.5131" rx=".48819" fill="#3f3d56"/>
<rect transform="translate(1239.9 1029.8) rotate(180)" x="721.13" y="595.59" width="4.1885" height="2.5131" rx=".48819" fill="#3f3d56"/>
<rect transform="translate(1223.1 1029.8) rotate(180)" x="712.76" y="595.59" width="4.1885" height="2.5131" rx=".48819" fill="#3f3d56"/>
<rect transform="translate(1206.4 1029.8) rotate(180)" x="704.38" y="595.59" width="4.1885" height="2.5131" rx=".48819" fill="#3f3d56"/>
<rect transform="translate(1457.9 1038.2) rotate(180)" x="830.13" y="599.78" width="4.1885" height="2.5131" rx=".48819" fill="#3f3d56"/>
<rect transform="translate(1441.1 1038.2) rotate(180)" x="821.76" y="599.78" width="4.1885" height="2.5131" rx=".48819" fill="#3f3d56"/>
<rect transform="translate(1424.4 1038.2) rotate(180)" x="813.38" y="599.78" width="4.1885" height="2.5131" rx=".48819" fill="#3f3d56"/>
<rect transform="translate(1407.6 1038.2) rotate(180)" x="805" y="599.78" width="4.1885" height="2.5131" rx=".48819" fill="#3f3d56"/>
<rect transform="translate(1390.8 1038.2) rotate(180)" x="796.62" y="599.78" width="4.1885" height="2.5131" rx=".48819" fill="#3f3d56"/>
<rect transform="translate(1374.1 1038.2) rotate(180)" x="788.25" y="599.78" width="4.1885" height="2.5131" rx=".48819" fill="#3f3d56"/>
<rect transform="translate(1357.3 1038.2) rotate(180)" x="779.87" y="599.78" width="4.1885" height="2.5131" rx=".48819" fill="#3f3d56"/>
<rect transform="translate(1340.6 1038.2) rotate(180)" x="771.49" y="599.78" width="4.1885" height="2.5131" rx=".48819" fill="#3f3d56"/>
<rect transform="translate(1323.8 1038.2) rotate(180)" x="763.12" y="599.78" width="4.1885" height="2.5131" rx=".48819" fill="#3f3d56"/>
<rect transform="translate(1307.1 1038.2) rotate(180)" x="754.74" y="599.78" width="4.1885" height="2.5131" rx=".48819" fill="#3f3d56"/>
<rect transform="translate(1290.3 1038.2) rotate(180)" x="746.36" y="599.78" width="4.1885" height="2.5131" rx=".48819" fill="#3f3d56"/>
<rect transform="translate(1273.6 1038.2) rotate(180)" x="737.99" y="599.78" width="4.1885" height="2.5131" rx=".48819" fill="#3f3d56"/>
<rect transform="translate(1256.8 1038.2) rotate(180)" x="729.61" y="599.78" width="4.1885" height="2.5131" rx=".48819" fill="#3f3d56"/>
<rect transform="translate(1240.1 1038.2) rotate(180)" x="721.23" y="599.78" width="4.1885" height="2.5131" rx=".48819" fill="#3f3d56"/>
<rect transform="translate(1223.3 1038.2) rotate(180)" x="712.86" y="599.78" width="4.1885" height="2.5131" rx=".48819" fill="#3f3d56"/>
<rect transform="translate(1206.6 1038.2) rotate(180)" x="704.48" y="599.78" width="4.1885" height="2.5131" rx=".48819" fill="#3f3d56"/>
<rect transform="translate(1348.1 1048.2) rotate(180)" x="760.6" y="604.8" width="33.508" height="2.5131" rx=".48819" fill="#3f3d56"/>
<rect x="515.63" y="358.74" width="5.9658" height="3.1222" rx="1.5611" fill="#fff"/>
<rect x="548.15" y="358.74" width="5.9658" height="3.1222" rx="1.5611" fill="#fff"/>
<rect x="557.37" y="358.74" width="5.9658" height="3.1222" rx="1.5611" fill="#fff"/>
<rect x="524.48" y="358.48" width="20.796" height="3.1222" rx="1.5611" fill="#fff"/>
<rect x="567.84" y="358.48" width="20.796" height="3.1222" rx="1.5611" fill="#fff"/>
<rect x="524.3" y="365.78" width="5.9658" height="3.1222" rx="1.5611" fill="#fff"/>
<rect x="556.83" y="365.78" width="5.9658" height="3.1222" rx="1.5611" fill="#fff"/>
<rect x="566.04" y="365.78" width="5.9658" height="3.1222" rx="1.5611" fill="#fff"/>
<rect x="533.15" y="365.52" width="20.796" height="3.1222" rx="1.5611" fill="#fff"/>
<rect x="576.51" y="365.52" width="20.796" height="3.1222" rx="1.5611" fill="#fff"/>
<rect x="532.98" y="372.83" width="5.9658" height="3.1222" rx="1.5611" fill="#fff"/>
<rect x="565.5" y="372.83" width="5.9658" height="3.1222" rx="1.5611" fill="#fff"/>
<rect x="574.71" y="372.83" width="5.9658" height="3.1222" rx="1.5611" fill="#fff"/>
<rect x="541.82" y="372.57" width="20.796" height="3.1222" rx="1.5611" fill="#fff"/>
<rect x="585.19" y="372.57" width="20.796" height="3.1222" rx="1.5611" fill="#fff"/>
<rect x="541.65" y="379.88" width="5.9658" height="3.1222" rx="1.5611" fill="#fff"/>
<rect x="574.17" y="379.88" width="5.9658" height="3.1222" rx="1.5611" fill="#fff"/>
<rect x="583.39" y="379.88" width="5.9658" height="3.1222" rx="1.5611" fill="#fff"/>
<rect x="550.5" y="379.62" width="20.796" height="3.1222" rx="1.5611" fill="#fff"/>
<rect x="548.15" y="407.9" width="5.9658" height="3.1222" rx="1.5611" fill="#fff"/>
<rect x="557.37" y="407.9" width="5.9658" height="3.1222" rx="1.5611" fill="#fff"/>
<rect x="567.84" y="408.16" width="20.796" height="3.1222" rx="1.5611" fill="#fff"/>
<rect x="515.63" y="407.9" width="5.9658" height="3.1222" rx="1.5611" fill="#fff"/>
<rect x="524.48" y="408.16" width="20.796" height="3.1222" rx="1.5611" fill="#fff"/>
<rect x="524.3" y="400.85" width="5.9658" height="3.1222" rx="1.5611" fill="#fff"/>
<rect x="556.83" y="400.85" width="5.9658" height="3.1222" rx="1.5611" fill="#fff"/>
<rect x="566.04" y="400.85" width="5.9658" height="3.1222" rx="1.5611" fill="#fff"/>
<rect x="533.15" y="401.11" width="20.796" height="3.1222" rx="1.5611" fill="#fff"/>
<rect x="532.98" y="393.8" width="5.9658" height="3.1222" rx="1.5611" fill="#fff"/>
<rect x="565.5" y="393.8" width="5.9658" height="3.1222" rx="1.5611" fill="#fff"/>
<rect x="574.71" y="393.8" width="5.9658" height="3.1222" rx="1.5611" fill="#fff"/>
<rect x="541.82" y="394.06" width="20.796" height="3.1222" rx="1.5611" fill="#fff"/>
<rect x="541.65" y="386.76" width="5.9658" height="3.1222" rx="1.5611" fill="#fff"/>
<rect x="574.17" y="386.76" width="5.9658" height="3.1222" rx="1.5611" fill="#fff"/>
<rect x="583.39" y="386.76" width="5.9658" height="3.1222" rx="1.5611" fill="#fff"/>
<rect x="550.5" y="387.02" width="20.796" height="3.1222" rx="1.5611" fill="#fff"/>
<path transform="translate(-206.59 -163.87)" d="m711.51 654.35-13.35-21.102 41.902-33.403 17.295-19.161a19.161 19.161 0 0 1 32.418 6.8279 19.161 19.161 0 0 1-11.57 23.991l-27.349 10.075z" fill="#ffb6b6"/>
<path transform="translate(-206.59 -163.87)" d="m398.28 501.35v102.56h71.85v-102.56a3.448 3.448 0 0 0-2.43-3.3 3.1749 3.1749 0 0 0-1.03-0.16h-64.92a3.4633 3.4633 0 0 0-3.47 3.46zm28.04 35.24a7.6703 7.6703 0 0 1 15.34 0v11.9a7.6701 7.6701 0 0 1-15.34 0z" fill="#2f2e41"/>
<path transform="translate(-206.59 -163.87)" d="m398.06 600.63v9.89a1.9462 1.9462 0 0 0 1.93 1.94h68.43a1.9397 1.9397 0 0 0 1.93-1.94v-9.89z" fill="#3f3d56"/>
<path transform="translate(-206.59 -163.87)" d="m285.25 346.83v187.26a9.0071 9.0071 0 0 0 9 9h277.5a9.0071 9.0071 0 0 0 9-9v-187.26a9.0115 9.0115 0 0 0-9-8.99h-277.5a9.0115 9.0115 0 0 0-9 8.99z" fill="#3f3d56"/>
<path transform="translate(-206.59 -163.87)" d="m291.76 349.16v182.62a4.8183 4.8183 0 0 0 4.81 4.81h272.87a4.8183 4.8183 0 0 0 4.81-4.81v-182.62a4.8205 4.8205 0 0 0-4.81-4.82h-272.87a4.8205 4.8205 0 0 0-4.81 4.82z" fill="#fff"/>
<path transform="translate(-206.59 -163.87)" d="m342.4 611.79a2.9484 2.9484 0 0 0 2.32 1.11h162.34a2.9872 2.9872 0 0 0 2.92-3.6l-2.52-11.97a2.9926 2.9926 0 0 0-1.86-2.17 2.8945 2.8945 0 0 0-1.06-0.19995h-157.31a2.8943 2.8943 0 0 0-1.06 0.19995 2.9924 2.9924 0 0 0-1.86 2.17l-2.52 11.97a2.985 2.985 0 0 0 0.61 2.49z" fill="#2f2e41"/>
<path transform="translate(-206.59 -163.87)" d="m560.58 369.5h-255.32a1.0156 1.0156 0 0 1 0-2.0307h255.32a1.0156 1.0156 0 0 1 0 2.0307z" fill="#3f3d56"/>
<ellipse cx="116.05" cy="192.33" rx="5.9504" ry="6.083" fill="#3f3d56"/>
<ellipse cx="136.61" cy="192.33" rx="5.9504" ry="6.083" fill="#3f3d56"/>
<ellipse cx="157.16" cy="192.33" rx="5.9504" ry="6.083" fill="#3f3d56"/>
<path transform="translate(-206.59 -163.87)" d="m548.21 351.62h-14.6a1.1053 1.1053 0 0 0 0 2.21h14.6a1.1051 1.1051 0 0 0 0-2.21z" fill="#3f3d56"/>
<path transform="translate(-206.59 -163.87)" d="m548.21 355.77h-14.6a1.1053 1.1053 0 0 0 0 2.21h14.6a1.1051 1.1051 0 0 0 0-2.21z" fill="#3f3d56"/>
<path transform="translate(-206.59 -163.87)" d="m548.21 359.92h-14.6a1.1053 1.1053 0 0 0 0 2.21h14.6a1.1051 1.1051 0 0 0 0-2.21z" fill="#3f3d56"/>
<path transform="translate(-206.59 -163.87)" d="m900.19 604.97a6.4162 6.4162 0 0 0 6.1831 4.331l26.492-0.68178a6.3285 6.3285 0 0 0 5.9808-4.657l3.7489-40.087a9.7941 9.7941 0 0 0 4.2379 0.87079 9.6613 9.6613 0 1 0-0.4849-19.317 8.1839 8.1839 0 0 0-1.7362 0.18056 6.5476 6.5476 0 0 0-4.874-2.103l-40.751 1.0523a5.8529 5.8529 0 0 0-1.0052 0.1248 6.3646 6.3646 0 0 0-4.8732 8.2646zm43.173-43.817 2.6676-9.5527a6.5065 6.5065 0 0 0 0.02036-3.3746c0.12944-3.4e-4 0.24363-0.06169 0.37307-0.062a6.9105 6.9105 0 0 1 0.32357 13.817 6.5053 6.5053 0 0 1-3.3846-0.82782z" fill="#2f2e41"/>
<path transform="translate(-206.59 -163.87)" d="m897.98 544.69c0.86818 4.9641 10.629 8.4539 22.366 7.8473 10.793-0.49726 19.617-4.287 21.234-8.7785a6.0251 6.0251 0 0 0-1.8444-0.24588l-40.751 1.0523a5.8529 5.8529 0 0 0-1.0052 0.1248z" fill="#3f3d56"/>
<rect x="209.38" y="260.83" width="50.719" height="10.846" rx="3.2642" fill="#6c63ff"/>
<rect x="183.63" y="282.52" width="102.24" height="10.846" rx="3.2642" fill="#e6e6e6"/>
<rect x="183.63" y="304.21" width="102.24" height="10.846" rx="3.2642" fill="#e6e6e6"/>
<path transform="translate(-206.59 -163.87)" d="m497.3 540.72 0.21675 0.68444 0.01142 0.02283 6.5252 19.838 7.5063 22.861 14.123 42.961 0.13688 6.6735v0.02283l1.0495 53.684-2.9089 7.2781 3.274 11.932s-1.5058-18.037-9.5824-7.6788c-4.5745 5.8864-9.9247 11.91-14.317 17.556q9.5996 3.8844 19.507 7.0271c1.426 0.45633 2.8633 0.88983 4.3007 1.3233q0.46194 0.13692 0.924 0.27377a266.86 266.86 0 0 0 67.351 10.826c1.1864 0.03425 2.35 0.057 3.4793 0.07986 0.39932 0.01142 0.78714 0.02284 1.175 0.02284 1.2776 0.01142 2.5439 0.02277 3.8215 0.02277q3.8672 0 7.7002-0.11405a266.85 266.85 0 0 0 56.091-7.5861c-0.12547-7.5861-0.46768-16.45-0.9582-25.918-0.22817-4.6429-5.3502-9.6737-5.6582-14.533-0.21675-3.6505 4.3806-7.0842 4.141-10.792-1.5514-22.827-3.4908-14.064-4.9281-30.229q-0.22245-2.3785-0.41066-4.5516c-0.924-10.381-1.5628-16.872-1.5628-16.872l6.1373-38.683 9.6395-60.734-0.74153-1.2206-0.83274-0.41066-50.844-25.165-2.7606-7.0728a10.979 10.979 0 0 0-10.141-6.9473l-33.493-0.13688a10.931 10.931 0 0 0-8.9095 4.5289l-9.069 12.56z" fill="#3f3d56"/>
<path transform="translate(-206.59 -163.87)" d="m533.41 617.52-7.5861 16.233-5.179 11.088-8.9094 46.646-4.4604 4.7341-3.8216-16.759-39.998 8.8809c-1.3119-7.2895-0.3512 0.24662-1.1612-7.7501 0.22817-0.22817 0.46768-0.45634 0.70727-0.68451 0.63882-0.59322 1.175-1.1522 1.1636-1.6883-0.45633-27.584 0.9126-74.526 12.343-102.97a60.053 60.053 0 0 1 7.0271-13.107c0.22817-0.308 0.44492-0.61606 0.66167-0.924 5.2703-7.3808 8.6014-14.647 13.324-19.815v-0.01142a0.53028 0.53028 0 0 0 0.07986-0.07987 0.157 0.157 0 0 0 0.04561-0.03425l32.443-17.203 1.3918 39.105 0.99247 28.109z" fill="#3f3d56"/>
<path transform="translate(-206.59 -163.87)" d="m650.39 622.14 9.476 20.275 3.3074 7.0609 8.9068 46.642 4.4458 4.7226 3.8304-16.755 1.7998-0.36918 32.458-6.7224 9.4606 30.046a17.984 17.984 0 0 0-3.2612-22.506c-0.64606-0.58457-1.1844-1.1537-1.1691-1.6921 0.53847-32.443-1.446-91.684-19.367-116.07-5.6918-7.7378-9.1068-15.445-14.076-20.829-0.0154-0.0153-0.0154-0.0307-0.03071-0.0307l-12.091-19.798-0.73836-1.2153-0.83066-0.41528z" fill="#3f3d56"/>
<circle cx="386.4" cy="267.2" r="44.558" fill="#ffb6b6" data-name="Ellipse 5"/>
<path transform="translate(-206.59 -163.87)" d="m653.21 399.95a3.7593 3.7593 0 0 0-2.69-1.19l0.67-1.86a3.5277 3.5277 0 0 0-3.96-4.7l-2.44 0.47 0.23-1.63a3.5339 3.5339 0 0 0-4.73-3.82 3.7663 3.7663 0 0 1-3.24-0.23 3.8465 3.8465 0 0 1-1.92-2.61l-0.85-4.1-0.09-0.22c-4.14-6.9-12.1-11.92-21.84-13.76-8.67-1.65-17.56-0.81-26.13-0.02-3.4 0.32-7.24 0.68-10.44 2.64-2.72 1.68-5.02 5.04-4.55 8.43-8.45-2.59-17.51 2.58-22 9.1-5.32 7.76-6.19 17.48-6.33 25.08-0.38 17.98 3.33 32.69 11 43.73 0.56 0.8 0.7 2.47 1.81 3.03l-0.23-0.37c1.24 0.62 2.5 1.62 2.03 2.69-1.35 3.08 7.62 9.89 13.94 12.14 11.53 4.11 26.86 3.76 37.64 2.28l0.38-2.55c3.89-0.53 6.63-1.54 7.4-3.12 1.36-1.16 2.52-2.2 3.53-3.16l0.01-0.01c0.02-0.02 0.06-0.05 0.08-0.07 4.87-4.67 6-7.33 6.51-11.38 0.49-3.97-0.38-8-1.27-11.63 18.74 2.9-7.38-19.96 10.08-24.38a5.434 5.434 0 0 1 0.61-0.15c0.51-0.12 1.02-0.24 1.51-0.38a26.448 26.448 0 0 0 6.72-2.87c4.88-2.97 6.49-6.91 9.01-11.35a3.4265 3.4265 0 0 0-0.45-4.03z" fill="#2f2e41"/>
<path transform="translate(-206.59 -163.87)" d="M750.58227,625.3079c-.01,1.75-.03,4.2-.11,7.23q-.015.63-.03,1.29c-.13,5.57-.26,10.24-.47,15.43-.01.36-.02.71-.04,1.07-.28,7.24-.72,15.67-1.48,29.02-1.41,24.66-3.87,3.39-6.34,12.04-.12.43-.25.94-.37,1.54a27.91582,27.91582,0,0,1-1.88,6.33c-1.31.78-2.66,1.53-3.99,2.28-3.79,2.11-7.63995,4.13995-11.51995,6.07-2.18006,1.08-4.37,2.14-6.57,3.16-.35.16-.69.32-1.03.47a270.88715,270.88715,0,0,1-34.75,13.26c-2.32.7-4.63,1.38-6.97,2.01-2.44.68-4.88,1.32-7.35,1.92a266.8933,266.8933,0,0,1-56.09,7.59c-2.55.08-5.12.11-7.7.11-1.28,0-2.54-.01-3.82-.02-.39,0-.78-.01-1.17-.02-1.13-.03-2.3-.05-3.48-.08a266.66307,266.66307,0,0,1-67.35-10.83l-.93-.27c-1.44-.44-2.87-.87-4.3-1.33q-9.90006-3.135-19.51-7.02-7.335-2.955-14.5-6.34a.33861.33861,0,0,1-.12-.06c-1-.46-2.01-.94-3.01-1.43-.13-.07-.27-.14-.41-.21q-5.59506-2.73-11.07-5.72c-3.07-7.05005-7.39-8.4-10.07-14.6a25.87356,25.87356,0,0,1-1.68-5.74c0-.02-.01-.04-.01-.07.28,3.72-1.19-6.6-.01-.04-.01-.12-.02-.25-.03-.4-.03-.36-.06994-.8-.12994-1.35-3.43-33.49-3.21-71.79-4.7-103.35q-.15006-3.06-.31-5.86c-.03-.62-.07-1.23-.11005-1.83.07-.18.15-.37.24-.55a1.002,1.002,0,0,1,.07-.15,1.62294,1.62294,0,0,1,.1-.18c.02-.03.05-.07.07-.1a.91693.91693,0,0,1,.05-.1c.09-.14.19-.29.3-.43.05-.06.09-.11005.14-.16a.80824.80824,0,0,1,.12-.14.637.637,0,0,1,.11-.13c.04-.04.08-.09.13-.13995a.30159.30159,0,0,1,.08-.08,2.03313,2.03313,0,0,1,.26-.25,9.62387,9.62387,0,0,1,1.14-.9c.13995-.09.29-.18.43-.28a19.13528,19.13528,0,0,1,3.17-1.52c.38-.14.76-.27,1.17-.41.15-.04.29-.09.44-.14.22-.07.44-.14.67-.19,1.14-.34,2.37-.63,3.7-.9.16-.03.33-.06.5-.1.24-.05.49-.09.74-.13.34-.06.69-.12,1.04-.18,2.97-.47,6.34-.82,10.06-1.05q.525-.03,1.05-.06c.41-.02.82-.04,1.24-.06.35-.02.71-.03,1.07-.04.35-.02.71-.03,1.08-.04,1.01-.03,2.05-.06,3.11-.08,3.02-.06,6.2-.04,9.54.03,1.55.04,3.13.08,4.75.15.11005,0,.21.01.31.01,1.41.05,2.83.11,4.29.19,1.02.05,2.05.1,3.07995.16.97.06,1.95.12,2.94.19.77.04,1.54.1,2.32.15.66.05,1.32.1,1.98.14l.9.06c.49.04.98.07,1.48.12,1.1.09,2.2.18,3.32.27,1.11.1,2.24.2,3.37.3s2.27.21,3.41.32c.12.01.23.02.34.03,1.04.11005,2.08.21,3.13.32.24.02.49.04.73.07,1.0011.10058,2.02173.21832,3.032.32568.31006.03345.61847.06586.92944.09985.79139.08618,1.57154.16089,2.36847.25446,1.05.12,2.12006.23,3.16.37.81.09,1.62.18,2.43.28,1.27.15,2.56.31,3.85.48.49.06.98.12,1.47.19,3.68.46,7.4.97,11.18,1.5,5.73.81,11.55,1.69,17.41,2.64q8.80509,1.425,17.71,3.01c1.5.27,3,.54,4.51.82q1.02.19491,2.04.38995c1.16.21,2.32.43,3.48.65,1.16.22,2.32.44,3.48.67,1.38.27,2.77.54,4.15.81,9.09,1.8,18.12994,3.72,26.95,5.73,1.45.32995,2.9.67,4.34,1q4.32,1.005,8.56,2.04c.78.18,1.55.37,2.32.56,1.92.48,3.84.96,5.73,1.45l.33.09c1.39.34,2.75.69,4.11,1.05q4.815,1.26,9.47,2.55,3.09.855,6.11,1.73c3.01.87,5.96,1.75,8.83,2.64.71.22,1.42.44,2.12.65,2.1.65,4.17,1.31,6.18,1.97,1.6.52,3.16,1.05,4.7,1.58q2.31.795,4.53,1.59c.95.34,1.89.7,2.83,1.04,1.35.5,2.68,1,3.98,1.5.4.15.79.31,1.18.46.25.11.49.2.73.3.47.19.95.37,1.41.56.47.18.93.37,1.39.57.45.18.91.37,1.35.56.45.18.89.37,1.33.57.37.15.73.31,1.08.47.71.31,1.42.62,2.11.94.34.16.68.31,1.02.47l.78.36c.11.06.22.11.33.16.25.12.51.25.76.37.57995.27,1.15.56,1.71.83.75.38,1.48.76,2.18,1.13.71.37994,1.4.76,2.06,1.12994.11.06.21.12006.32.18006.15.07995.3.17.45.25.51.29,1,.59,1.49.87994.96.59,1.87,1.17,2.72,1.75.19.13.37.26.56.38.63.45,1.23.89,1.79,1.34,0,.01,0,.01.01.01.19.14.37.29.55.43.15.14.31.26.46.4.52.45,1,.87994,1.44,1.32a5.667,5.667,0,0,1,.42.43,1.20839,1.20839,0,0,1,.16.16c.2.2.38.4.55.6a.55257.55257,0,0,1,.07.09c.24.28.46.56.67.84.1.14.21.28.3.42.12.17.24.35.34.52.09.14.17.29.25.43006a7.2566,7.2566,0,0,1,.54,1.12994,5.2413,5.2413,0,0,1,.27.82A5.84442,5.84442,0,0,1,750.58227,625.3079Z" fill="#2f2e41"/>
<path transform="translate(-206.59 -163.87)" d="M750.58227,625.3079c-.01,1.75-.03,4.2-.11,7.23-.01.42-.03.85-.04,1.29-.1,4.25-.25,9.5-.46,15.43-.01.36-.02.71-.04,1.07-.28,7.24-.72,15.67-1.48,29.02-1.41,24.66-3.87,3.39-6.34,12.04-6.86-4.22-14.38-8.64-22.42-13.18q-2.175-1.23-4.39-2.47c-16.08-8.97-34.04-18.37006-52.79-27.68-.74-.37-1.49-.74-2.23-1.1-42.95-21.23-89.83-41.88-127.81-55.66-7.33-2.66-14.33-5.06-20.91-7.17005-13.86-4.43-25.84-7.53-35.06-8.87-9.6-1.4-16.23-.9-18.91,1.99q-.15006-3.06-.31-5.86-.06006-.93-.12-1.83c.06171-.16462.14191-.32172.21955-.48017.01111-.02313.019-.047.03045-.06982a1.002,1.002,0,0,1,.07-.15,1.62294,1.62294,0,0,1,.1-.18,1.05985,1.05985,0,0,1,.12-.2c.09-.14.19-.29.3-.43a3.48261,3.48261,0,0,1,.26-.30005.637.637,0,0,1,.11-.13c.04-.04.08-.09.13-.13995a.30159.30159,0,0,1,.08-.08,2.03313,2.03313,0,0,1,.26-.25,9.62387,9.62387,0,0,1,1.14-.9c.13995-.09.29-.18.43-.28a19.13528,19.13528,0,0,1,3.17-1.52c.38-.14.76-.27,1.17-.41.15-.04.29-.09.44-.14.22-.07.44-.14.67-.19,1.14-.34,2.37-.63,3.7-.9.4-.08.82-.16,1.24-.23.34-.06.69-.12,1.04-.18,2.97-.47,6.34-.82,10.06-1.05q.525-.03,1.05-.06c.41-.02.82-.04,1.24-.06.35-.02.71-.03,1.07-.04.35-.02.71-.03,1.08-.04,1.01-.03,2.05-.06,3.11-.08,3.02-.05,6.2-.03,9.54.04,1.55.03,3.13.08,4.75.15.1,0,.21.01.31.01,1.41.04,2.84.11,4.29.18,1.02.05,2.05.1,3.07995.16.97.06,1.95.12,2.94.19.77.04,1.54.1,2.32.15.66.05,1.32.1,1.98.14.79.06,1.58.12,2.38.18,1.1.09,2.2.18,3.32.27,1.11.1,2.24.2,3.37.3s2.27.21,3.41.32c.12.01.23.02.34.03,1.04.11005,2.08.21,3.13.32q8.73.885,17.97,2.07,5.52.705,11.18,1.51c5.73.81,11.55,1.69,17.41,2.63q8.80509,1.425,17.71,3.01c1.5.27,3,.54,4.51.82q2.76.50994,5.52,1.04c1.16.22,2.32.44,3.48.67,1.38.27,2.77.54,4.15.81,9.09,1.8,18.12994,3.72,26.95,5.73,1.45.32995,2.9.67,4.34,1q4.32,1.005,8.56,2.04c.78.19,1.55.38,2.32.57q2.895.72,5.73,1.44v.01c.11.02.22.05.33.08,1.38.35,2.75.7,4.11,1.06q4.815,1.26,9.47,2.54c2.06.57995,4.1,1.15,6.11,1.73,3.01.88,5.96,1.76,8.83,2.64.71.22,1.42.44,2.12.65q3.15.99,6.18,1.97c1.6.52,3.16,1.05,4.7,1.58q2.31.795,4.53,1.59c.96.34,1.9.69,2.83,1.03,1.36.5,2.68,1,3.98,1.51.4.15.79.31,1.18.46.73.28,1.44.57,2.14.86.47.18.93.37,1.39.57.45.18.91.37,1.35.56.45.18.89.37,1.33.57.37.15.73.31,1.08.47.71.31,1.42.62,2.11.94.34.16.68.31,1.02.47l.78.36c.11.06.22.11.33.16.85.4,1.67.8,2.47,1.2.75.38,1.48.76,2.18,1.13.83.43994,1.62.87,2.38,1.31.15.07995.3.17.45.25.51.29,1,.59,1.49.87994.96.59,1.87,1.17,2.72,1.75.84.58,1.62,1.15,2.35,1.72,0,.01,0,.01.01.01.35.28.69.56,1.01.83.52.45,1,.87994,1.44,1.32a5.667,5.667,0,0,1,.42.43,1.20839,1.20839,0,0,1,.16.16c.21.23.42.46.62006.69.24.28.46.56.67.84.1.14.21.28.3.42.12.17.24.35.34.52.09.14.17.29.25.43006a7.2566,7.2566,0,0,1,.54,1.12994,6.05312,6.05312,0,0,1,.27.82A5.84442,5.84442,0,0,1,750.58227,625.3079Z" opacity=".2"/>
<script type="text/javascript">!function(){const t="http://www.w3.org/2000/svg",e="http://www.w3.org/1999/xlink",s="http://www.w3.org/1999/xhtml",r=2;if(document.createElementNS(t,"meshgradient").x)return;const n=(t,e,s,r)=>{let n=new x(.5*(e.x+s.x),.5*(e.y+s.y)),o=new x(.5*(t.x+e.x),.5*(t.y+e.y)),i=new x(.5*(s.x+r.x),.5*(s.y+r.y)),a=new x(.5*(n.x+o.x),.5*(n.y+o.y)),h=new x(.5*(n.x+i.x),.5*(n.y+i.y)),l=new x(.5*(a.x+h.x),.5*(a.y+h.y));return[[t,o,a,l],[l,h,i,r]]},o=t=>{let e=t[0].distSquared(t[1]),s=t[2].distSquared(t[3]),r=.25*t[0].distSquared(t[2]),n=.25*t[1].distSquared(t[3]),o=e>s?e:s,i=r>n?r:n;return 18*(o>i?o:i)},i=(t,e)=>Math.sqrt(t.distSquared(e)),a=(t,e)=>t.scale(2/3).add(e.scale(1/3)),h=t=>{let e,s,r,n,o,i,a,h=new g;return t.match(/(\w+\(\s*[^)]+\))+/g).forEach(t=>{let l=t.match(/[\w.-]+/g),d=l.shift();switch(d){case"translate":2===l.length?e=new g(1,0,0,1,l[0],l[1]):(console.error("mesh.js: translate does not have 2 arguments!"),e=new g(1,0,0,1,0,0)),h=h.append(e);break;case"scale":1===l.length?s=new g(l[0],0,0,l[0],0,0):2===l.length?s=new g(l[0],0,0,l[1],0,0):(console.error("mesh.js: scale does not have 1 or 2 arguments!"),s=new g(1,0,0,1,0,0)),h=h.append(s);break;case"rotate":if(3===l.length&&(e=new g(1,0,0,1,l[1],l[2]),h=h.append(e)),l[0]){r=l[0]*Math.PI/180;let t=Math.cos(r),e=Math.sin(r);Math.abs(t)<1e-16&&(t=0),Math.abs(e)<1e-16&&(e=0),a=new g(t,e,-e,t,0,0),h=h.append(a)}else console.error("math.js: No argument to rotate transform!");3===l.length&&(e=new g(1,0,0,1,-l[1],-l[2]),h=h.append(e));break;case"skewX":l[0]?(r=l[0]*Math.PI/180,n=Math.tan(r),o=new g(1,0,n,1,0,0),h=h.append(o)):console.error("math.js: No argument to skewX transform!");break;case"skewY":l[0]?(r=l[0]*Math.PI/180,n=Math.tan(r),i=new g(1,n,0,1,0,0),h=h.append(i)):console.error("math.js: No argument to skewY transform!");break;case"matrix":6===l.length?h=h.append(new g(...l)):console.error("math.js: Incorrect number of arguments for matrix!");break;default:console.error("mesh.js: Unhandled transform type: "+d)}}),h},l=t=>{let e=[],s=t.split(/[ ,]+/);for(let t=0,r=s.length-1;t<r;t+=2)e.push(new x(parseFloat(s[t]),parseFloat(s[t+1])));return e},d=(t,e)=>{for(let s in e)t.setAttribute(s,e[s])},c=(t,e,s,r,n)=>{let o,i,a=[0,0,0,0];for(let h=0;h<3;++h)e[h]<t[h]&&e[h]<s[h]||t[h]<e[h]&&s[h]<e[h]?a[h]=0:(a[h]=.5*((e[h]-t[h])/r+(s[h]-e[h])/n),o=Math.abs(3*(e[h]-t[h])/r),i=Math.abs(3*(s[h]-e[h])/n),a[h]>o?a[h]=o:a[h]>i&&(a[h]=i));return a},u=[[1,0,0,0,0,0,0,0,0,0,0,0,0,0,0,0],[0,0,0,0,1,0,0,0,0,0,0,0,0,0,0,0],[-3,3,0,0,-2,-1,0,0,0,0,0,0,0,0,0,0],[2,-2,0,0,1,1,0,0,0,0,0,0,0,0,0,0],[0,0,0,0,0,0,0,0,1,0,0,0,0,0,0,0],[0,0,0,0,0,0,0,0,0,0,0,0,1,0,0,0],[0,0,0,0,0,0,0,0,-3,3,0,0,-2,-1,0,0],[0,0,0,0,0,0,0,0,2,-2,0,0,1,1,0,0],[-3,0,3,0,0,0,0,0,-2,0,-1,0,0,0,0,0],[0,0,0,0,-3,0,3,0,0,0,0,0,-2,0,-1,0],[9,-9,-9,9,6,3,-6,-3,6,-6,3,-3,4,2,2,1],[-6,6,6,-6,-3,-3,3,3,-4,4,-2,2,-2,-2,-1,-1],[2,0,-2,0,0,0,0,0,1,0,1,0,0,0,0,0],[0,0,0,0,2,0,-2,0,0,0,0,0,1,0,1,0],[-6,6,6,-6,-4,-2,4,2,-3,3,-3,3,-2,-1,-2,-1],[4,-4,-4,4,2,2,-2,-2,2,-2,2,-2,1,1,1,1]],f=t=>{let e=[];for(let s=0;s<16;++s){e[s]=0;for(let r=0;r<16;++r)e[s]+=u[s][r]*t[r]}return e},p=(t,e,s)=>{const r=e*e,n=s*s,o=e*e*e,i=s*s*s;return t[0]+t[1]*e+t[2]*r+t[3]*o+t[4]*s+t[5]*s*e+t[6]*s*r+t[7]*s*o+t[8]*n+t[9]*n*e+t[10]*n*r+t[11]*n*o+t[12]*i+t[13]*i*e+t[14]*i*r+t[15]*i*o},y=t=>{let e=[],s=[],r=[];for(let s=0;s<4;++s)e[s]=[],e[s][0]=n(t[0][s],t[1][s],t[2][s],t[3][s]),e[s][1]=[],e[s][1].push(...n(...e[s][0][0])),e[s][1].push(...n(...e[s][0][1])),e[s][2]=[],e[s][2].push(...n(...e[s][1][0])),e[s][2].push(...n(...e[s][1][1])),e[s][2].push(...n(...e[s][1][2])),e[s][2].push(...n(...e[s][1][3]));for(let t=0;t<8;++t){s[t]=[];for(let r=0;r<4;++r)s[t][r]=[],s[t][r][0]=n(e[0][2][t][r],e[1][2][t][r],e[2][2][t][r],e[3][2][t][r]),s[t][r][1]=[],s[t][r][1].push(...n(...s[t][r][0][0])),s[t][r][1].push(...n(...s[t][r][0][1])),s[t][r][2]=[],s[t][r][2].push(...n(...s[t][r][1][0])),s[t][r][2].push(...n(...s[t][r][1][1])),s[t][r][2].push(...n(...s[t][r][1][2])),s[t][r][2].push(...n(...s[t][r][1][3]))}for(let t=0;t<8;++t){r[t]=[];for(let e=0;e<8;++e)r[t][e]=[],r[t][e][0]=s[t][0][2][e],r[t][e][1]=s[t][1][2][e],r[t][e][2]=s[t][2][2][e],r[t][e][3]=s[t][3][2][e]}return r};class x{constructor(t,e){this.x=t||0,this.y=e||0}toString(){return`(x=${this.x}, y=${this.y})`}clone(){return new x(this.x,this.y)}add(t){return new x(this.x+t.x,this.y+t.y)}scale(t){return void 0===t.x?new x(this.x*t,this.y*t):new x(this.x*t.x,this.y*t.y)}distSquared(t){let e=this.x-t.x,s=this.y-t.y;return e*e+s*s}transform(t){let e=this.x*t.a+this.y*t.c+t.e,s=this.x*t.b+this.y*t.d+t.f;return new x(e,s)}}class g{constructor(t,e,s,r,n,o){void 0===t?(this.a=1,this.b=0,this.c=0,this.d=1,this.e=0,this.f=0):(this.a=t,this.b=e,this.c=s,this.d=r,this.e=n,this.f=o)}toString(){return`affine: ${this.a} ${this.c} ${this.e} \n       ${this.b} ${this.d} ${this.f}`}append(t){t instanceof g||console.error("mesh.js: argument to Affine.append is not affine!");let e=this.a*t.a+this.c*t.b,s=this.b*t.a+this.d*t.b,r=this.a*t.c+this.c*t.d,n=this.b*t.c+this.d*t.d,o=this.a*t.e+this.c*t.f+this.e,i=this.b*t.e+this.d*t.f+this.f;return new g(e,s,r,n,o,i)}}class w{constructor(t,e){this.nodes=t,this.colors=e}paintCurve(t,e){if(o(this.nodes)>r){const s=n(...this.nodes);let r=[[],[]],o=[[],[]];for(let t=0;t<4;++t)r[0][t]=this.colors[0][t],r[1][t]=(this.colors[0][t]+this.colors[1][t])/2,o[0][t]=r[1][t],o[1][t]=this.colors[1][t];let i=new w(s[0],r),a=new w(s[1],o);i.paintCurve(t,e),a.paintCurve(t,e)}else{let s=Math.round(this.nodes[0].x);if(s>=0&&s<e){let r=4*(~~this.nodes[0].y*e+s);t[r]=Math.round(this.colors[0][0]),t[r+1]=Math.round(this.colors[0][1]),t[r+2]=Math.round(this.colors[0][2]),t[r+3]=Math.round(this.colors[0][3])}}}}class m{constructor(t,e){this.nodes=t,this.colors=e}split(){let t=[[],[],[],[]],e=[[],[],[],[]],s=[[[],[]],[[],[]]],r=[[[],[]],[[],[]]];for(let s=0;s<4;++s){const r=n(this.nodes[0][s],this.nodes[1][s],this.nodes[2][s],this.nodes[3][s]);t[0][s]=r[0][0],t[1][s]=r[0][1],t[2][s]=r[0][2],t[3][s]=r[0][3],e[0][s]=r[1][0],e[1][s]=r[1][1],e[2][s]=r[1][2],e[3][s]=r[1][3]}for(let t=0;t<4;++t)s[0][0][t]=this.colors[0][0][t],s[0][1][t]=this.colors[0][1][t],s[1][0][t]=(this.colors[0][0][t]+this.colors[1][0][t])/2,s[1][1][t]=(this.colors[0][1][t]+this.colors[1][1][t])/2,r[0][0][t]=s[1][0][t],r[0][1][t]=s[1][1][t],r[1][0][t]=this.colors[1][0][t],r[1][1][t]=this.colors[1][1][t];return[new m(t,s),new m(e,r)]}paint(t,e){let s,n=!1;for(let t=0;t<4;++t)if((s=o([this.nodes[0][t],this.nodes[1][t],this.nodes[2][t],this.nodes[3][t]]))>r){n=!0;break}if(n){let s=this.split();s[0].paint(t,e),s[1].paint(t,e)}else{new w([...this.nodes[0]],[...this.colors[0]]).paintCurve(t,e)}}}class b{constructor(t){this.readMesh(t),this.type=t.getAttribute("type")||"bilinear"}readMesh(t){let e=[[]],s=[[]],r=Number(t.getAttribute("x")),n=Number(t.getAttribute("y"));e[0][0]=new x(r,n);let o=t.children;for(let t=0,r=o.length;t<r;++t){e[3*t+1]=[],e[3*t+2]=[],e[3*t+3]=[],s[t+1]=[];let r=o[t].children;for(let n=0,o=r.length;n<o;++n){let o=r[n].children;for(let r=0,i=o.length;r<i;++r){let i=r;0!==t&&++i;let h,d=o[r].getAttribute("path"),c="l";null!=d&&(c=(h=d.match(/\s*([lLcC])\s*(.*)/))[1]);let u=l(h[2]);switch(c){case"l":0===i?(e[3*t][3*n+3]=u[0].add(e[3*t][3*n]),e[3*t][3*n+1]=a(e[3*t][3*n],e[3*t][3*n+3]),e[3*t][3*n+2]=a(e[3*t][3*n+3],e[3*t][3*n])):1===i?(e[3*t+3][3*n+3]=u[0].add(e[3*t][3*n+3]),e[3*t+1][3*n+3]=a(e[3*t][3*n+3],e[3*t+3][3*n+3]),e[3*t+2][3*n+3]=a(e[3*t+3][3*n+3],e[3*t][3*n+3])):2===i?(0===n&&(e[3*t+3][3*n+0]=u[0].add(e[3*t+3][3*n+3])),e[3*t+3][3*n+1]=a(e[3*t+3][3*n],e[3*t+3][3*n+3]),e[3*t+3][3*n+2]=a(e[3*t+3][3*n+3],e[3*t+3][3*n])):(e[3*t+1][3*n]=a(e[3*t][3*n],e[3*t+3][3*n]),e[3*t+2][3*n]=a(e[3*t+3][3*n],e[3*t][3*n]));break;case"L":0===i?(e[3*t][3*n+3]=u[0],e[3*t][3*n+1]=a(e[3*t][3*n],e[3*t][3*n+3]),e[3*t][3*n+2]=a(e[3*t][3*n+3],e[3*t][3*n])):1===i?(e[3*t+3][3*n+3]=u[0],e[3*t+1][3*n+3]=a(e[3*t][3*n+3],e[3*t+3][3*n+3]),e[3*t+2][3*n+3]=a(e[3*t+3][3*n+3],e[3*t][3*n+3])):2===i?(0===n&&(e[3*t+3][3*n+0]=u[0]),e[3*t+3][3*n+1]=a(e[3*t+3][3*n],e[3*t+3][3*n+3]),e[3*t+3][3*n+2]=a(e[3*t+3][3*n+3],e[3*t+3][3*n])):(e[3*t+1][3*n]=a(e[3*t][3*n],e[3*t+3][3*n]),e[3*t+2][3*n]=a(e[3*t+3][3*n],e[3*t][3*n]));break;case"c":0===i?(e[3*t][3*n+1]=u[0].add(e[3*t][3*n]),e[3*t][3*n+2]=u[1].add(e[3*t][3*n]),e[3*t][3*n+3]=u[2].add(e[3*t][3*n])):1===i?(e[3*t+1][3*n+3]=u[0].add(e[3*t][3*n+3]),e[3*t+2][3*n+3]=u[1].add(e[3*t][3*n+3]),e[3*t+3][3*n+3]=u[2].add(e[3*t][3*n+3])):2===i?(e[3*t+3][3*n+2]=u[0].add(e[3*t+3][3*n+3]),e[3*t+3][3*n+1]=u[1].add(e[3*t+3][3*n+3]),0===n&&(e[3*t+3][3*n+0]=u[2].add(e[3*t+3][3*n+3]))):(e[3*t+2][3*n]=u[0].add(e[3*t+3][3*n]),e[3*t+1][3*n]=u[1].add(e[3*t+3][3*n]));break;case"C":0===i?(e[3*t][3*n+1]=u[0],e[3*t][3*n+2]=u[1],e[3*t][3*n+3]=u[2]):1===i?(e[3*t+1][3*n+3]=u[0],e[3*t+2][3*n+3]=u[1],e[3*t+3][3*n+3]=u[2]):2===i?(e[3*t+3][3*n+2]=u[0],e[3*t+3][3*n+1]=u[1],0===n&&(e[3*t+3][3*n+0]=u[2])):(e[3*t+2][3*n]=u[0],e[3*t+1][3*n]=u[1]);break;default:console.error("mesh.js: "+c+" invalid path type.")}if(0===t&&0===n||r>0){let e=window.getComputedStyle(o[r]).stopColor.match(/^rgb\s*\(\s*(\d+)\s*,\s*(\d+)\s*,\s*(\d+)\s*\)$/i),a=window.getComputedStyle(o[r]).stopOpacity,h=255;a&&(h=Math.floor(255*a)),e&&(0===i?(s[t][n]=[],s[t][n][0]=Math.floor(e[1]),s[t][n][1]=Math.floor(e[2]),s[t][n][2]=Math.floor(e[3]),s[t][n][3]=h):1===i?(s[t][n+1]=[],s[t][n+1][0]=Math.floor(e[1]),s[t][n+1][1]=Math.floor(e[2]),s[t][n+1][2]=Math.floor(e[3]),s[t][n+1][3]=h):2===i?(s[t+1][n+1]=[],s[t+1][n+1][0]=Math.floor(e[1]),s[t+1][n+1][1]=Math.floor(e[2]),s[t+1][n+1][2]=Math.floor(e[3]),s[t+1][n+1][3]=h):3===i&&(s[t+1][n]=[],s[t+1][n][0]=Math.floor(e[1]),s[t+1][n][1]=Math.floor(e[2]),s[t+1][n][2]=Math.floor(e[3]),s[t+1][n][3]=h))}}e[3*t+1][3*n+1]=new x,e[3*t+1][3*n+2]=new x,e[3*t+2][3*n+1]=new x,e[3*t+2][3*n+2]=new x,e[3*t+1][3*n+1].x=(-4*e[3*t][3*n].x+6*(e[3*t][3*n+1].x+e[3*t+1][3*n].x)+-2*(e[3*t][3*n+3].x+e[3*t+3][3*n].x)+3*(e[3*t+3][3*n+1].x+e[3*t+1][3*n+3].x)+-1*e[3*t+3][3*n+3].x)/9,e[3*t+1][3*n+2].x=(-4*e[3*t][3*n+3].x+6*(e[3*t][3*n+2].x+e[3*t+1][3*n+3].x)+-2*(e[3*t][3*n].x+e[3*t+3][3*n+3].x)+3*(e[3*t+3][3*n+2].x+e[3*t+1][3*n].x)+-1*e[3*t+3][3*n].x)/9,e[3*t+2][3*n+1].x=(-4*e[3*t+3][3*n].x+6*(e[3*t+3][3*n+1].x+e[3*t+2][3*n].x)+-2*(e[3*t+3][3*n+3].x+e[3*t][3*n].x)+3*(e[3*t][3*n+1].x+e[3*t+2][3*n+3].x)+-1*e[3*t][3*n+3].x)/9,e[3*t+2][3*n+2].x=(-4*e[3*t+3][3*n+3].x+6*(e[3*t+3][3*n+2].x+e[3*t+2][3*n+3].x)+-2*(e[3*t+3][3*n].x+e[3*t][3*n+3].x)+3*(e[3*t][3*n+2].x+e[3*t+2][3*n].x)+-1*e[3*t][3*n].x)/9,e[3*t+1][3*n+1].y=(-4*e[3*t][3*n].y+6*(e[3*t][3*n+1].y+e[3*t+1][3*n].y)+-2*(e[3*t][3*n+3].y+e[3*t+3][3*n].y)+3*(e[3*t+3][3*n+1].y+e[3*t+1][3*n+3].y)+-1*e[3*t+3][3*n+3].y)/9,e[3*t+1][3*n+2].y=(-4*e[3*t][3*n+3].y+6*(e[3*t][3*n+2].y+e[3*t+1][3*n+3].y)+-2*(e[3*t][3*n].y+e[3*t+3][3*n+3].y)+3*(e[3*t+3][3*n+2].y+e[3*t+1][3*n].y)+-1*e[3*t+3][3*n].y)/9,e[3*t+2][3*n+1].y=(-4*e[3*t+3][3*n].y+6*(e[3*t+3][3*n+1].y+e[3*t+2][3*n].y)+-2*(e[3*t+3][3*n+3].y+e[3*t][3*n].y)+3*(e[3*t][3*n+1].y+e[3*t+2][3*n+3].y)+-1*e[3*t][3*n+3].y)/9,e[3*t+2][3*n+2].y=(-4*e[3*t+3][3*n+3].y+6*(e[3*t+3][3*n+2].y+e[3*t+2][3*n+3].y)+-2*(e[3*t+3][3*n].y+e[3*t][3*n+3].y)+3*(e[3*t][3*n+2].y+e[3*t+2][3*n].y)+-1*e[3*t][3*n].y)/9}}this.nodes=e,this.colors=s}paintMesh(t,e){let s=(this.nodes.length-1)/3,r=(this.nodes[0].length-1)/3;if("bilinear"===this.type||s<2||r<2){let n;for(let o=0;o<s;++o)for(let s=0;s<r;++s){let r=[];for(let t=3*o,e=3*o+4;t<e;++t)r.push(this.nodes[t].slice(3*s,3*s+4));let i=[];i.push(this.colors[o].slice(s,s+2)),i.push(this.colors[o+1].slice(s,s+2)),(n=new m(r,i)).paint(t,e)}}else{let n,o,a,h,l,d,u;const x=s,g=r;s++,r++;let w=new Array(s);for(let t=0;t<s;++t){w[t]=new Array(r);for(let e=0;e<r;++e)w[t][e]=[],w[t][e][0]=this.nodes[3*t][3*e],w[t][e][1]=this.colors[t][e]}for(let t=0;t<s;++t)for(let e=0;e<r;++e)0!==t&&t!==x&&(n=i(w[t-1][e][0],w[t][e][0]),o=i(w[t+1][e][0],w[t][e][0]),w[t][e][2]=c(w[t-1][e][1],w[t][e][1],w[t+1][e][1],n,o)),0!==e&&e!==g&&(n=i(w[t][e-1][0],w[t][e][0]),o=i(w[t][e+1][0],w[t][e][0]),w[t][e][3]=c(w[t][e-1][1],w[t][e][1],w[t][e+1][1],n,o));for(let t=0;t<r;++t){w[0][t][2]=[],w[x][t][2]=[];for(let e=0;e<4;++e)n=i(w[1][t][0],w[0][t][0]),o=i(w[x][t][0],w[x-1][t][0]),w[0][t][2][e]=n>0?2*(w[1][t][1][e]-w[0][t][1][e])/n-w[1][t][2][e]:0,w[x][t][2][e]=o>0?2*(w[x][t][1][e]-w[x-1][t][1][e])/o-w[x-1][t][2][e]:0}for(let t=0;t<s;++t){w[t][0][3]=[],w[t][g][3]=[];for(let e=0;e<4;++e)n=i(w[t][1][0],w[t][0][0]),o=i(w[t][g][0],w[t][g-1][0]),w[t][0][3][e]=n>0?2*(w[t][1][1][e]-w[t][0][1][e])/n-w[t][1][3][e]:0,w[t][g][3][e]=o>0?2*(w[t][g][1][e]-w[t][g-1][1][e])/o-w[t][g-1][3][e]:0}for(let s=0;s<x;++s)for(let r=0;r<g;++r){let n=i(w[s][r][0],w[s+1][r][0]),o=i(w[s][r+1][0],w[s+1][r+1][0]),c=i(w[s][r][0],w[s][r+1][0]),x=i(w[s+1][r][0],w[s+1][r+1][0]),g=[[],[],[],[]];for(let t=0;t<4;++t){(d=[])[0]=w[s][r][1][t],d[1]=w[s+1][r][1][t],d[2]=w[s][r+1][1][t],d[3]=w[s+1][r+1][1][t],d[4]=w[s][r][2][t]*n,d[5]=w[s+1][r][2][t]*n,d[6]=w[s][r+1][2][t]*o,d[7]=w[s+1][r+1][2][t]*o,d[8]=w[s][r][3][t]*c,d[9]=w[s+1][r][3][t]*x,d[10]=w[s][r+1][3][t]*c,d[11]=w[s+1][r+1][3][t]*x,d[12]=0,d[13]=0,d[14]=0,d[15]=0,u=f(d);for(let e=0;e<9;++e){g[t][e]=[];for(let s=0;s<9;++s)g[t][e][s]=p(u,e/8,s/8),g[t][e][s]>255?g[t][e][s]=255:g[t][e][s]<0&&(g[t][e][s]=0)}}h=[];for(let t=3*s,e=3*s+4;t<e;++t)h.push(this.nodes[t].slice(3*r,3*r+4));l=y(h);for(let s=0;s<8;++s)for(let r=0;r<8;++r)(a=new m(l[s][r],[[[g[0][s][r],g[1][s][r],g[2][s][r],g[3][s][r]],[g[0][s][r+1],g[1][s][r+1],g[2][s][r+1],g[3][s][r+1]]],[[g[0][s+1][r],g[1][s+1][r],g[2][s+1][r],g[3][s+1][r]],[g[0][s+1][r+1],g[1][s+1][r+1],g[2][s+1][r+1],g[3][s+1][r+1]]]])).paint(t,e)}}}transform(t){if(t instanceof x)for(let e=0,s=this.nodes.length;e<s;++e)for(let s=0,r=this.nodes[0].length;s<r;++s)this.nodes[e][s]=this.nodes[e][s].add(t);else if(t instanceof g)for(let e=0,s=this.nodes.length;e<s;++e)for(let s=0,r=this.nodes[0].length;s<r;++s)this.nodes[e][s]=this.nodes[e][s].transform(t)}scale(t){for(let e=0,s=this.nodes.length;e<s;++e)for(let s=0,r=this.nodes[0].length;s<r;++s)this.nodes[e][s]=this.nodes[e][s].scale(t)}}document.querySelectorAll("rect,circle,ellipse,path,text").forEach((r,n)=>{let o=r.getAttribute("id");o||(o="patchjs_shape"+n,r.setAttribute("id",o));const i=r.style.fill.match(/^url\(\s*"?\s*#([^\s"]+)"?\s*\)/),a=r.style.stroke.match(/^url\(\s*"?\s*#([^\s"]+)"?\s*\)/);if(i&&i[1]){const a=document.getElementById(i[1]);if(a&&"meshgradient"===a.nodeName){const i=r.getBBox();let l=document.createElementNS(s,"canvas");d(l,{width:i.width,height:i.height});const c=l.getContext("2d");let u=c.createImageData(i.width,i.height);const f=new b(a);"objectBoundingBox"===a.getAttribute("gradientUnits")&&f.scale(new x(i.width,i.height));const p=a.getAttribute("gradientTransform");null!=p&&f.transform(h(p)),"userSpaceOnUse"===a.getAttribute("gradientUnits")&&f.transform(new x(-i.x,-i.y)),f.paintMesh(u.data,l.width),c.putImageData(u,0,0);const y=document.createElementNS(t,"image");d(y,{width:i.width,height:i.height,x:i.x,y:i.y});let g=l.toDataURL();y.setAttributeNS(e,"xlink:href",g),r.parentNode.insertBefore(y,r),r.style.fill="none";const w=document.createElementNS(t,"use");w.setAttributeNS(e,"xlink:href","#"+o);const m="patchjs_clip"+n,M=document.createElementNS(t,"clipPath");M.setAttribute("id",m),M.appendChild(w),r.parentElement.insertBefore(M,r),y.setAttribute("clip-path","url(#"+m+")"),u=null,l=null,g=null}}if(a&&a[1]){const o=document.getElementById(a[1]);if(o&&"meshgradient"===o.nodeName){const i=parseFloat(r.style.strokeWidth.slice(0,-2))*(parseFloat(r.style.strokeMiterlimit)||parseFloat(r.getAttribute("stroke-miterlimit"))||1),a=r.getBBox(),l=Math.trunc(a.width+i),c=Math.trunc(a.height+i),u=Math.trunc(a.x-i/2),f=Math.trunc(a.y-i/2);let p=document.createElementNS(s,"canvas");d(p,{width:l,height:c});const y=p.getContext("2d");let g=y.createImageData(l,c);const w=new b(o);"objectBoundingBox"===o.getAttribute("gradientUnits")&&w.scale(new x(l,c));const m=o.getAttribute("gradientTransform");null!=m&&w.transform(h(m)),"userSpaceOnUse"===o.getAttribute("gradientUnits")&&w.transform(new x(-u,-f)),w.paintMesh(g.data,p.width),y.putImageData(g,0,0);const M=document.createElementNS(t,"image");d(M,{width:l,height:c,x:0,y:0});let S=p.toDataURL();M.setAttributeNS(e,"xlink:href",S);const k="pattern_clip"+n,A=document.createElementNS(t,"pattern");d(A,{id:k,patternUnits:"userSpaceOnUse",width:l,height:c,x:u,y:f}),A.appendChild(M),o.parentNode.appendChild(A),r.style.stroke="url(#"+k+")",g=null,p=null,S=null}}})}();</script>
</svg>
