<?xml version="1.0" encoding="UTF-8" standalone="no"?>
<!-- Created with Inkscape (http://www.inkscape.org/) -->

<svg
   width="39.573029mm"
   height="22.017178mm"
   viewBox="0 0 39.573029 22.017178"
   version="1.1"
   id="svg5"
   xml:space="preserve"
   sodipodi:docname="profile_icon2gg.svg"
   inkscape:version="1.2.2 (b0a8486, 2022-12-01)"
   xmlns:inkscape="http://www.inkscape.org/namespaces/inkscape"
   xmlns:sodipodi="http://sodipodi.sourceforge.net/DTD/sodipodi-0.dtd"
   xmlns="http://www.w3.org/2000/svg"
   xmlns:svg="http://www.w3.org/2000/svg"><sodipodi:namedview
     id="namedview18664"
     pagecolor="#ffffff"
     bordercolor="#000000"
     borderopacity="0.25"
     inkscape:showpageshadow="2"
     inkscape:pageopacity="0.0"
     inkscape:pagecheckerboard="0"
     inkscape:deskcolor="#d1d1d1"
     inkscape:document-units="mm"
     showgrid="false"
     inkscape:zoom="2.933646"
     inkscape:cx="76.185061"
     inkscape:cy="70.219788"
     inkscape:window-width="1390"
     inkscape:window-height="1052"
     inkscape:window-x="447"
     inkscape:window-y="1550"
     inkscape:window-maximized="0"
     inkscape:current-layer="svg5" /><defs
     id="defs2" /><g
     id="g18747"
     transform="translate(-50.58592,-124.97873)"><g
       id="layer2"><path
         style="opacity:1;fill:#483737;fill-opacity:1;stroke-width:0.264583"
         d="m 79.289777,145.545 c 0,0 0.541229,1.12756 1.939398,1.17266 1.39817,0.0451 6.043703,0.54123 6.675136,0.0902 0.631431,-0.45103 1.713883,-1.57859 1.80409,-2.97675 0.09021,-1.39817 0.721636,-4.46513 0.315715,-5.9535 -0.405922,-1.48838 -2.615931,-4.14941 -2.615931,-4.14941 l -2.074703,-0.85694 c 0,0 0.541226,0.58632 0.451022,1.17265 -0.0902,0.58633 -0.541227,1.03736 -0.766739,1.21776 -0.225512,0.18041 -1.307965,1.12756 -1.804091,0.58633 -0.496125,-0.54122 -0.947147,-1.30796 -0.947147,-1.30796 0,0 -1.307965,0.63143 -1.713886,0.49612 -0.405921,-0.1353 -0.81184,-0.54122 -0.81184,-0.54122 l -4.465124,3.02185 c 0,0 1.44327,2.57083 2.074704,2.79634 0.631431,0.22551 1.307965,0.18041 1.307965,0.18041 l 0.992251,-1.03735 -0.36082,2.88654 z"
         id="path11887" /></g><g
       id="layer1"><path
         style="fill:#000000;fill-opacity:1;stroke-width:0.264583"
         d="m 50.58592,137.39973 8.27251,-8.27251 4.811852,8.33437 -7.414566,7.41457 z"
         id="path6271" /><path
         style="fill:#000000;fill-opacity:1;stroke-width:0.269761"
         d="m 56.263285,144.81354 13.211546,-0.0962 4.743663,-8.08504 -11.096158,0.77613 z"
         id="path6273" /><path
         style="opacity:0.862295;fill:#161616;fill-opacity:1;stroke:none;stroke-width:0.0223032;stroke-dasharray:none;stroke-opacity:0.842491"
         d="m 66.87796,142.45962 2.665546,0.66016 1.590551,-2.93073 -2.481664,-1.04468 z"
         id="path17364-1" /><path
         style="opacity:0.862295;fill:#161616;fill-opacity:1;stroke:none;stroke-width:0.00383968;stroke-dasharray:none;stroke-opacity:0.842491"
         d="m 57.903584,144.16021 0.664308,0.0785 0.396398,-0.34854 -0.618481,-0.12423 z"
         id="path17364-1-6" /><path
         style="opacity:0.862295;fill:#161616;fill-opacity:1;stroke:none;stroke-width:0.00383968;stroke-dasharray:none;stroke-opacity:0.842491"
         d="m 58.455925,143.65258 0.664308,0.0785 0.396398,-0.34854 -0.618481,-0.12423 z"
         id="path17364-1-6-1" /><path
         style="opacity:0.862295;fill:#161616;fill-opacity:1;stroke:none;stroke-width:0.00383968;stroke-dasharray:none;stroke-opacity:0.842491"
         d="m 59.040401,143.0681 0.664308,0.0785 0.396398,-0.34854 -0.618481,-0.12423 z"
         id="path17364-1-6-1-2" /><path
         style="opacity:0.862295;fill:#161616;fill-opacity:1;stroke:none;stroke-width:0.00383968;stroke-dasharray:none;stroke-opacity:0.842491"
         d="m 59.624878,142.48362 0.664308,0.0785 0.396398,-0.34854 -0.618481,-0.12423 z"
         id="path17364-1-6-1-2-0" /><path
         style="opacity:0.862295;fill:#161616;fill-opacity:1;stroke:none;stroke-width:0.00383968;stroke-dasharray:none;stroke-opacity:0.842491"
         d="m 60.186433,141.93353 0.664308,0.0785 0.396398,-0.34854 -0.618481,-0.12423 z"
         id="path17364-1-6-1-2-0-4" /><path
         style="opacity:0.862295;fill:#161616;fill-opacity:1;stroke:none;stroke-width:0.00383968;stroke-dasharray:none;stroke-opacity:0.842491"
         d="m 60.736528,141.34905 0.664308,0.0785 0.396398,-0.34854 -0.618481,-0.12423 z"
         id="path17364-1-6-1-2-0-4-4" /><path
         style="opacity:0.862295;fill:#161616;fill-opacity:1;stroke:none;stroke-width:0.00383968;stroke-dasharray:none;stroke-opacity:0.842491"
         d="m 61.378307,140.79895 0.664308,0.0785 0.396398,-0.34854 -0.618481,-0.12423 z"
         id="path17364-1-6-1-2-0-4-4-5" /><path
         style="opacity:0.862295;fill:#161616;fill-opacity:1;stroke:none;stroke-width:0.00383968;stroke-dasharray:none;stroke-opacity:0.842491"
         d="m 61.962784,140.27178 0.664308,0.0785 0.396398,-0.34854 -0.618481,-0.12423 z"
         id="path17364-1-6-1-2-0-4-4-5-9" /><path
         style="opacity:0.862295;fill:#161616;fill-opacity:1;stroke:none;stroke-width:0.00383968;stroke-dasharray:none;stroke-opacity:0.842491"
         d="m 62.535799,139.72169 0.664308,0.0785 0.396398,-0.34854 -0.618481,-0.12423 z"
         id="path17364-1-6-1-2-0-4-4-5-9-7" /><path
         style="opacity:0.862295;fill:#161616;fill-opacity:1;stroke:none;stroke-width:0.00383968;stroke-dasharray:none;stroke-opacity:0.842491"
         d="m 63.028593,139.19452 0.664308,0.0785 0.396398,-0.34854 -0.618481,-0.12423 z"
         id="path17364-1-6-1-2-0-4-4-5-9-7-5" /><path
         style="opacity:0.862295;fill:#161616;fill-opacity:1;stroke:none;stroke-width:0.00383968;stroke-dasharray:none;stroke-opacity:0.842491"
         d="m 63.487006,138.70172 0.664308,0.0785 0.396398,-0.34854 -0.618481,-0.12423 z"
         id="path17364-1-6-1-2-0-4-4-5-9-7-5-3" /><path
         style="opacity:0.862295;fill:#161616;fill-opacity:1;stroke:none;stroke-width:0.00383968;stroke-dasharray:none;stroke-opacity:0.842491"
         d="m 63.830816,138.20892 0.664308,0.0785 0.396398,-0.34854 -0.618481,-0.12423 z"
         id="path17364-1-6-1-2-0-4-4-5-9-7-5-3-9" /><path
         style="opacity:0.862295;fill:#161616;fill-opacity:1;stroke:none;stroke-width:0.00383968;stroke-dasharray:none;stroke-opacity:0.842491"
         d="m 59.285676,144.01527 0.664307,0.0785 0.396398,-0.34854 L 59.7279,143.621 Z"
         id="path17364-1-6-0" /><path
         style="opacity:0.862295;fill:#161616;fill-opacity:1;stroke:none;stroke-width:0.00383968;stroke-dasharray:none;stroke-opacity:0.842491"
         d="m 59.838016,143.50764 0.664308,0.0785 0.396398,-0.34854 -0.618481,-0.12423 z"
         id="path17364-1-6-1-5" /><path
         style="opacity:0.862295;fill:#161616;fill-opacity:1;stroke:none;stroke-width:0.00383968;stroke-dasharray:none;stroke-opacity:0.842491"
         d="m 60.422493,142.92316 0.664307,0.0785 0.396398,-0.34854 -0.618481,-0.12423 z"
         id="path17364-1-6-1-2-5" /><path
         style="opacity:0.862295;fill:#161616;fill-opacity:1;stroke:none;stroke-width:0.00383968;stroke-dasharray:none;stroke-opacity:0.842491"
         d="m 61.00697,142.33868 0.664307,0.0785 0.396398,-0.34854 -0.618481,-0.12423 z"
         id="path17364-1-6-1-2-0-6" /><path
         style="opacity:0.862295;fill:#161616;fill-opacity:1;stroke:none;stroke-width:0.00383968;stroke-dasharray:none;stroke-opacity:0.842491"
         d="m 61.568524,141.78859 0.664308,0.0785 0.396398,-0.34854 -0.618481,-0.12423 z"
         id="path17364-1-6-1-2-0-4-3" /><path
         style="opacity:0.862295;fill:#161616;fill-opacity:1;stroke:none;stroke-width:0.00383968;stroke-dasharray:none;stroke-opacity:0.842491"
         d="m 62.118619,141.20411 0.664308,0.0785 0.396398,-0.34854 -0.618481,-0.12423 z"
         id="path17364-1-6-1-2-0-4-4-2" /><path
         style="opacity:0.862295;fill:#161616;fill-opacity:1;stroke:none;stroke-width:0.00383968;stroke-dasharray:none;stroke-opacity:0.842491"
         d="m 62.760398,140.65401 0.664308,0.0785 0.396398,-0.34854 -0.618481,-0.12423 z"
         id="path17364-1-6-1-2-0-4-4-5-6" /><path
         style="opacity:0.862295;fill:#161616;fill-opacity:1;stroke:none;stroke-width:0.00383968;stroke-dasharray:none;stroke-opacity:0.842491"
         d="m 63.344875,140.12684 0.664308,0.0785 0.396398,-0.34854 -0.618481,-0.12423 z"
         id="path17364-1-6-1-2-0-4-4-5-9-8" /><path
         style="opacity:0.862295;fill:#161616;fill-opacity:1;stroke:none;stroke-width:0.00383968;stroke-dasharray:none;stroke-opacity:0.842491"
         d="m 63.91789,139.57675 0.664308,0.0785 0.396398,-0.34854 -0.618481,-0.12423 z"
         id="path17364-1-6-1-2-0-4-4-5-9-7-9" /><path
         style="opacity:0.862295;fill:#161616;fill-opacity:1;stroke:none;stroke-width:0.00383968;stroke-dasharray:none;stroke-opacity:0.842491"
         d="m 64.410684,139.04958 0.664308,0.0785 0.396398,-0.34854 -0.618481,-0.12423 z"
         id="path17364-1-6-1-2-0-4-4-5-9-7-5-1" /><path
         style="opacity:0.862295;fill:#161616;fill-opacity:1;stroke:none;stroke-width:0.00383968;stroke-dasharray:none;stroke-opacity:0.842491"
         d="m 64.869097,138.55678 0.664308,0.0785 0.396399,-0.34854 -0.618482,-0.12423 z"
         id="path17364-1-6-1-2-0-4-4-5-9-7-5-3-4" /><path
         style="opacity:0.862295;fill:#161616;fill-opacity:1;stroke:none;stroke-width:0.00383968;stroke-dasharray:none;stroke-opacity:0.842491"
         d="m 65.212907,138.06398 0.664309,0.0785 0.396398,-0.34854 -0.618481,-0.12423 z"
         id="path17364-1-6-1-2-0-4-4-5-9-7-5-3-9-8" /><path
         style="opacity:0.862295;fill:#161616;fill-opacity:1;stroke:none;stroke-width:0.00383968;stroke-dasharray:none;stroke-opacity:0.842491"
         d="m 60.490158,144.09243 0.664307,0.0785 0.396398,-0.34854 -0.618481,-0.12423 z"
         id="path17364-1-6-0-8" /><path
         style="opacity:0.862295;fill:#161616;fill-opacity:1;stroke:none;stroke-width:0.00383968;stroke-dasharray:none;stroke-opacity:0.842491"
         d="m 61.042498,143.5848 0.664308,0.0785 0.396398,-0.34854 -0.618481,-0.12423 z"
         id="path17364-1-6-1-5-7" /><path
         style="opacity:0.862295;fill:#161616;fill-opacity:1;stroke:none;stroke-width:0.00383968;stroke-dasharray:none;stroke-opacity:0.842491"
         d="m 61.626975,143.00032 0.664307,0.0785 0.396398,-0.34854 -0.618481,-0.12423 z"
         id="path17364-1-6-1-2-5-1" /><path
         style="opacity:0.862295;fill:#161616;fill-opacity:1;stroke:none;stroke-width:0.00383968;stroke-dasharray:none;stroke-opacity:0.842491"
         d="m 62.211452,142.41584 0.664307,0.0785 0.396398,-0.34854 -0.618481,-0.12423 z"
         id="path17364-1-6-1-2-0-6-9" /><path
         style="opacity:0.862295;fill:#161616;fill-opacity:1;stroke:none;stroke-width:0.00383968;stroke-dasharray:none;stroke-opacity:0.842491"
         d="m 62.773006,141.86575 0.664308,0.0785 0.396398,-0.34854 -0.618481,-0.12423 z"
         id="path17364-1-6-1-2-0-4-3-3" /><path
         style="opacity:0.862295;fill:#161616;fill-opacity:1;stroke:none;stroke-width:0.00383968;stroke-dasharray:none;stroke-opacity:0.842491"
         d="m 63.323101,141.28127 0.664308,0.0785 0.396398,-0.34854 -0.618481,-0.12423 z"
         id="path17364-1-6-1-2-0-4-4-2-1" /><path
         style="opacity:0.862295;fill:#161616;fill-opacity:1;stroke:none;stroke-width:0.00383968;stroke-dasharray:none;stroke-opacity:0.842491"
         d="m 63.96488,140.73117 0.664308,0.0785 0.396398,-0.34854 -0.618481,-0.12423 z"
         id="path17364-1-6-1-2-0-4-4-5-6-1" /><path
         style="opacity:0.862295;fill:#161616;fill-opacity:1;stroke:none;stroke-width:0.00383968;stroke-dasharray:none;stroke-opacity:0.842491"
         d="m 64.549357,140.204 0.664308,0.0785 0.396398,-0.34854 -0.618481,-0.12423 z"
         id="path17364-1-6-1-2-0-4-4-5-9-8-4" /><path
         style="opacity:0.862295;fill:#161616;fill-opacity:1;stroke:none;stroke-width:0.00383968;stroke-dasharray:none;stroke-opacity:0.842491"
         d="m 65.122372,139.65391 0.664308,0.0785 0.396398,-0.34854 -0.618481,-0.12423 z"
         id="path17364-1-6-1-2-0-4-4-5-9-7-9-9" /><path
         style="opacity:0.862295;fill:#161616;fill-opacity:1;stroke:none;stroke-width:0.00383968;stroke-dasharray:none;stroke-opacity:0.842491"
         d="m 65.615166,139.12674 0.664308,0.0785 0.396398,-0.34854 -0.618481,-0.12423 z"
         id="path17364-1-6-1-2-0-4-4-5-9-7-5-1-5" /><path
         style="opacity:0.862295;fill:#161616;fill-opacity:1;stroke:none;stroke-width:0.00383968;stroke-dasharray:none;stroke-opacity:0.842491"
         d="m 66.073579,138.63394 0.664308,0.0785 0.396399,-0.34854 -0.618482,-0.12423 z"
         id="path17364-1-6-1-2-0-4-4-5-9-7-5-3-4-9" /><path
         style="opacity:0.862295;fill:#161616;fill-opacity:1;stroke:none;stroke-width:0.00383968;stroke-dasharray:none;stroke-opacity:0.842491"
         d="m 66.417389,138.14114 0.664309,0.0785 0.396398,-0.34854 -0.618481,-0.12423 z"
         id="path17364-1-6-1-2-0-4-4-5-9-7-5-3-9-8-0" /><path
         style="opacity:0.862295;fill:#161616;fill-opacity:1;stroke:none;stroke-width:0.00383968;stroke-dasharray:none;stroke-opacity:0.842491"
         d="m 62.016044,144.00996 0.664307,0.0785 0.396398,-0.34854 -0.618481,-0.12423 z"
         id="path17364-1-6-0-8-9" /><path
         style="opacity:0.862295;fill:#161616;fill-opacity:1;stroke:none;stroke-width:0.00383968;stroke-dasharray:none;stroke-opacity:0.842491"
         d="m 62.568384,143.50233 0.664308,0.0785 0.396398,-0.34854 -0.618481,-0.12423 z"
         id="path17364-1-6-1-5-7-3" /><path
         style="opacity:0.862295;fill:#161616;fill-opacity:1;stroke:none;stroke-width:0.00383968;stroke-dasharray:none;stroke-opacity:0.842491"
         d="m 63.152861,142.91785 0.664307,0.0785 0.396398,-0.34854 -0.618481,-0.12423 z"
         id="path17364-1-6-1-2-5-1-4" /><path
         style="opacity:0.862295;fill:#161616;fill-opacity:1;stroke:none;stroke-width:0.00383968;stroke-dasharray:none;stroke-opacity:0.842491"
         d="m 63.737338,142.33337 0.664307,0.0785 0.396398,-0.34854 -0.618481,-0.12423 z"
         id="path17364-1-6-1-2-0-6-9-0" /><path
         style="opacity:0.862295;fill:#161616;fill-opacity:1;stroke:none;stroke-width:0.00383968;stroke-dasharray:none;stroke-opacity:0.842491"
         d="m 64.298892,141.78328 0.664308,0.0785 0.396398,-0.34854 -0.618481,-0.12423 z"
         id="path17364-1-6-1-2-0-4-3-3-7" /><path
         style="opacity:0.862295;fill:#161616;fill-opacity:1;stroke:none;stroke-width:0.00383968;stroke-dasharray:none;stroke-opacity:0.842491"
         d="m 64.848987,141.1988 0.664308,0.0785 0.396398,-0.34854 -0.618481,-0.12423 z"
         id="path17364-1-6-1-2-0-4-4-2-1-5" /><path
         style="opacity:0.862295;fill:#161616;fill-opacity:1;stroke:none;stroke-width:0.00383968;stroke-dasharray:none;stroke-opacity:0.842491"
         d="m 65.490766,140.6487 0.664308,0.0785 0.396398,-0.34854 -0.618481,-0.12423 z"
         id="path17364-1-6-1-2-0-4-4-5-6-1-7" /><path
         style="opacity:0.862295;fill:#161616;fill-opacity:1;stroke:none;stroke-width:0.00383968;stroke-dasharray:none;stroke-opacity:0.842491"
         d="m 66.075243,140.12153 0.664308,0.0785 0.396398,-0.34854 -0.618481,-0.12423 z"
         id="path17364-1-6-1-2-0-4-4-5-9-8-4-5" /><path
         style="opacity:0.862295;fill:#161616;fill-opacity:1;stroke:none;stroke-width:0.00383968;stroke-dasharray:none;stroke-opacity:0.842491"
         d="m 66.648258,139.57144 0.664308,0.0785 0.396398,-0.34854 -0.618481,-0.12423 z"
         id="path17364-1-6-1-2-0-4-4-5-9-7-9-9-0" /><path
         style="opacity:0.862295;fill:#161616;fill-opacity:1;stroke:none;stroke-width:0.00383968;stroke-dasharray:none;stroke-opacity:0.842491"
         d="m 67.141052,139.04427 0.664308,0.0785 0.396398,-0.34854 -0.618481,-0.12423 z"
         id="path17364-1-6-1-2-0-4-4-5-9-7-5-1-5-6" /><path
         style="opacity:0.862295;fill:#161616;fill-opacity:1;stroke:none;stroke-width:0.00383968;stroke-dasharray:none;stroke-opacity:0.842491"
         d="m 67.599465,138.55147 0.664308,0.0785 0.396399,-0.34854 -0.618482,-0.12423 z"
         id="path17364-1-6-1-2-0-4-4-5-9-7-5-3-4-9-4" /><path
         style="opacity:0.862295;fill:#161616;fill-opacity:1;stroke:none;stroke-width:0.00383968;stroke-dasharray:none;stroke-opacity:0.842491"
         d="m 67.943275,138.05867 0.664309,0.0785 0.396398,-0.34854 -0.618481,-0.12423 z"
         id="path17364-1-6-1-2-0-4-4-5-9-7-5-3-9-8-0-7" /><path
         style="opacity:1;fill:#ffb380;fill-opacity:1;stroke-width:0.264583"
         d="m 67.393451,142.30561 0.274908,-0.20618 0.274907,-0.2749 0.178689,-0.31615 0.164947,-0.21992 0.164944,-0.0412 0.357378,0.19243 0.989666,0.50858 0.810974,0.27491 0.755994,0.12371 0.742249,0.3024 1.800643,0.7697 2.15802,0.89344 1.745659,0.68727 2.240492,0.71476 c 0,0 1.608206,0.57731 2.322965,-0.0412 0.714758,-0.61854 2.254237,-2.13052 2.254237,-2.13052 0,0 -0.549814,-1.11338 -0.934684,-1.31956 -0.38487,-0.20618 -2.254237,-0.74225 -2.460418,-0.38487 -0.20618,0.35738 -0.357379,0.72851 -0.357379,0.72851 l -4.494729,-0.65978 -4.824618,-0.68727 -1.53948,-1.01715 c 0,0 -2.254237,-0.13746 -2.487908,0.0137 -0.233671,0.1512 -1.209591,1.01716 -1.237082,1.1821 -0.02749,0.16494 -0.123708,0.35738 -0.02749,0.39862 0.09622,0.0412 0.343634,0.0275 0.453596,-0.0275 0.109963,-0.055 0.192435,-0.21993 0.192435,-0.21993 0,0 0.01375,0.39861 0.09622,0.48109 0.08247,0.0825 0.233671,0.19243 0.233671,0.19243 z"
         id="path10195" /><path
         style="opacity:1;fill:#ffb380;fill-opacity:1;stroke-width:0.264583"
         d="m 72.930177,138.45903 c -0.226478,-0.0103 -1.852983,-0.42207 -1.852983,-0.42207 l -2.316229,-0.27794 c 0,0 -1.307383,-0.0926 -1.863275,-0.24707 -0.555895,-0.15438 -2.480939,-0.21618 -2.480939,-0.21618 0,0 -0.422066,0.0721 -0.597072,0.17501 l -0.813253,1.28679 c 0,0 -0.0072,0.19743 0.170732,0.17766 0.17791,-0.0198 0.721525,-0.54361 0.721525,-0.54361 0,0 0.187794,-0.42501 0.434891,-0.42501 0.247098,0 0.474428,-0.01 0.513963,0.0198 0.03954,0.0297 -0.494195,0.39535 -0.543614,0.59303 -0.04942,0.19768 -0.316285,0.81048 -0.316285,0.96862 0,0.15815 -0.0593,0.48431 0.0099,0.5535 0.06919,0.0692 0.197678,0.0791 0.296517,0.0692 0.09884,-0.01 0.03954,-0.0988 0.118607,-0.32617 0.07907,-0.22733 0.0593,-0.53373 0.17791,-0.67211 0.118607,-0.13837 0.326169,-0.35582 0.464543,-0.52384 0.138375,-0.16803 0.45466,-0.28664 0.563383,-0.28664 0.108723,0 0.247097,0.0395 0.237213,0.0988 -0.0099,0.0593 -0.316284,0.2471 -0.464543,0.3064 -0.148259,0.0593 -0.553499,0.22733 -0.553499,0.22733 0,0 -0.415123,0.2471 -0.266865,0.36571 0.148259,0.11861 0.642454,0.14826 0.751177,0.10872 0.108723,-0.0395 0.770944,-0.21744 0.770944,-0.21744 0,0 0.444776,-0.01 0.741293,-0.0395 0.296517,-0.0297 0.790712,-0.10872 0.830248,-0.18779 0.03954,-0.0791 0.148258,-0.1878 0.148258,-0.1878 0,0 0.336053,-0.22733 0.484311,-0.01 0.148259,0.21744 3.666928,1.98666 4.843113,2.01631 1.176184,0.0297 3.736115,-1.06746 3.736115,-1.06746 0,0 -1.541889,-2.0262 -1.512237,-2.20411 0.02965,-0.17791 -2.433833,0.88778 -2.433833,0.88778 z"
         id="path10197" /><path
         style="opacity:0.868852;fill:#161616;fill-opacity:1;stroke:none;stroke-width:0.264999;stroke-dasharray:none;stroke-opacity:0.842491"
         d="m 84.61215,143.50043 c 0,0 0.399394,0.29585 0.44377,0.47336 0.04438,0.17751 -0.177509,0.51773 -0.177509,0.51773 0,0 -0.355015,0.17751 -0.562107,-0.0296 -0.207092,-0.2071 -0.310639,-0.31064 -0.310639,-0.31064 z"
         id="path16502" /><path
         style="opacity:0.862295;fill:#161616;fill-opacity:1;stroke:none;stroke-width:0.264999;stroke-dasharray:none;stroke-opacity:0.842491"
         d="m 76.869983,139.77049 c 0,0 0.355381,0.18256 0.520053,0.26233 0.408079,0.19767 1.261181,0.45819 1.261181,0.45819 0,0 -0.152687,0.01 -0.332321,-0.002 -0.358717,-0.0238 -0.902652,-0.0963 -1.097063,-0.23866 -0.0074,-0.005 -0.01199,-0.0144 -0.01962,-0.0196 -0.240669,-0.16584 -0.415839,-0.41562 -0.415839,-0.41562 z"
         id="path16502-9" /></g><path
       style="opacity:0.357377;fill:#ff0000;fill-opacity:1;stroke-width:0.264583"
       d="m 82.224072,134.39589 0.82776,1.40259"
       id="path11891" /><path
       style="opacity:0.357377;fill:#ff0000;fill-opacity:1;stroke-width:0.264583"
       d="m 82.201077,134.3729 2.644233,-2.11539"
       id="path11893" /><path
       style="opacity:1;fill:#ffb380;fill-opacity:1;stroke-width:0.264583"
       d="m 82.109106,134.53385 c 0,0 2.50627,-1.88545 2.690216,-2.11539 0.183947,-0.22993 0.597826,0.55184 0.597826,0.55184 0,0 0.597826,0.6898 0.48286,1.0347 -0.114967,0.3449 -0.275921,0.75878 -0.41388,0.87375 -0.137959,0.11496 -0.669134,0.71442 -0.896739,0.87374 -0.229933,0.16096 -0.827758,0.32191 -1.103679,0.3449 -0.275921,0.023 -1.356604,-1.56354 -1.356604,-1.56354 z"
       id="path11895" /><path
       style="opacity:1;fill:#ffb380;fill-opacity:1;stroke-width:0.264583"
       d="m 77.638406,129.21841 c 0,0 0.868686,4.58853 2.01835,5.32432 1.149665,0.73578 1.105577,0.5569 1.105577,0.5569 0,0 1.014871,-0.0639 2.072561,-0.89167 1.057693,-0.82776 1.862458,-1.54056 1.977424,-1.70151 0.114967,-0.16095 0.436875,-0.96572 0.436875,-1.28762 0,-0.32191 -0.321908,-0.85076 -0.597826,-0.89674 -0.275921,-0.046 -0.574834,-0.22994 -0.75878,0.069 -0.183946,0.29891 -0.160954,0.80476 -0.160954,0.80476 0,0 -1.034698,-0.64381 -1.05769,-0.80476 -0.02299,-0.16096 -0.528847,-1.49457 -0.528847,-1.49457 z"
       id="path11897" /><path
       style="opacity:1;fill:#000000;fill-opacity:1;stroke-width:0.264583"
       d="m 77.804776,130.56358 c 0,0 0.144587,0.48197 -0.17672,1.49409 -0.321308,1.01212 -0.787205,0.96392 -0.787205,0.96392 0,0 -0.385569,-0.28917 -0.465896,-0.59442 -0.08033,-0.30524 0.0482,-0.49803 0.289176,-0.53016 0.240982,-0.0321 0.305244,-1.02818 0.305244,-1.02818 0,0 -0.369506,-1.06032 -0.224917,-1.62261 0.14459,-0.56229 0.273111,-1.39769 0.56229,-1.63867 0.289177,-0.24098 0.979991,-0.72294 1.333429,-0.65868 0.353438,0.0643 1.044252,0.72294 1.060318,1.28523 0.01606,0.56229 -0.208852,2.10457 -0.208852,2.10457 0,0 0.385569,-3.11669 0.610486,-3.10063 0.224915,0.0161 0.94786,-0.43376 1.526215,-0.0161 0.578353,0.4177 1.39769,1.91179 1.494081,2.55441 0.09639,0.64261 -0.08033,1.63867 0.09639,1.97604 0.17672,0.33737 1.108514,0.33737 1.108514,0.33737 0,0 0.176718,-0.11245 0.273111,-0.53015 0.09639,-0.41771 -0.257045,-0.62656 -0.257045,-0.62656 0,0 -0.546225,-1.2049 -0.578356,-1.86358 -0.03213,-0.65868 -0.787204,-2.29736 -0.787204,-2.29736 0,0 -1.590477,-1.30129 -2.217028,-0.8354 -0.62655,0.4659 -2.16883,0.97999 -2.16883,0.97999 z"
       id="path11899" /><path
       style="opacity:1;fill:#000000;fill-opacity:1;stroke-width:0.264583"
       d="m 77.804812,130.55221 c 0,0 0.95437,-1.18474 1.332825,-1.16828 0.378457,0.0164 0.691097,0.0823 0.691097,0.0823 l 0.312637,-0.19745 c 0,0 1.250555,-0.23037 1.62901,-0.0823 0.378458,0.14809 0.608822,1.10246 0.608822,1.10246 0,0 0.08227,0.39492 0.575914,0.67464 0.493641,0.27974 0.658188,0.23037 0.658188,0.23037 l 0.09873,-0.57591 0.164547,-0.14809 h 0.246819 0.148093 l 0.164547,0.0823 0.362,0.19745 0.345549,0.64174 -0.181002,0.77336 -0.131635,0.39492 -0.06582,0.23036 0.411367,0.37846 0.21391,0.27973 0.460732,0.0494 c 0,0 0.08227,0.11518 0.181002,-0.64173 0.09873,-0.75691 0.559456,-1.90874 0.559456,-2.18847 0,-0.27973 -0.230365,-1.48092 -0.230365,-1.48092 0,0 -0.362003,-0.95437 -0.625277,-1.44801 -0.263273,-0.49364 -1.217644,-1.74419 -1.480917,-1.81001 -0.263277,-0.0658 -1.94165,-1.06955 -2.40238,-0.93791 -0.46073,0.13163 -2.336562,0.0823 -2.599835,0.27973 -0.263274,0.19745 -1.72774,0.57591 -1.760649,0.93791 -0.03291,0.362 -0.526547,1.26701 -0.543002,1.57965 -0.01646,0.31264 0.01646,1.48092 0.08227,1.64546 0.06582,0.16455 0.77337,1.11892 0.77337,1.11892 z"
       id="path11901" /><ellipse
       style="opacity:1;fill:#007b00;fill-opacity:1;stroke-width:0.264583"
       id="path11955"
       cx="61.169903"
       cy="140.5271"
       rx="0.29844484"
       ry="0.52906126"
       transform="rotate(-7.6260471)" /><ellipse
       style="fill:#007b00;fill-opacity:1;stroke-width:0.264583"
       id="path11955-6"
       cx="62.964535"
       cy="140.61684"
       rx="0.29844484"
       ry="0.52906126"
       transform="rotate(-7.6260471)" /><path
       style="opacity:1;fill:#000000;fill-opacity:1;stroke-width:0.264583"
       d="m 81.219957,128.22385 c 0.246248,0.0127 0.461674,0.17302 0.691235,0.23041 0.05588,0.014 0.132074,-0.0407 0.172807,0 0.01357,0.0136 -0.01357,0.044 0,0.0576 0.01357,0.0136 0.04043,-0.009 0.0576,0 0.04857,0.0243 0.06663,0.0909 0.115205,0.11521 0.07813,0.0391 0.17281,-0.0759 0.17281,0.0576"
       id="path12655" /><path
       style="opacity:1;fill:none;fill-opacity:1;stroke:#000000;stroke-width:0.065;stroke-dasharray:none;stroke-opacity:0.842491"
       d="m 79.994878,131.60057 c 0,0 0,0.48493 -0.08083,0.80823 -0.08082,0.32329 -0.222263,0.50514 -0.161647,0.60617 0.06062,0.10103 0.666792,0.0606 0.666792,0.0606 h 0.06062 v 0 0"
       id="path15660" /><path
       style="opacity:0.373771;fill:#161616;fill-opacity:1;stroke:none;stroke-width:0.264999;stroke-dasharray:none;stroke-opacity:0.842491"
       d="m 84.746204,132.79116 c 0,0 0.03781,-0.10912 0.08219,0.0684 0.04438,0.17751 -1.207462,1.13162 -1.207462,1.13162 0,0 -1.292173,0.81541 -1.575033,0.89139 -0.331565,0.0891 -1.236415,0.33061 -1.045116,0.22317 0.07839,-0.044 0.87856,-0.2939 0.87856,-0.2939 z"
       id="path16502-5" /><path
       style="opacity:0.862295;fill:#161616;fill-opacity:1;stroke:none;stroke-width:0.0649999;stroke-dasharray:none;stroke-opacity:0.842491"
       d="m 51.218433,137.43254 4.977436,6.39079 6.728757,-6.48296 -4.147865,-7.28181 z"
       id="path17364" /><path
       style="opacity:0.862295;fill:#f2f2f2;fill-opacity:1;stroke:none;stroke-width:0.0649999;stroke-dasharray:none;stroke-opacity:0.842491"
       d="m 57.554534,140.87796 3.270386,-3.06574 c 0,0 0.124939,-0.13252 0.347462,0.09 0.222522,0.22253 0.370203,0.23886 0.122947,0.48612 -0.247256,0.24725 -3.351532,3.25708 -3.351532,3.25708 0,0 -0.324456,-0.1091 -0.509545,-0.29419 -0.185092,-0.18509 -0.01725,-0.33574 0.120282,-0.47327 z"
       id="path18194" /><path
       style="opacity:0.862295;fill:#f2f2f2;fill-opacity:1;stroke:none;stroke-width:0.0649999;stroke-dasharray:none;stroke-opacity:0.842491"
       d="m 58.145907,130.94136 0.433456,-0.43345 0.332944,0.44601 -0.389483,0.38949 z"
       id="path18196" /><path
       style="opacity:0.862295;fill:#f2f2f2;fill-opacity:1;stroke:none;stroke-width:0.0649999;stroke-dasharray:none;stroke-opacity:0.842491"
       d="m 58.529107,131.52245 0.433456,-0.43345 0.332944,0.44601 -0.389483,0.38949 z"
       id="path18196-3" /><path
       style="opacity:0.862295;fill:#f2f2f2;fill-opacity:1;stroke:none;stroke-width:0.0649999;stroke-dasharray:none;stroke-opacity:0.842491"
       d="m 58.931153,132.13807 0.433456,-0.43345 0.332944,0.44601 -0.389483,0.38949 z"
       id="path18196-3-7" /><path
       style="opacity:0.862295;fill:#f2f2f2;fill-opacity:1;stroke:none;stroke-width:0.0649999;stroke-dasharray:none;stroke-opacity:0.842491"
       d="m 59.369397,132.72828 0.433456,-0.43345 0.332944,0.44601 -0.389483,0.38949 z"
       id="path18196-3-7-1" /><path
       style="opacity:0.862295;fill:#333333;fill-opacity:1;stroke:none;stroke-width:0.0649999;stroke-dasharray:none;stroke-opacity:0.842491"
       d="m 57.67212,140.96342 0.433456,-0.43345 0.332944,0.44601 -0.389483,0.38949 z"
       id="path18196-3-7-1-9" /><path
       style="opacity:0.862295;fill:#333333;fill-opacity:1;stroke:none;stroke-width:0.0649999;stroke-dasharray:none;stroke-opacity:0.842491"
       d="m 58.262957,140.35071 0.433456,-0.43345 0.332944,0.44601 -0.389483,0.38949 z"
       id="path18196-3-7-1-9-3" /><path
       style="opacity:0.862295;fill:#333333;fill-opacity:1;stroke:none;stroke-width:0.0649999;stroke-dasharray:none;stroke-opacity:0.842491"
       d="m 58.897562,139.78175 0.433456,-0.43345 0.332944,0.44601 -0.389483,0.38949 z"
       id="path18196-3-7-1-9-3-7" /><path
       style="opacity:0.862295;fill:#333333;fill-opacity:1;stroke:none;stroke-width:0.0649999;stroke-dasharray:none;stroke-opacity:0.842491"
       d="m 59.554049,139.16902 0.433456,-0.43345 0.332944,0.44601 -0.389483,0.38949 z"
       id="path18196-3-7-1-9-3-7-4" /><path
       style="opacity:0.862295;fill:#333333;fill-opacity:1;stroke:none;stroke-width:0.0649999;stroke-dasharray:none;stroke-opacity:0.842491"
       d="m 60.210535,138.51254 0.433456,-0.43345 0.332944,0.44601 -0.389483,0.38949 z"
       id="path18196-3-7-1-9-3-7-4-8" /><path
       style="opacity:0.862295;fill:#f2f2f2;fill-opacity:1;stroke:none;stroke-width:0.0649999;stroke-dasharray:none;stroke-opacity:0.842491"
       d="m 55.495781,136.128 0.433456,-0.43345 0.332944,0.44601 -0.389483,0.38949 z"
       id="path18196-3-7-1-8" /></g></svg>
