<?xml version="1.0" encoding="UTF-8"?>
<svg width="46.302mm" height="29.368mm" version="1.1" viewBox="0 0 46.302 29.368" xml:space="preserve" xmlns="http://www.w3.org/2000/svg"><path d="m20.47 10.537s9.338-2.1857 7.3195 3.0083c-2.8503 7.3344-3.2164 6.4904-3.2164 8.524s-0.37282 4.6048-6.1151 5.5741c-2.3065 0.38934-6.9696 0.25306-8.4275 0.20538-1.8667-0.06106-9.6356-8.8882-7.9722-11.4 2.0455-3.0442 10.584 3.0639 9.9341-4.6449 1.3158-1.0261 4.9217-0.71837 5.3335-1.8263 1.4991-4.0326 3.1441 0.5597 3.1441 0.5597z" fill="#f9f9f9" stroke-width=".1"/><path d="m1.0153 25.199 19.952 0.4128 8.1801-14.168h-21.252l-7.8953 13.675z" fill="#373d4f" stroke-width=".1"/><path d="m39.301 1.2675e-4s4.3699-0.10047 5.4991 5.3564c0.29137 1.4081 1.5024 7.082 1.5024 9.1155s-2.5148 13.601-8.2572 14.571c-2.3065 0.38934-6.9696 0.25306-8.4275 0.20538-1.8667-0.06106-3.4392 0.40856-4.7497-0.71566 13.545-15.485 4.0408-12.896 3.3913-20.605 1.3158-1.0261 0.16329-2.8002 0.57515-3.9081 1.4991-4.0326 10.466-4.0189 10.466-4.0189z" fill="#f9f9f9" stroke-width=".1"/><path d="m20.972 25.818 8.1542-14.123v0.39104l-8.0979 14.026z" fill="#272727"/><rect x="37.939" y="12.497" width="1.1102" height=".70862"/><path d="m24.979 19.269-0.01847 4.9468h2.5181v-9.2945z" fill="#373d4f"/><path d="m38.062 9.5835s0.03781-0.10912 0.08219 0.0684c0.04438 0.17751-1.2075 1.1316-1.2075 1.1316s-1.2922 0.81541-1.575 0.89139c-0.33156 0.0891-1.2364 0.33061-1.0451 0.22317 0.07839-0.044 0.87856-0.2939 0.87856-0.2939z" fill="#161616" opacity=".37377"/><path d="m27.481 24.231 0.66872-0.96342 0.0264-9.5625-0.71211 1.2057z" fill="#2b303e"/><path d="m20.957 25.581 8.1542-14.123v0.39104l-8.0979 14.026z" fill="#272727"/><g transform="translate(-46.684 -123.21)"><path d="m50.586 137.4 8.2725-8.2725 4.8119 8.3344-7.4146 7.4146z" fill="#c4bdbd" stroke-width=".26458"/><path d="m79.567 134.75-4.2602 2.8357s1.3186 2.1206 1.5722 2.2932c0.25359 0.17261 1.7497 0.69044 1.7497 0.69044l1.0397-0.98633-0.32966 2.7617s-0.10144 2.9837 0.02536 3.2056c0.12679 0.22193 0.86219 1.085 1.6229 1.1096 0.76076 0.0247 4.4378 0.24659 4.7421 0.27125 0.3043 0.0247 1.9273 0.14794 2.1808-0.0494 0.10216-0.0795 0.41776 0.38456 0.58529 0.21578 0.24834-0.25018 0.34805-1.1586 0.37833-1.3501 0.05071-0.32055 0.68468-7.6195 0.45646-8.4579-0.22823-0.83839-1.5722-3.3042-1.7497-3.4029-0.17751-0.0986-1.4708-0.5918-1.4708-0.5918l-0.15215 0.46851-5e-6 0.36988-0.35502 0.96169-0.96363 0.8877-1.1158 0.34521s-1.1919-0.96168-1.2172-1.3809c-0.02536-0.41921-0.15217 0.0495-0.15217 0.0495l-1.2679 0.39453-0.1775-2e-5z" fill="#082024"/><path d="m56.263 144.81 13.212-0.0962 4.7437-8.085-11.096 0.77613z" fill="#c4bdbd" stroke-width=".26976"/><path d="m70.309 142.39 1.5527-2.775h-3.4027l-1.5882 2.7508z" fill="#282323"/><path d="m84.865 144.43c1.1288-1.9846 2.3078-4.17 3.4925-6.378" fill="#666" opacity=".58716" stroke="#000" stroke-width=".1"/><path d="m84.612 143.5s0.39939 0.29585 0.44377 0.47336-0.17751 0.51773-0.17751 0.51773-0.35502 0.17751-0.56211-0.0296c-0.20709-0.2071-0.31064-0.31064-0.31064-0.31064z" fill="#161616"/><path d="m76.895 139.76s0.34684 0.20515 0.50755 0.2948c0.39827 0.22213 1.2309 0.51489 1.2309 0.51489s-0.14902 0.0112-0.32433-2e-3c-0.3501-0.0267-0.88095-0.10822-1.0707-0.26819-0.0072-6e-3 -0.0117-0.0162-0.01915-0.022-0.23488-0.18636-0.40584-0.46706-0.40584-0.46706z" fill="#161616" stroke-width="1.0473"/><g transform="rotate(1.6081 75.487 142.97)" fill="#ffb380"><path d="m66.73 141.17s-0.09886 0.059-0.12702 0.2415c-0.02816 0.18251-0.07923 0.29131 0.0056 0.31746 0.0849 0.0261 0.48827-2e-3 0.48827-2e-3l0.17482-0.19169s-0.03192 0.3655 0.02833 0.40337c0.06024 0.0378 0.3468 0.34887 0.43245 0.33844 0.08566-0.0105 0.57075-0.4521 0.57075-0.4521s0.20548-0.49622 0.37704-0.52931c0.17156-0.0331 0.35306 0.0438 0.35306 0.0438s1.2668 0.72176 1.5461 0.78852c0.27936 0.0668 0.94763 0.21475 1.0206 0.22846 0.07296 0.0137 0.36292-1.03 0.35172-1.0791-0.0112-0.0491-1.4923-1.0315-1.4923-1.0315s-2.278-0.21767-2.4876-0.11211c-0.20966 0.10555-1.2419 1.0364-1.2419 1.0364z"/><path d="m81.291 141.7s-0.38693 0.6938-0.40027 0.7872c-0.01334 0.0934-9.353-1.3342-9.353-1.3342l-0.18679 1.0941s9.6331 4.5497 10.874 3.469c1.2408-1.0807 2.4016-2.2548 2.4016-2.2548s-0.56038-1.2008-1.2008-1.4143c-0.64043-0.21348-1.6011-0.4403-1.7212-0.42695-0.12008 0.0133-0.41361 0.08-0.41361 0.08z"/></g><path d="m79.587 134.74 0.20029-0.10675s0.79063 0.44838 0.87496 0.46974c0.08433 0.0214 0.34788-0.0428 0.34788-0.0428s0.85387-0.24556 0.89604-0.27758c0.04217-0.032 0.26354-0.13879 0.26354-0.13879s1.012 1.4092 1.2018 1.4412c0.18975 0.032 1.1701-0.32027 1.1701-0.32027s0.67467-0.65125 0.74846-0.74732c0.0738-0.0961 0.45329-0.57652 0.47438-0.73664 0.02109-0.16015 0.10542-0.41636 0.09487-0.46975-0.01054-0.0534-0.17921-0.33095-0.17921-0.33095l0.35842-0.17082 0.05272-0.0214 0.30571 1.5694-0.9593 1.2277-2.2243 0.81138-1.0331-0.29893-0.27408-0.88611-1.2755-0.0106-0.8855-0.3523z" fill="#082024"/><path d="m56.311 144.76 7.338-7.3917" fill="#c4bdbd" stroke="#676767" stroke-width=".1"/><circle cx="55.052" cy="133.34" r=".12788" fill="#282323"/><path d="m58.635 144.61 0.79393-9e-3 0.31483-0.31483h-0.83499z" fill="#282323"/><path d="m57.562 144.61 0.79393-9e-3 0.31483-0.31483h-0.83499z" fill="#282323"/><path d="m59.699 144.61 0.79393-9e-3 0.31483-0.31483h-0.83499z" fill="#282323"/><path d="m60.673 144.62 0.79393-9e-3 0.31483-0.31483h-0.83499z" fill="#282323"/><path d="m61.784 144.63 0.79393-9e-3 0.31483-0.31483h-0.83499z" fill="#282323"/><path d="m59.064 144.15 0.79393-9e-3 0.31483-0.31483h-0.83499z" fill="#282323"/><path d="m57.991 144.14 0.79393-9e-3 0.31483-0.31483h-0.83499z" fill="#282323"/><path d="m60.128 144.14 0.79393-9e-3 0.31483-0.31483h-0.83499z" fill="#282323"/><path d="m61.102 144.16 0.79393-9e-3 0.31483-0.31483h-0.83499z" fill="#282323"/><path d="m62.214 144.16 0.79393-9e-3 0.31483-0.31483h-0.83499z" fill="#282323"/><path d="m59.557 143.67 0.79393-9e-3 0.31483-0.31483h-0.83499z" fill="#282323"/><path d="m58.484 143.67 0.79393-9e-3 0.31483-0.31483h-0.83499z" fill="#282323"/><path d="m60.621 143.67 0.79393-9e-3 0.31483-0.31483h-0.83499z" fill="#282323"/><path d="m61.595 143.68 0.79393-9e-3 0.31483-0.31483h-0.83499z" fill="#282323"/><path d="m62.707 143.69 0.79393-9e-3 0.31483-0.31483h-0.83499z" fill="#282323"/><path d="m59.961 143.23 0.79393-9e-3 0.31483-0.31483h-0.83499z" fill="#282323"/><path d="m58.888 143.22 0.79393-9e-3 0.31483-0.31483h-0.83499z" fill="#282323"/><path d="m61.025 143.22 0.79393-9e-3 0.31483-0.31483h-0.83499z" fill="#282323"/><path d="m61.999 143.24 0.79393-9e-3 0.31483-0.31483h-0.83499z" fill="#282323"/><path d="m63.11 143.24 0.79393-9e-3 0.31483-0.31483h-0.83499z" fill="#282323"/><path d="m60.361 142.8 0.79393-9e-3 0.31483-0.31483h-0.83499z" fill="#282323"/><path d="m59.288 142.8 0.79393-9e-3 0.31483-0.31483h-0.83499z" fill="#282323"/><path d="m61.425 142.8 0.79393-9e-3 0.31483-0.31483h-0.83499z" fill="#282323"/><path d="m62.399 142.81 0.79393-9e-3 0.31483-0.31483h-0.83499z" fill="#282323"/><path d="m63.51 142.82 0.79393-9e-3 0.31483-0.31483h-0.83499z" fill="#282323"/><path d="m60.735 142.35 0.79393-9e-3 0.31483-0.31483h-0.83499z" fill="#282323"/><path d="m59.662 142.34 0.79393-9e-3 0.31483-0.31483h-0.83499z" fill="#282323"/><path d="m61.799 142.34 0.79393-9e-3 0.31483-0.31483h-0.83499z" fill="#282323"/><path d="m62.773 142.36 0.79393-9e-3 0.31483-0.31483h-0.83499z" fill="#282323"/><path d="m63.884 142.36 0.79393-9e-3 0.31483-0.31483h-0.83499z" fill="#282323"/><path d="m61.135 141.89 0.79393-9e-3 0.31483-0.31483h-0.83499z" fill="#282323"/><path d="m60.062 141.89 0.79393-9e-3 0.31483-0.31483h-0.83499z" fill="#282323"/><path d="m62.199 141.89 0.79393-9e-3 0.31483-0.31483h-0.83499z" fill="#282323"/><path d="m63.173 141.9 0.79393-9e-3 0.31483-0.31483h-0.83499z" fill="#282323"/><path d="m64.284 141.91 0.79393-9e-3 0.31483-0.31483h-0.83499z" fill="#282323"/><path d="m61.589 141.44 0.79393-9e-3 0.31483-0.31483h-0.83499z" fill="#282323"/><path d="m60.516 141.44 0.79393-9e-3 0.31483-0.31483h-0.83499z" fill="#282323"/><path d="m62.652 141.44 0.79393-9e-3 0.31483-0.31483h-0.83499z" fill="#282323"/><path d="m63.626 141.45 0.79393-9e-3 0.31483-0.31483h-0.83499z" fill="#282323"/><path d="m64.738 141.46 0.79393-9e-3 0.31483-0.31483h-0.83499z" fill="#282323"/><path d="m62.042 140.98 0.79393-9e-3 0.31483-0.31483h-0.83499z" fill="#282323"/><path d="m60.969 140.98 0.79393-9e-3 0.31483-0.31483h-0.83499z" fill="#282323"/><path d="m63.106 140.98 0.79393-9e-3 0.31483-0.31483h-0.83499z" fill="#282323"/><path d="m64.08 141 0.79393-9e-3 0.31483-0.31483h-0.83499z" fill="#282323"/><path d="m65.192 141 0.79393-9e-3 0.31483-0.31483h-0.83499z" fill="#282323"/><path d="m62.496 140.53 0.79393-9e-3 0.31483-0.31483h-0.83499z" fill="#282323"/><path d="m61.423 140.53 0.79393-9e-3 0.31483-0.31483h-0.83499z" fill="#282323"/><path d="m63.56 140.53 0.79393-9e-3 0.31483-0.31483h-0.83499z" fill="#282323"/><path d="m64.534 140.54 0.79393-9e-3 0.31483-0.31483h-0.83499z" fill="#282323"/><path d="m65.645 140.55 0.79393-9e-3 0.31483-0.31483h-0.83499z" fill="#282323"/><path d="m63.03 140.05 0.79393-9e-3 0.31483-0.31483h-0.83499z" fill="#282323"/><path d="m61.957 140.05 0.79393-9e-3 0.31483-0.31483h-0.83499z" fill="#282323"/><path d="m64.093 140.05 0.79393-9e-3 0.31483-0.31483h-0.83499z" fill="#282323"/><path d="m65.067 140.06 0.79393-9e-3 0.31483-0.31483h-0.83499z" fill="#282323"/><path d="m66.179 140.07 0.79393-9e-3 0.31483-0.31483h-0.83499z" fill="#282323"/><path d="m63.457 139.6 0.79393-9e-3 0.31483-0.31483h-0.83499z" fill="#282323"/><path d="m62.383 139.59 0.79393-9e-3 0.31483-0.31483h-0.83499z" fill="#282323"/><path d="m64.52 139.59 0.79393-9e-3 0.31483-0.31483h-0.83499z" fill="#282323"/><path d="m65.494 139.61 0.79393-9e-3 0.31483-0.31483h-0.83499z" fill="#282323"/><path d="m66.606 139.62 0.79393-9e-3 0.31483-0.31483h-0.83499z" fill="#282323"/><path d="m63.83 139.17 0.79393-9e-3 0.31483-0.31483h-0.83499z" fill="#282323"/><path d="m62.757 139.17 0.79393-9e-3 0.31483-0.31483h-0.83499z" fill="#282323"/><path d="m64.894 139.17 0.79393-9e-3 0.31483-0.31483h-0.83499z" fill="#282323"/><path d="m65.868 139.18 0.79393-9e-3 0.31483-0.31483h-0.83499z" fill="#282323"/><path d="m66.979 139.19 0.79393-9e-3 0.31483-0.31483h-0.83499z" fill="#282323"/><path d="m64.204 138.72 0.79393-9e-3 0.31483-0.31483h-0.83499z" fill="#282323"/><path d="m63.131 138.71 0.79393-9e-3 0.31483-0.31483h-0.83499z" fill="#282323"/><path d="m65.268 138.71 0.79393-9e-3 0.31483-0.31483h-0.83499z" fill="#282323"/><path d="m66.242 138.73 0.79393-9e-3 0.31483-0.31483h-0.83499z" fill="#282323"/><path d="m67.353 138.73 0.79393-9e-3 0.31483-0.31483h-0.83499z" fill="#282323"/><path d="m64.684 138.29 0.79393-9e-3 0.31483-0.31483h-0.83499z" fill="#282323"/><path d="m63.611 138.29 0.79393-9e-3 0.31483-0.31483h-0.83499z" fill="#282323"/><path d="m65.748 138.29 0.79393-9e-3 0.31483-0.31483h-0.83499z" fill="#282323"/><path d="m66.722 138.3 0.79393-9e-3 0.31483-0.31483h-0.83499z" fill="#282323"/><path d="m67.833 138.31 0.79393-9e-3 0.31483-0.31483h-0.83499z" fill="#282323"/><path d="m65.004 137.81 0.79393-9e-3 0.31484-0.31483h-0.83499z" fill="#282323"/><path d="m63.931 137.81 0.79393-9e-3 0.31483-0.31483h-0.83499z" fill="#282323"/><path d="m66.068 137.81 0.79393-9e-3 0.31483-0.31483h-0.83499z" fill="#282323"/><path d="m67.042 137.82 0.79393-9e-3 0.31483-0.31483h-0.83499z" fill="#282323"/><path d="m68.153 137.83 0.79393-9e-3 0.31483-0.31483h-0.83499z" fill="#282323"/><g transform="rotate(-3.5091 72.811 135.86)"><path d="m74.012 138.37c-0.22384-0.0361-1.793-0.62997-1.793-0.62997l-2.2696-0.53942s-1.2884-0.24056-1.8231-0.45726c-0.53475-0.21657-2.4402-0.49677-2.4402-0.49677s-0.42754 0.0236-0.6131 0.10598l-0.95425 1.186s-0.02961 0.19534 0.14943 0.19593c0.17901 6.5e-4 0.77863-0.45809 0.77863-0.45809s0.23488-0.40089 0.48038-0.3728c0.2455 0.0281 0.47249 0.0439 0.50838 0.0781 0.03592 0.0339-0.53593 0.33662-0.60749 0.5274-0.07157 0.19076-0.40636 0.76927-0.42433 0.92639-0.01798 0.15712-0.11396 0.47442-0.05309 0.55104 0.06087 0.0767 0.18741 0.10107 0.28674 0.10241 0.09933 7e-4 0.05051-0.0938 0.15492-0.31056 0.1044-0.21688 0.11958-0.52354 0.25315-0.64754 0.13357-0.12399 0.3645-0.31644 0.52107-0.46763 0.15658-0.15122 0.48429-0.23311 0.59231-0.22075 0.10801 0.0123 0.24101 0.0672 0.22445 0.12511-0.01657 0.0577-0.34232 0.20952-0.49636 0.2516-0.15404 0.042-0.57575 0.16298-0.57575 0.16298s-0.44052 0.19832-0.3067 0.33301c0.13382 0.13469 0.62143 0.22033 0.73395 0.1934 0.11251-0.0269 0.79066-0.1284 0.79066-0.1284s0.44304 0.0406 0.74098 0.0451c0.29799 4e-3 0.79794-0.0185 0.84623-0.0921 0.04829-0.0741 0.16865-0.16972 0.16865-0.16972s0.35971-0.18768 0.48231 0.0451c0.12259 0.23289 3.4173 2.3906 4.5825 2.5538 1.1652 0.16315 3.8332-0.63589 3.8332-0.63589s-1.3016-2.1883-1.2519-2.3617c0.04968-0.17337-2.5189 0.6054-2.5189 0.6054z" fill="#ffb380" stroke-width=".26458"/><g transform="translate(49.973 125.18)" fill="#878787" fill-opacity=".9322"><g transform="matrix(-.072122 -.14364 .16644 -.083571 21.282 19.506)"><path d="m40.391 8.6908 0.63809 0.54876s0.1659-0.268 0.1659-0.33181c0-0.063809-0.31904-0.34457-0.38285-0.37009-0.06381-0.025524-0.42114 0.15314-0.42114 0.15314z"/><path d="m41.169 9.3971-0.63514-0.55216s-0.16733 0.26711-0.16767 0.33092c-3.07e-4 0.063809 0.3172 0.34627 0.38086 0.37214 0.06367 0.025867 0.42196-0.15088 0.42196-0.15088z"/><path d="m41.022 9.2192 0.63809 0.54876s0.1659-0.268 0.1659-0.33181c0-0.063809-0.31904-0.34457-0.38285-0.37009-0.06381-0.025524-0.42114 0.15314-0.42114 0.15314z"/><path d="m41.8 9.9256-0.63514-0.55216s-0.16733 0.26711-0.16767 0.33092c-3.07e-4 0.063809 0.3172 0.34627 0.38086 0.37213 0.06367 0.02587 0.42196-0.15088 0.42196-0.15088z"/></g><g transform="matrix(-.072122 -.14364 .16644 -.083571 21.371 19.232)"><path d="m40.391 8.6908 0.63809 0.54876s0.1659-0.268 0.1659-0.33181c0-0.063809-0.31904-0.34457-0.38285-0.37009-0.06381-0.025524-0.42114 0.15314-0.42114 0.15314z"/><path d="m41.169 9.3971-0.63514-0.55216s-0.16733 0.26711-0.16767 0.33092c-3.07e-4 0.063809 0.3172 0.34627 0.38086 0.37214 0.06367 0.025867 0.42196-0.15088 0.42196-0.15088z"/><path d="m41.022 9.2192 0.63809 0.54876s0.1659-0.268 0.1659-0.33181c0-0.063809-0.31904-0.34457-0.38285-0.37009-0.06381-0.025524-0.42114 0.15314-0.42114 0.15314z"/><path d="m41.8 9.9256-0.63514-0.55216s-0.16733 0.26711-0.16767 0.33092c-3.07e-4 0.063809 0.3172 0.34627 0.38086 0.37213 0.06367 0.02587 0.42196-0.15088 0.42196-0.15088z"/></g><g transform="matrix(-.10873 -.11836 .13716 -.12599 23.195 18.303)"><path d="m40.391 8.6908 0.63809 0.54876s0.1659-0.268 0.1659-0.33181c0-0.063809-0.31904-0.34457-0.38285-0.37009-0.06381-0.025524-0.42114 0.15314-0.42114 0.15314z"/><path d="m41.169 9.3971-0.63514-0.55216s-0.16733 0.26711-0.16767 0.33092c-3.07e-4 0.063809 0.3172 0.34627 0.38086 0.37214 0.06367 0.025867 0.42196-0.15088 0.42196-0.15088z"/><path d="m41.022 9.2192 0.63809 0.54876s0.1659-0.268 0.1659-0.33181c0-0.063809-0.31904-0.34457-0.38285-0.37009-0.06381-0.025524-0.42114 0.15314-0.42114 0.15314z"/><path d="m41.8 9.9256-0.63514-0.55216s-0.16733 0.26711-0.16767 0.33092c-3.07e-4 0.063809 0.3172 0.34627 0.38086 0.37213 0.06367 0.02587 0.42196-0.15088 0.42196-0.15088z"/></g><g transform="matrix(-.098896 -.049998 .057935 -.1146 23.501 15.155)"><path d="m40.391 8.6908 0.63809 0.54876s0.1659-0.268 0.1659-0.33181c0-0.063809-0.31904-0.34457-0.38285-0.37009-0.06381-0.025524-0.42114 0.15314-0.42114 0.15314z"/><path d="m41.169 9.3971-0.63514-0.55216s-0.16733 0.26711-0.16767 0.33092c-3.07e-4 0.063809 0.3172 0.34627 0.38086 0.37214 0.06367 0.025867 0.42196-0.15088 0.42196-0.15088z"/></g><g transform="matrix(.025374 -.17259 .19999 .029402 16.792 19.882)"><path d="m40.391 8.6908 0.63809 0.54876s0.1659-0.268 0.1659-0.33181c0-0.063809-0.31904-0.34457-0.38285-0.37009-0.06381-0.025524-0.42114 0.15314-0.42114 0.15314z"/><path d="m41.169 9.3971-0.63514-0.55216s-0.16733 0.26711-0.16767 0.33092c-3.07e-4 0.063809 0.3172 0.34627 0.38086 0.37214 0.06367 0.025867 0.42196-0.15088 0.42196-0.15088z"/><path d="m41.022 9.2192 0.63809 0.54876s0.1659-0.268 0.1659-0.33181c0-0.063809-0.31904-0.34457-0.38285-0.37009-0.06381-0.025524-0.42114 0.15314-0.42114 0.15314z"/><path d="m41.8 9.9256-0.63514-0.55216s-0.16733 0.26711-0.16767 0.33092c-3.07e-4 0.063809 0.3172 0.34627 0.38086 0.37213 0.06367 0.02587 0.42196-0.15088 0.42196-0.15088z"/></g></g></g><path transform="rotate(1.0342 80.698 125.62)" d="m75.527 137.68s1.5359 2.1499 1.62 2.1693c0.0841 0.0194 1.0663 0.49374 1.3506 0.58283 0.28428 0.0891 0.29947 0.119 0.29947 0.119l2.2082-2.1704-2.5487-2.7335z" fill="#082024"/><path d="m82.224 134.4 0.82776 1.4026" fill="#f00" opacity=".35738" stroke-width=".26458"/><path d="m82.201 134.37 2.6442-2.1154" fill="#f00" opacity=".35738" stroke-width=".26458"/><path d="m82.109 134.53s2.5063-1.8854 2.6902-2.1154c0.18395-0.22993 0.59783 0.55184 0.59783 0.55184s0.59783 0.6898 0.48286 1.0347-0.27592 0.75878-0.41388 0.87375c-0.13796 0.11496-0.66913 0.71442-0.89674 0.87374-0.22993 0.16096-0.82776 0.32191-1.1037 0.3449-0.27592 0.023-1.3566-1.5635-1.3566-1.5635z" fill="#ffb380" stroke-width=".26458"/><path d="m77.638 129.22s0.86869 4.5885 2.0184 5.3243c1.1497 0.73578 1.1056 0.5569 1.1056 0.5569s1.0149-0.0639 2.0726-0.89167c1.0577-0.82776 1.8625-1.5406 1.9774-1.7015 0.11497-0.16095 0.43688-0.96572 0.43688-1.2876 0-0.32191-0.32191-0.85076-0.59783-0.89674-0.27592-0.046-0.57483-0.22994-0.75878 0.069-0.18395 0.29891-0.16095 0.80476-0.16095 0.80476s-1.0347-0.64381-1.0577-0.80476c-0.02299-0.16096-0.52885-1.4946-0.52885-1.4946z" fill="#ffb380" stroke-width=".26458"/><path d="m77.805 130.56s0.14459 0.48197-0.17672 1.4941c-0.32131 1.0121-0.7872 0.96392-0.7872 0.96392s-0.38557-0.28917-0.4659-0.59442c-0.08033-0.30524 0.0482-0.49803 0.28918-0.53016 0.24098-0.0321 0.30524-1.0282 0.30524-1.0282s-0.36951-1.0603-0.22492-1.6226c0.14459-0.56229 0.27311-1.3977 0.56229-1.6387 0.28918-0.24098 0.97999-0.72294 1.3334-0.65868 0.35344 0.0643 1.0443 0.72294 1.0603 1.2852 0.01606 0.56229-0.20885 2.1046-0.20885 2.1046s0.38557-3.1167 0.61049-3.1006 0.94786-0.43376 1.5262-0.0161c0.57835 0.4177 1.3977 1.9118 1.4941 2.5544 0.09639 0.64261-0.08033 1.6387 0.09639 1.976s1.1085 0.33737 1.1085 0.33737 0.17672-0.11245 0.27311-0.53015c0.09639-0.41771-0.25704-0.62656-0.25704-0.62656s-0.54622-1.2049-0.57836-1.8636c-0.03213-0.65868-0.7872-2.2974-0.7872-2.2974s-1.5905-1.3013-2.217-0.8354c-0.62655 0.4659-2.1688 0.97999-2.1688 0.97999z" stroke-width=".26458"/><path d="m77.805 130.55s0.95437-1.1847 1.3328-1.1683c0.37846 0.0164 0.6911 0.0823 0.6911 0.0823l0.31264-0.19745s1.2506-0.23037 1.629-0.0823c0.37846 0.14809 0.60882 1.1025 0.60882 1.1025s0.08227 0.39492 0.57591 0.67464c0.49364 0.27974 0.65819 0.23037 0.65819 0.23037l0.09873-0.57591 0.16455-0.14809h0.39491l0.16455 0.0823 0.362 0.19745 0.34555 0.64174-0.181 0.77336-0.13164 0.39492-0.06582 0.23036 0.41137 0.37846 0.21391 0.27973 0.46073 0.0494s0.08227 0.11518 0.181-0.64173 0.55946-1.9087 0.55946-2.1885-0.23036-1.4809-0.23036-1.4809-0.362-0.95437-0.62528-1.448c-0.26327-0.49364-1.2176-1.7442-1.4809-1.81-0.26328-0.0658-1.9416-1.0696-2.4024-0.93791-0.46073 0.13163-2.3366 0.0823-2.5998 0.27973-0.26327 0.19745-1.7277 0.57591-1.7606 0.93791-0.03291 0.362-0.52655 1.267-0.543 1.5796-0.01646 0.31264 0.01646 1.4809 0.08227 1.6455 0.06582 0.16455 0.77337 1.1189 0.77337 1.1189z" stroke-width=".26458"/><ellipse transform="rotate(-7.626)" cx="61.17" cy="140.53" rx=".29844" ry=".52906" fill="#008000" stroke-width=".26458"/><ellipse transform="rotate(-7.626,8.4295e-6,3.0736e-6)" cx="62.965" cy="140.62" rx=".29844" ry=".52906" fill="#008000" stroke-width=".26458"/><path d="m81.22 128.22c0.24625 0.0127 0.46167 0.17302 0.69124 0.23041 0.05588 0.014 0.13207-0.0407 0.17281 0 0.01357 0.0136-0.01357 0.044 0 0.0576s0.04043-9e-3 0.0576 0c0.04857 0.0243 0.06663 0.0909 0.1152 0.11521 0.07813 0.0391 0.17281-0.0759 0.17281 0.0576" stroke-width=".26458"/><path d="m79.995 131.6s0 0.48493-0.08083 0.80823c-0.08082 0.32329-0.22226 0.50514-0.16165 0.60617 0.06062 0.10103 0.66679 0.0606 0.66679 0.0606h0.06062" fill="none" stroke="#000" stroke-opacity=".84249" stroke-width=".065"/><path d="m51.218 137.43 4.9774 6.3908 6.7288-6.483-4.1479-7.2818z" fill="#8e8b75" opacity=".8623"/><rect transform="rotate(-42.799)" x="-53.701" y="142.79" width="4.7725" height=".62019" rx="0" ry=".080561" fill="#98a1a5" stroke-opacity=".84249" stroke-width=".065"/><rect transform="rotate(-32.193)" x="-20.772" y="144.37" width=".84386" height=".60827" rx="0" ry="0" fill="#0095bd" stroke-opacity=".84249" stroke-width=".065"/><rect transform="rotate(-32.193)" x="-20.802" y="145.26" width=".84386" height=".60827" rx="0" ry="0" fill="#0095bd" stroke-opacity=".84249" stroke-width=".065"/><rect transform="matrix(.84725 -.5312 .62515 .78051 0 0)" x="-37.236" y="145.23" width=".2274" height=".16112" rx="0" ry="0" fill="#0095bd" stroke-opacity=".84249" stroke-width=".017366"/><rect transform="rotate(-32.193)" x="-20.766" y="143.45" width=".84386" height=".60827" rx="0" ry="0" fill="#0095bd" stroke-opacity=".84249" stroke-width=".065"/><rect transform="matrix(.84725 -.5312 .62515 .78051 0 0)" x="-37.125" y="144.3" width=".2274" height=".16112" rx="0" ry="0" fill="#0095bd" stroke-opacity=".84249" stroke-width=".017366"/><rect transform="rotate(-32.193)" x="-20.797" y="142.56" width=".84386" height=".60827" rx="0" ry="0" fill="#0095bd" stroke-opacity=".84249" stroke-width=".065"/><rect transform="matrix(.84725 -.5312 .62515 .78051 0 0)" x="-37.054" y="143.4" width=".2274" height=".16112" rx="0" ry="0" fill="#0095bd" stroke-opacity=".84249" stroke-width=".017366"/><rect transform="rotate(-40.747)" x="-45.986" y="139.9" width=".84386" height=".60827" rx="0" ry="0" fill="#0095bd" stroke-opacity=".84249" stroke-width=".065"/><rect transform="matrix(.79365 -.60837 .69564 .71839 0 0)" x="-54.402" y="143.12" width=".2274" height=".16112" rx="0" ry="0" fill="#0095bd" stroke-opacity=".84249" stroke-width=".017366"/><rect transform="rotate(-40.601)" x="-48.063" y="144.83" width=".45417" height=".45417" ry=".080561" fill="#f2f2f2" stroke-opacity=".84249" stroke-width=".065"/><rect transform="rotate(-40.601)" x="-47.53" y="144.81" width=".45417" height=".45417" ry=".080561" fill="#f2f2f2" stroke-opacity=".84249" stroke-width=".065"/><rect transform="rotate(-40.601)" x="-47.012" y="144.8" width=".45417" height=".45417" ry=".080561" fill="#f2f2f2" stroke-opacity=".84249" stroke-width=".065"/><rect transform="rotate(-40.601)" x="-46.488" y="144.78" width=".45417" height=".45417" ry=".080561" fill="#f2f2f2" stroke-opacity=".84249" stroke-width=".065"/><rect transform="rotate(-40.601)" x="-45.933" y="144.76" width=".45417" height=".45417" ry=".080561" fill="#f2f2f2" stroke-opacity=".84249" stroke-width=".065"/><rect transform="rotate(-40.601)" x="-45.41" y="144.74" width=".45417" height=".45417" ry=".080561" fill="#f2f2f2" stroke-opacity=".84249" stroke-width=".065"/><rect transform="rotate(-40.601)" x="-44.864" y="144.72" width=".45417" height=".45417" ry=".080561" fill="#f2f2f2" stroke-opacity=".84249" stroke-width=".065"/><path d="m60.669 138.62 0.29197 0.29197-0.0065-6e-3" fill="#666" stroke="#666" stroke-width=".05"/><ellipse transform="matrix(.82699 -.56221 .68379 .72968 0 0)" cx="-50.717" cy="150.64" rx=".097996" ry=".066218" fill="#666" stroke="#666" stroke-width=".036762"/><path d="m61 138.52 0.21917 0.14257 0.07209-0.0643-0.1285-0.23298z" fill="#666" stroke-width="0"/><path d="m78.57 140.52 1.708-1.579 0.1266-0.11703" fill="#161616" opacity=".59633" stroke="#000" stroke-width=".10616"/><path d="m81.281 141.69 1.2364-1.9985" fill="#666" opacity=".72783" stroke="#000" stroke-width=".1"/><path d="m79.534 133.66s0.1359 0.27769 1.2231 0.0724c1.0872-0.20526 0.6795 0.14488 0.6795 0.14488s-0.44167 0.36222-1.0759 0.41051c-0.6342 0.0483-0.82672-0.62783-0.82672-0.62783z" fill="#fff" stroke="#c32b0d" stroke-width=".013"/><path d="m80.625 127.77s1.7719-0.16677 2.3556 0.79216c0.5837 0.95893 0.18762 1.4176 0.39608 1.897 0.20846 0.47946 0.08339 0.60454 0.56285 0.87554 0.47946 0.271 0.70877 0 0.70877 0" fill="none" stroke="#0e0e0e" stroke-width=".055"/><path d="m80.418 127.24s1.6126-0.75294 2.4848-0.0462c0.87218 0.70679 0.6534 1.2719 1.011 1.6533s0.28184 0.54129 0.8245 0.63526c0.54268 0.094 0.66749-0.23835 0.66749-0.23835" fill="none" stroke="#0f0f0f" stroke-width=".055"/><path d="m82.071 125.89s0.91516-0.38842 1.4101-0.0238c0.49495 0.36462 0.3708 0.65614 0.57371 0.85291 0.20291 0.19677 0.15994 0.27924 0.4679 0.32772 0.30796 0.0485 0.37879-0.12296 0.37879-0.12296" fill="none" stroke="#0f0f0f" stroke-width=".029759"/><path d="m84.526 128.18s0.3672 0.28852 0.81309 0.39343c0.44589 0.10492 0.62949 0.52458 0.57704 0.78687-0.05246 0.26229-0.31475 0.41966-0.1836 0.91801 0.13115 0.49835 0.70818 0.60327 0.70818 0.60327v-0.0262" fill="none" stroke="#0f0f0f" stroke-width=".055"/><path d="m79.481 127.96s-0.13211-0.64168-0.58506-0.66056c-0.45295-0.0189-0.64168 0.0566-0.71717 0.20761-0.07549 0.15098 0.09436 0.6228-0.22648 0.83041-0.32084 0.2076-0.13211 0.49069-0.66055 0.60393-0.52844 0.11324-0.58506 0.0566-0.58506 0.0566" fill="none" stroke="#0f0f0f" stroke-width=".055"/><path d="m79.197 128.68s-0.67943-0.16986-1.0758 0.0566c-0.39633 0.22648-0.60394 0.45295-0.6983 0.81154-0.09436 0.35858 0.2831 1.0003 0.24535 1.2645-0.03775 0.26422 0 0.66055-0.22648 0.81153-0.22648 0.15099-0.4907 0.15099-0.4907 0.15099l0.01887 0.0189" fill="none" stroke="#0f0f0f" stroke-width=".055"/><path d="m79.858 127.06s-0.58506-0.73605-1.038-0.41521-0.52844-0.16986-0.6983-0.0189c-0.16986 0.15098-0.73605 0.39633-0.81154 1.0191-0.07549 0.62281-0.22648 0.64168-0.22648 0.64168h0.01886" fill="none" stroke="#0f0f0f" stroke-width=".055"/><path d="m80.33 126.58s-0.4907-0.50957-0.77379-0.4907c-0.28309 0.0189-0.73604 0.0189-0.98139 0.0189-0.24535 0-0.79267 0.0944-0.92478 0.2076-0.13211 0.11324-0.09437 0.11324-0.09437 0.11324" fill="none" stroke="#0f0f0f" stroke-width=".055"/><path d="m81.292 125.9s-0.45295-0.50957-0.92478-0.45296c-0.47182 0.0566-0.60394 0.2831-0.98139 0.32084-0.37746 0.0378-0.6983-0.11323-0.6983-0.11323" fill="none" stroke="#0f0f0f" stroke-width=".055"/><path d="m80.105 129.22s-0.39184-0.69661 0.37008-0.71838c0.76192-0.0218 0.95784 0.283 1.2408 0.37007 0.283 0.0871 0.15238 0.34831 0.67484 0.65308 0.52246 0.30476 0.80546 0.30476 0.80546 0.30476" fill="none" stroke="#0f0f0f" stroke-width=".055"/></g><g transform="matrix(.14996 .29858 -.34598 .17377 35.947 -3.3152)" fill="#878787" fill-opacity=".9322"><path d="m40.391 8.6908 0.63809 0.54876s0.1659-0.268 0.1659-0.33181c0-0.063809-0.31904-0.34457-0.38285-0.37009-0.06381-0.025524-0.42114 0.15314-0.42114 0.15314z"/><path d="m41.169 9.3971-0.63514-0.55216s-0.16733 0.26711-0.16767 0.33092c-3.07e-4 0.063809 0.3172 0.34627 0.38086 0.37214 0.06367 0.025867 0.42196-0.15088 0.42196-0.15088z"/><path d="m41.022 9.2192 0.63809 0.54876s0.1659-0.268 0.1659-0.33181c0-0.063809-0.31904-0.34457-0.38285-0.37009-0.06381-0.025524-0.42114 0.15314-0.42114 0.15314z"/><path d="m41.8 9.9256-0.63514-0.55216s-0.16733 0.26711-0.16767 0.33092c-3.07e-4 0.063809 0.3172 0.34627 0.38086 0.37213 0.06367 0.02587 0.42196-0.15088 0.42196-0.15088z"/></g><g transform="matrix(.19896 .26843 -.31105 .23054 33.497 -2.0343)" fill="#878787" fill-opacity=".9322"><path d="m40.391 8.6908 0.63809 0.54876s0.1659-0.268 0.1659-0.33181c0-0.063809-0.31904-0.34457-0.38285-0.37009-0.06381-0.025524-0.42114 0.15314-0.42114 0.15314z"/><path d="m41.169 9.3971-0.63514-0.55216s-0.16733 0.26711-0.16767 0.33092c-3.07e-4 0.063809 0.3172 0.34627 0.38086 0.37214 0.06367 0.025867 0.42196-0.15088 0.42196-0.15088z"/><path d="m41.022 9.2192 0.63809 0.54876s0.1659-0.268 0.1659-0.33181c0-0.063809-0.31904-0.34457-0.38285-0.37009-0.06381-0.025524-0.42114 0.15314-0.42114 0.15314z"/><path d="m41.8 9.9256-0.63514-0.55216s-0.16733 0.26711-0.16767 0.33092c-3.07e-4 0.063809 0.3172 0.34627 0.38086 0.37213 0.06367 0.02587 0.42196-0.15088 0.42196-0.15088z"/></g><g transform="matrix(.065117 .32772 -.37975 .075455 39.456 -2.4686)" fill="#878787" fill-opacity=".9322"><path d="m40.391 8.6908 0.63809 0.54876s0.1659-0.268 0.1659-0.33181c0-0.063809-0.31904-0.34457-0.38285-0.37009-0.06381-0.025524-0.42114 0.15314-0.42114 0.15314z"/><path d="m41.169 9.3971-0.63514-0.55216s-0.16733 0.26711-0.16767 0.33092c-3.07e-4 0.063809 0.3172 0.34627 0.38086 0.37214 0.06367 0.025867 0.42196-0.15088 0.42196-0.15088z"/><path d="m41.022 9.2192 0.63809 0.54876s0.1659-0.268 0.1659-0.33181c0-0.063809-0.31904-0.34457-0.38285-0.37009-0.06381-0.025524-0.42114 0.15314-0.42114 0.15314z"/><path d="m41.8 9.9256-0.63514-0.55216s-0.16733 0.26711-0.16767 0.33092c-3.07e-4 0.063809 0.3172 0.34627 0.38086 0.37213 0.06367 0.02587 0.42196-0.15088 0.42196-0.15088z"/></g><g transform="matrix(.065117 .32772 -.37975 .075455 39.199 -1.9661)" fill="#878787" fill-opacity=".9322"><path d="m40.391 8.6908 0.63809 0.54876s0.1659-0.268 0.1659-0.33181c0-0.063809-0.31904-0.34457-0.38285-0.37009-0.06381-0.025524-0.42114 0.15314-0.42114 0.15314z"/><path d="m41.169 9.3971-0.63514-0.55216s-0.16733 0.26711-0.16767 0.33092c-3.07e-4 0.063809 0.3172 0.34627 0.38086 0.37214 0.06367 0.025867 0.42196-0.15088 0.42196-0.15088z"/><path d="m41.022 9.2192 0.63809 0.54876s0.1659-0.268 0.1659-0.33181c0-0.063809-0.31904-0.34457-0.38285-0.37009-0.06381-0.025524-0.42114 0.15314-0.42114 0.15314z"/><path d="m41.8 9.9256-0.63514-0.55216s-0.16733 0.26711-0.16767 0.33092c-3.07e-4 0.063809 0.3172 0.34627 0.38086 0.37213 0.06367 0.02587 0.42196-0.15088 0.42196-0.15088z"/></g><g transform="matrix(.15025 .29844 -.34582 .1741 35.102 -1.1387)" fill="#878787" fill-opacity=".9322"><path d="m40.391 8.6908 0.63809 0.54876s0.1659-0.268 0.1659-0.33181c0-0.063809-0.31904-0.34457-0.38285-0.37009-0.06381-0.025524-0.42114 0.15314-0.42114 0.15314z"/><path d="m41.169 9.3971-0.63514-0.55216s-0.16733 0.26711-0.16767 0.33092c-3.07e-4 0.063809 0.3172 0.34627 0.38086 0.37214 0.06367 0.025867 0.42196-0.15088 0.42196-0.15088z"/><path d="m41.022 9.2192 0.63809 0.54876s0.1659-0.268 0.1659-0.33181c0-0.063809-0.31904-0.34457-0.38285-0.37009-0.06381-0.025524-0.42114 0.15314-0.42114 0.15314z"/><path d="m41.8 9.9256-0.63514-0.55216s-0.16733 0.26711-0.16767 0.33092c-3.07e-4 0.063809 0.3172 0.34627 0.38086 0.37213 0.06367 0.02587 0.42196-0.15088 0.42196-0.15088z"/></g><g transform="matrix(-.084466 .32327 -.3746 -.097875 44.674 .83164)" fill="#878787" fill-opacity=".9322"><path d="m40.391 8.6908 0.63809 0.54876s0.1659-0.268 0.1659-0.33181c0-0.063809-0.31904-0.34457-0.38285-0.37009-0.06381-0.025524-0.42114 0.15314-0.42114 0.15314z"/><path d="m41.169 9.3971-0.63514-0.55216s-0.16733 0.26711-0.16767 0.33092c-3.07e-4 0.063809 0.3172 0.34627 0.38086 0.37214 0.06367 0.025867 0.42196-0.15088 0.42196-0.15088z"/><path d="m41.022 9.2192 0.63809 0.54876s0.1659-0.268 0.1659-0.33181c0-0.063809-0.31904-0.34457-0.38285-0.37009-0.06381-0.025524-0.42114 0.15314-0.42114 0.15314z"/><path d="m41.8 9.9256-0.63514-0.55216s-0.16733 0.26711-0.16767 0.33092c-3.07e-4 0.063809 0.3172 0.34627 0.38086 0.37213 0.06367 0.02587 0.42196-0.15088 0.42196-0.15088z"/></g><g transform="matrix(-.24055 .2319 -.26872 -.27873 49.548 6.4349)" fill="#878787" fill-opacity=".9322"><path d="m40.391 8.6908 0.63809 0.54876s0.1659-0.268 0.1659-0.33181c0-0.063809-0.31904-0.34457-0.38285-0.37009-0.06381-0.025524-0.42114 0.15314-0.42114 0.15314z"/><path d="m41.169 9.3971-0.63514-0.55216s-0.16733 0.26711-0.16767 0.33092c-3.07e-4 0.063809 0.3172 0.34627 0.38086 0.37214 0.06367 0.025867 0.42196-0.15088 0.42196-0.15088z"/><path d="m41.022 9.2192 0.63809 0.54876s0.1659-0.268 0.1659-0.33181c0-0.063809-0.31904-0.34457-0.38285-0.37009-0.06381-0.025524-0.42114 0.15314-0.42114 0.15314z"/><path d="m41.8 9.9256-0.63514-0.55216s-0.16733 0.26711-0.16767 0.33092c-3.07e-4 0.063809 0.3172 0.34627 0.38086 0.37213 0.06367 0.02587 0.42196-0.15088 0.42196-0.15088z"/></g><g transform="matrix(-.30604 .13409 -.15537 -.35463 50.617 11.071)" fill="#878787" fill-opacity=".9322"><path d="m40.391 8.6908 0.63809 0.54876s0.1659-0.268 0.1659-0.33181c0-0.063809-0.31904-0.34457-0.38285-0.37009-0.06381-0.025524-0.42114 0.15314-0.42114 0.15314z"/><path d="m41.169 9.3971-0.63514-0.55216s-0.16733 0.26711-0.16767 0.33092c-3.07e-4 0.063809 0.3172 0.34627 0.38086 0.37214 0.06367 0.025867 0.42196-0.15088 0.42196-0.15088z"/><path d="m41.022 9.2192 0.63809 0.54876s0.1659-0.268 0.1659-0.33181c0-0.063809-0.31904-0.34457-0.38285-0.37009-0.06381-0.025524-0.42114 0.15314-0.42114 0.15314z"/><path d="m41.8 9.9256-0.63514-0.55216s-0.16733 0.26711-0.16767 0.33092c-3.07e-4 0.063809 0.3172 0.34627 0.38086 0.37213 0.06367 0.02587 0.42196-0.15088 0.42196-0.15088z"/></g><g transform="matrix(-.33358 .0191 -.022132 -.38654 49.983 15.797)" fill="#878787" fill-opacity=".9322"><path d="m40.391 8.6908 0.63809 0.54876s0.1659-0.268 0.1659-0.33181c0-0.063809-0.31904-0.34457-0.38285-0.37009-0.06381-0.025524-0.42114 0.15314-0.42114 0.15314z"/><path d="m41.169 9.3971-0.63514-0.55216s-0.16733 0.26711-0.16767 0.33092c-3.07e-4 0.063809 0.3172 0.34627 0.38086 0.37214 0.06367 0.025867 0.42196-0.15088 0.42196-0.15088z"/><path d="m41.022 9.2192 0.63809 0.54876s0.1659-0.268 0.1659-0.33181c0-0.063809-0.31904-0.34457-0.38285-0.37009-0.06381-0.025524-0.42114 0.15314-0.42114 0.15314z"/><path d="m41.8 9.9256-0.63514-0.55216s-0.16733 0.26711-0.16767 0.33092c-3.07e-4 0.063809 0.3172 0.34627 0.38086 0.37213 0.06367 0.02587 0.42196-0.15088 0.42196-0.15088z"/></g><g transform="matrix(-.32942 -.055887 .06476 -.38172 48.605 18.448)" fill="#878787" fill-opacity=".9322"><path d="m40.391 8.6908 0.63809 0.54876s0.1659-0.268 0.1659-0.33181c0-0.063809-0.31904-0.34457-0.38285-0.37009-0.06381-0.025524-0.42114 0.15314-0.42114 0.15314z"/><path d="m41.169 9.3971-0.63514-0.55216s-0.16733 0.26711-0.16767 0.33092c-3.07e-4 0.063809 0.3172 0.34627 0.38086 0.37214 0.06367 0.025867 0.42196-0.15088 0.42196-0.15088z"/><path d="m41.022 9.2192 0.63809 0.54876s0.1659-0.268 0.1659-0.33181c0-0.063809-0.31904-0.34457-0.38285-0.37009-0.06381-0.025524-0.42114 0.15314-0.42114 0.15314z"/><path d="m41.8 9.9256-0.63514-0.55216s-0.16733 0.26711-0.16767 0.33092c-3.07e-4 0.063809 0.3172 0.34627 0.38086 0.37213 0.06367 0.02587 0.42196-0.15088 0.42196-0.15088z"/></g><g transform="matrix(-.19668 -.27011 .31299 -.2279 40.654 25.272)" fill="#878787" fill-opacity=".9322"><path d="m40.391 8.6908 0.63809 0.54876s0.1659-0.268 0.1659-0.33181c0-0.063809-0.31904-0.34457-0.38285-0.37009-0.06381-0.025524-0.42114 0.15314-0.42114 0.15314z"/><path d="m41.169 9.3971-0.63514-0.55216s-0.16733 0.26711-0.16767 0.33092c-3.07e-4 0.063809 0.3172 0.34627 0.38086 0.37214 0.06367 0.025867 0.42196-0.15088 0.42196-0.15088z"/><path d="m41.022 9.2192 0.63809 0.54876s0.1659-0.268 0.1659-0.33181c0-0.063809-0.31904-0.34457-0.38285-0.37009-0.06381-0.025524-0.42114 0.15314-0.42114 0.15314z"/><path d="m41.8 9.9256-0.63514-0.55216s-0.16733 0.26711-0.16767 0.33092c-3.07e-4 0.063809 0.3172 0.34627 0.38086 0.37213 0.06367 0.02587 0.42196-0.15088 0.42196-0.15088z"/></g><g transform="matrix(.11851 -.3124 .362 .13732 27.551 23.178)" fill="#878787" fill-opacity=".9322"><path d="m40.391 8.6908 0.63809 0.54876s0.1659-0.268 0.1659-0.33181c0-0.063809-0.31904-0.34457-0.38285-0.37009-0.06381-0.025524-0.42114 0.15314-0.42114 0.15314z"/><path d="m41.169 9.3971-0.63514-0.55216s-0.16733 0.26711-0.16767 0.33092c-3.07e-4 0.063809 0.3172 0.34627 0.38086 0.37214 0.06367 0.025867 0.42196-0.15088 0.42196-0.15088z"/><path d="m41.022 9.2192 0.63809 0.54876s0.1659-0.268 0.1659-0.33181c0-0.063809-0.31904-0.34457-0.38285-0.37009-0.06381-0.025524-0.42114 0.15314-0.42114 0.15314z"/><path d="m41.8 9.9256-0.63514-0.55216s-0.16733 0.26711-0.16767 0.33092c-3.07e-4 0.063809 0.3172 0.34627 0.38086 0.37213 0.06367 0.02587 0.42196-0.15088 0.42196-0.15088z"/></g><path d="m36.757 12.884s-0.11354 0.01958-0.13703-0.0078c-0.02349-0.02741-1.1275-1.3194-1.1315-1.4251-0.0039-0.10571 0.39934-0.15269 0.39934-0.15269s0.92004-0.16443 0.9866 0.3641c0.06656 0.52853-0.11745 1.2215-0.11745 1.2215z" fill="#ffb380"/><path d="m35.476 11.444s2.3435-1.3391 2.4008-1.4252c0.05739-0.08609 0.20087-0.43043 0.20087-0.43043s0.08609 0.07652 0.13391 0.13391c0.04782 0.05739-0.14348 0.32522-0.14348 0.32522s-0.05739 0.11478-0.15304 0.1913c-0.09565 0.07652-2.3052 1.3582-2.353 1.3104-0.04783-0.04783-0.08608-0.10522-0.08608-0.10522z" fill="#100500" fill-opacity=".62373"/><path d="m41.08 23.757s-1.2085 0.81616-1.2085 1.2084c0 0.39227 0.14264 0.8202-0.03566 1.0342-0.17831 0.21397-1.1055 0.57058-1.2481 0.74888s-1.4621 2.4606-1.4621 2.4606h-10.77s0.1783-3.1382 0.42793-3.1025 0.14264-1.1768 1.1412-1.2481c0.99851-0.07132 0.85586-0.49925 1.4978-0.67756 0.6419-0.1783 2.6746-1.2838 3.0668-1.3551 0.39227-0.07132 0.67756 0.07132 0.67756 0.07132s0.53492 0.46359 0.85586 0.46359c0.32095 0 1.1412 0.07132 1.1412 0.07132l0.92719 0.07132 0.85586 0.07132h0.35661l1.6761 0.14264h0.67756z" fill="#e9de5f" stroke-width=".1"/><path d="m33.912 24.738s-1.6719 1.101-1.7535 1.3865c-0.08156 0.28545-1.101 1.101-1.0602 1.5903 0.04078 0.48934-0.04078 1.5496-0.04078 1.5496l-0.04078 0.08156" fill="none" stroke="#000" stroke-width=".1"/><path d="m38.213 23.975-0.11977 0.71865c0.11977 1.1079 0.50904 1.5271 0.50904 1.5271" fill="none" stroke="#000" stroke-width=".1"/><path d="m30.517 23.597 0.69633 0.21431c1.114 0.02867 1.5813-0.30137 1.5813-0.30137" fill="none" stroke="#000" stroke-width=".1"/><path d="m0.021426 25.09 0.021426 0.4928 20.976 0.4928-0.02143-0.47138z" fill="#272727"/><path d="m17.182 25.976-0.01847 3.3949h2.5181v-3.369z" fill="#373d4f"/><path d="m1.6868 25.619-0.01847 3.707h2.5181l-0.014763-3.6522z" fill="#373d4f"/><path d="m4.1847 29.335 0.71288-0.0021-0.017769-3.6349-0.71211-0.02067z" fill="#2b303e"/><path d="m19.677 29.385 0.66872-0.01034 0.0264-3.3583-0.71211-0.01914z" fill="#2b303e"/></svg>
