<?xml version="1.0" encoding="UTF-8" standalone="no"?>
<svg
   width="39.573mm"
   height="22.017mm"
   version="1.1"
   viewBox="0 0 39.573 22.017"
   xml:space="preserve"
   id="svg188"
   sodipodi:docname="profile_icon3.svg"
   inkscape:version="1.2.2 (b0a8486, 2022-12-01)"
   xmlns:inkscape="http://www.inkscape.org/namespaces/inkscape"
   xmlns:sodipodi="http://sodipodi.sourceforge.net/DTD/sodipodi-0.dtd"
   xmlns="http://www.w3.org/2000/svg"
   xmlns:svg="http://www.w3.org/2000/svg"><defs
     id="defs192" /><sodipodi:namedview
     id="namedview190"
     pagecolor="#ffffff"
     bordercolor="#000000"
     borderopacity="0.25"
     inkscape:showpageshadow="2"
     inkscape:pageopacity="0.0"
     inkscape:pagecheckerboard="0"
     inkscape:deskcolor="#d1d1d1"
     inkscape:document-units="mm"
     showgrid="false"
     inkscape:zoom="4.5134475"
     inkscape:cx="82.974267"
     inkscape:cy="66.246478"
     inkscape:window-width="1858"
     inkscape:window-height="1052"
     inkscape:window-x="359"
     inkscape:window-y="1440"
     inkscape:window-maximized="0"
     inkscape:current-layer="g186" /><g
     transform="translate(-50.586 -124.98)"
     id="g186"><g
       id="g116"><path
         d="m50.586 137.4 8.2725-8.2725 4.8119 8.3344-7.4146 7.4146z"
         stroke-width=".26458"
         id="path4"
         style="fill:#c4bdbd;fill-opacity:1" /><path
         style="opacity:1;fill:#082024;fill-opacity:1;stroke:none;stroke-width:0.098868;stroke-dasharray:none;stroke-opacity:1"
         d="m 79.566757,134.74698 -4.260243,2.83573 c 0,0 1.318647,2.12063 1.572232,2.29324 0.253586,0.17261 1.749741,0.69044 1.749741,0.69044 l 1.039703,-0.98633 -0.329662,2.76174 c 0,0 -0.101437,2.9837 0.02536,3.20561 0.126793,0.22193 0.862193,1.08497 1.622946,1.10963 0.760761,0.0247 4.437757,0.24659 4.742058,0.27125 0.304299,0.0247 1.927253,0.14794 2.180838,-0.0494 0.253587,-0.19726 0.912908,-0.81372 0.963625,-1.13429 0.05071,-0.32055 0.684685,-7.61948 0.456455,-8.45787 -0.228229,-0.83839 -1.572231,-3.30425 -1.749741,-3.40288 -0.177509,-0.0986 -1.470797,-0.5918 -1.470797,-0.5918 l -0.152154,0.46851 -5e-6,0.36988 -0.355021,0.96169 -0.963627,0.8877 -1.115777,0.34521 c 0,0 -1.191854,-0.96168 -1.217211,-1.38087 -0.02536,-0.41921 -0.152166,0.0495 -0.152166,0.0495 l -1.267931,0.39453 -0.177503,-2e-5 z"
         id="path5253" /><path
         d="m56.263 144.81 13.212-0.0962 4.7437-8.085-11.096 0.77613z"
         stroke-width=".26976"
         id="path6"
         style="fill:#c4bdbd;fill-opacity:1" /><path
         style="opacity:1;fill:#282323;fill-opacity:1;stroke:none;stroke-width:0.1;stroke-dasharray:none;stroke-opacity:1"
         d="m 70.30855,142.39002 1.552696,-2.77503 h -3.402718 l -1.588178,2.75081 z"
         id="path7442"
         transform="translate(2.9166667e-7)" /><path
         d="m 84.865361,144.43254 c 1.128806,-1.98456 2.307832,-4.17 3.4925,-6.378"
         fill="#666666"
         opacity=".71148"
         stroke="#000000"
         stroke-width=".30024"
         id="path110"
         style="opacity:0.587156;stroke-width:0.1;stroke-dasharray:none"
         sodipodi:nodetypes="cc" /><path
         d="m84.612 143.5s0.39939 0.29585 0.44377 0.47336c0.04438 0.17751-0.17751 0.51773-0.17751 0.51773s-0.35502 0.17751-0.56211-0.0296c-0.20709-0.2071-0.31064-0.31064-0.31064-0.31064z"
         fill="#161616"
         id="path112" /><path
         d="m 76.895044,139.75647 c 0,0 0.346837,0.20515 0.507549,0.2948 0.398271,0.22213 1.230885,0.51489 1.230885,0.51489 0,0 -0.14902,0.0112 -0.324332,-0.002 -0.350098,-0.0267 -0.880953,-0.10822 -1.070729,-0.26819 -0.0072,-0.006 -0.0117,-0.0162 -0.01915,-0.022 -0.234885,-0.18636 -0.405844,-0.46706 -0.405844,-0.46706 z"
         fill="#161616"
         opacity="0.8623"
         id="path114"
         style="stroke-width:1.04726;opacity:1" /><path
         style="opacity:1;fill:#ffb380;fill-opacity:1;stroke:none;stroke-width:0.255;stroke-dasharray:none;stroke-opacity:1"
         d="m 81.290944,141.69765 c 0,0 -0.386927,0.6938 -0.400269,0.7872 -0.01334,0.0934 -9.352955,-1.33423 -9.352955,-1.33423 l -0.186792,1.09406 c 0,0 9.633143,4.54973 10.873978,3.469 1.240835,-1.08072 2.401615,-2.25485 2.401615,-2.25485 0,0 -0.560377,-1.2008 -1.200809,-1.41428 -0.64043,-0.21348 -1.601076,-0.4403 -1.721156,-0.42695 -0.120081,0.0133 -0.413612,0.08 -0.413612,0.08 z"
         id="path4562" /><path
         style="opacity:1;fill:#ffb380;fill-opacity:1;stroke:none;stroke-width:0.255;stroke-dasharray:none;stroke-opacity:1"
         d="m 66.512121,141.1829 c 0,0 -0.09763,0.061 -0.122031,0.24406 -0.02441,0.18305 -0.07322,0.29288 0.0122,0.31728 0.08542,0.0244 0.488122,-0.0122 0.488122,-0.0122 l 0.170843,-0.19525 c 0,0 -0.02441,0.36609 0.03661,0.4027 0.06101,0.0366 0.353889,0.34169 0.43931,0.32949 0.08542,-0.0122 0.561341,-0.46372 0.561341,-0.46372 0,0 0.195248,-0.50033 0.366091,-0.53694 0.170843,-0.0366 0.353889,0.0366 0.353889,0.0366 0,0 1.281321,0.69558 1.561991,0.75659 0.28067,0.061 0.951838,0.19525 1.025056,0.20746 0.07322,0.0122 0.341686,-1.03726 0.329483,-1.08608 -0.0122,-0.0488 -1.513179,-1.00065 -1.513179,-1.00065 0,0 -2.281971,-0.17084 -2.489423,-0.061 -0.207452,0.10983 -1.220306,1.06166 -1.220306,1.06166 z"
         id="path4921" /><path
         style="opacity:1;fill:#082024;fill-opacity:1;stroke:none;stroke-width:0.0997853;stroke-dasharray:none;stroke-opacity:1"
         d="m 79.587469,134.74126 0.200292,-0.10675 c 0,0 0.790626,0.44838 0.874959,0.46974 0.08433,0.0214 0.347876,-0.0428 0.347876,-0.0428 0,0 0.853874,-0.24556 0.896042,-0.27758 0.04217,-0.032 0.26354,-0.13879 0.26354,-0.13879 0,0 1.012004,1.40923 1.201754,1.44125 0.189749,0.032 1.170126,-0.32027 1.170126,-0.32027 0,0 0.674669,-0.65125 0.748459,-0.74732 0.0738,-0.0961 0.453293,-0.57652 0.474375,-0.73664 0.02109,-0.16015 0.105417,-0.41636 0.09487,-0.46975 -0.01054,-0.0534 -0.179208,-0.33095 -0.179208,-0.33095 l 0.358417,-0.17082 0.05272,-0.0214 0.305709,1.56938 -0.959295,1.22773 -2.224295,0.81138 -1.033083,-0.29893 -0.274085,-0.88611 -1.275542,-0.0106 -0.885504,-0.3523 z"
         id="path5310" /><path
         style="opacity:1;fill:#c4bdbd;fill-opacity:1;stroke:#676767;stroke-width:0.1;stroke-dasharray:none;stroke-opacity:1"
         d="m 56.311216,144.76291 7.337954,-7.39171 v 0"
         id="path6092" /><circle
         style="opacity:1;fill:#282323;fill-opacity:1;stroke:none;stroke-width:0.1;stroke-dasharray:none;stroke-opacity:1"
         id="path7334"
         cx="55.051846"
         cy="133.33504"
         r="0.12788144" /><path
         style="opacity:1;fill:#282323;fill-opacity:1;stroke:none;stroke-width:0.1;stroke-dasharray:none;stroke-opacity:1"
         d="m 58.634783,144.60917 0.793927,-0.009 0.314834,-0.31483 h -0.679858 -0.155135 z"
         id="path7448" /><path
         style="fill:#282323;fill-opacity:1;stroke:none;stroke-width:0.1;stroke-dasharray:none;stroke-opacity:1"
         d="m 57.561748,144.60686 0.793927,-0.009 0.314834,-0.31483 h -0.679858 -0.155135 z"
         id="path7448-8" /><path
         style="fill:#282323;fill-opacity:1;stroke:none;stroke-width:0.1;stroke-dasharray:none;stroke-opacity:1"
         d="m 59.698676,144.60687 0.793927,-0.009 0.314834,-0.31483 h -0.679858 -0.155135 z"
         id="path7448-8-5" /><path
         style="fill:#282323;fill-opacity:1;stroke:none;stroke-width:0.1;stroke-dasharray:none;stroke-opacity:1"
         d="m 60.672651,144.62139 0.793927,-0.009 0.314834,-0.31483 h -0.679858 -0.155135 z"
         id="path7448-8-5-8" /><path
         style="fill:#282323;fill-opacity:1;stroke:none;stroke-width:0.1;stroke-dasharray:none;stroke-opacity:1"
         d="m 61.784069,144.62802 0.793927,-0.009 0.314834,-0.31483 h -0.679858 -0.155135 z"
         id="path7448-8-5-8-9" /><path
         style="fill:#282323;fill-opacity:1;stroke:none;stroke-width:0.1;stroke-dasharray:none;stroke-opacity:1"
         d="m 59.064464,144.14525 0.793927,-0.009 0.314834,-0.31483 h -0.679858 -0.155135 z"
         id="path7448-9" /><path
         style="fill:#282323;fill-opacity:1;stroke:none;stroke-width:0.1;stroke-dasharray:none;stroke-opacity:1"
         d="m 57.991429,144.14294 0.793927,-0.009 0.314834,-0.31483 h -0.679858 -0.155135 z"
         id="path7448-8-9" /><path
         style="fill:#282323;fill-opacity:1;stroke:none;stroke-width:0.1;stroke-dasharray:none;stroke-opacity:1"
         d="m 60.128357,144.14295 0.793927,-0.009 0.314834,-0.31483 H 60.55726 60.402125 Z"
         id="path7448-8-5-3" /><path
         style="fill:#282323;fill-opacity:1;stroke:none;stroke-width:0.1;stroke-dasharray:none;stroke-opacity:1"
         d="m 61.102332,144.15747 0.793927,-0.009 0.314834,-0.31483 H 61.531235 61.3761 Z"
         id="path7448-8-5-8-3" /><path
         style="fill:#282323;fill-opacity:1;stroke:none;stroke-width:0.1;stroke-dasharray:none;stroke-opacity:1"
         d="m 62.21375,144.1641 0.793927,-0.009 0.314834,-0.31483 h -0.679858 -0.155135 z"
         id="path7448-8-5-8-9-7" /><path
         style="fill:#282323;fill-opacity:1;stroke:none;stroke-width:0.1;stroke-dasharray:none;stroke-opacity:1"
         d="m 59.557389,143.66933 0.793927,-0.009 0.314834,-0.31483 h -0.679858 -0.155135 z"
         id="path7448-9-7" /><path
         style="fill:#282323;fill-opacity:1;stroke:none;stroke-width:0.1;stroke-dasharray:none;stroke-opacity:1"
         d="m 58.484354,143.66702 0.793927,-0.009 0.314834,-0.31483 h -0.679858 -0.155135 z"
         id="path7448-8-9-3" /><path
         style="fill:#282323;fill-opacity:1;stroke:none;stroke-width:0.1;stroke-dasharray:none;stroke-opacity:1"
         d="m 60.621282,143.66703 0.793927,-0.009 0.314834,-0.31483 H 61.050185 60.89505 Z"
         id="path7448-8-5-3-2" /><path
         style="fill:#282323;fill-opacity:1;stroke:none;stroke-width:0.1;stroke-dasharray:none;stroke-opacity:1"
         d="m 61.595257,143.68155 0.793927,-0.009 0.314834,-0.31483 H 62.02416 61.869025 Z"
         id="path7448-8-5-8-3-5" /><path
         style="fill:#282323;fill-opacity:1;stroke:none;stroke-width:0.1;stroke-dasharray:none;stroke-opacity:1"
         d="m 62.706675,143.68818 0.793927,-0.009 0.314834,-0.31483 h -0.679858 -0.155135 z"
         id="path7448-8-5-8-9-7-6" /><path
         style="fill:#282323;fill-opacity:1;stroke:none;stroke-width:0.1;stroke-dasharray:none;stroke-opacity:1"
         d="m 59.960836,143.22576 0.793927,-0.009 0.314834,-0.31483 h -0.679858 -0.155135 z"
         id="path7448-9-7-3" /><path
         style="fill:#282323;fill-opacity:1;stroke:none;stroke-width:0.1;stroke-dasharray:none;stroke-opacity:1"
         d="m 58.887801,143.22345 0.793927,-0.009 0.314834,-0.31483 h -0.679858 -0.155135 z"
         id="path7448-8-9-3-4" /><path
         style="fill:#282323;fill-opacity:1;stroke:none;stroke-width:0.1;stroke-dasharray:none;stroke-opacity:1"
         d="m 61.024729,143.22346 0.793927,-0.009 0.314834,-0.31483 h -0.679858 -0.155135 z"
         id="path7448-8-5-3-2-0" /><path
         style="fill:#282323;fill-opacity:1;stroke:none;stroke-width:0.1;stroke-dasharray:none;stroke-opacity:1"
         d="m 61.998704,143.23798 0.793927,-0.009 0.314834,-0.31483 h -0.679858 -0.155135 z"
         id="path7448-8-5-8-3-5-6" /><path
         style="fill:#282323;fill-opacity:1;stroke:none;stroke-width:0.1;stroke-dasharray:none;stroke-opacity:1"
         d="m 63.110122,143.24461 0.793927,-0.009 0.314834,-0.31483 H 63.539025 63.38389 Z"
         id="path7448-8-5-8-9-7-6-0" /><path
         style="fill:#282323;fill-opacity:1;stroke:none;stroke-width:0.1;stroke-dasharray:none;stroke-opacity:1"
         d="m 60.361105,142.7988 0.793927,-0.009 0.314834,-0.31483 h -0.679858 -0.155135 z"
         id="path7448-9-7-3-4" /><path
         style="fill:#282323;fill-opacity:1;stroke:none;stroke-width:0.1;stroke-dasharray:none;stroke-opacity:1"
         d="m 59.28807,142.79649 0.793927,-0.009 0.314834,-0.31483 h -0.679858 -0.155135 z"
         id="path7448-8-9-3-4-0" /><path
         style="fill:#282323;fill-opacity:1;stroke:none;stroke-width:0.1;stroke-dasharray:none;stroke-opacity:1"
         d="m 61.424998,142.7965 0.793927,-0.009 0.314834,-0.31483 h -0.679858 -0.155135 z"
         id="path7448-8-5-3-2-0-5" /><path
         style="fill:#282323;fill-opacity:1;stroke:none;stroke-width:0.1;stroke-dasharray:none;stroke-opacity:1"
         d="m 62.398973,142.81102 0.793927,-0.009 0.314834,-0.31483 h -0.679858 -0.155135 z"
         id="path7448-8-5-8-3-5-6-6" /><path
         style="fill:#282323;fill-opacity:1;stroke:none;stroke-width:0.1;stroke-dasharray:none;stroke-opacity:1"
         d="m 63.510391,142.81765 0.793927,-0.009 0.314834,-0.31483 h -0.679858 -0.155135 z"
         id="path7448-8-5-8-9-7-6-0-8" /><path
         style="fill:#282323;fill-opacity:1;stroke:none;stroke-width:0.1;stroke-dasharray:none;stroke-opacity:1"
         d="m 60.734688,142.34517 0.793927,-0.009 0.314834,-0.31483 h -0.679858 -0.155135 z"
         id="path7448-9-7-3-4-5" /><path
         style="fill:#282323;fill-opacity:1;stroke:none;stroke-width:0.1;stroke-dasharray:none;stroke-opacity:1"
         d="m 59.661653,142.34286 0.793927,-0.009 0.314834,-0.31483 h -0.679858 -0.155135 z"
         id="path7448-8-9-3-4-0-3" /><path
         style="fill:#282323;fill-opacity:1;stroke:none;stroke-width:0.1;stroke-dasharray:none;stroke-opacity:1"
         d="m 61.798581,142.34287 0.793927,-0.009 0.314834,-0.31483 h -0.679858 -0.155135 z"
         id="path7448-8-5-3-2-0-5-7" /><path
         style="fill:#282323;fill-opacity:1;stroke:none;stroke-width:0.1;stroke-dasharray:none;stroke-opacity:1"
         d="m 62.772556,142.35739 0.793927,-0.009 0.314834,-0.31483 h -0.679858 -0.155135 z"
         id="path7448-8-5-8-3-5-6-6-6" /><path
         style="fill:#282323;fill-opacity:1;stroke:none;stroke-width:0.1;stroke-dasharray:none;stroke-opacity:1"
         d="m 63.883974,142.36402 0.793927,-0.009 0.314834,-0.31483 h -0.679858 -0.155135 z"
         id="path7448-8-5-8-9-7-6-0-8-8" /><path
         style="fill:#282323;fill-opacity:1;stroke:none;stroke-width:0.1;stroke-dasharray:none;stroke-opacity:1"
         d="m 61.134956,141.89153 0.793927,-0.009 0.314834,-0.31483 h -0.679858 -0.155135 z"
         id="path7448-9-7-3-4-5-6" /><path
         style="fill:#282323;fill-opacity:1;stroke:none;stroke-width:0.1;stroke-dasharray:none;stroke-opacity:1"
         d="m 60.061921,141.88922 0.793927,-0.009 0.314834,-0.31483 h -0.679858 -0.155135 z"
         id="path7448-8-9-3-4-0-3-7" /><path
         style="fill:#282323;fill-opacity:1;stroke:none;stroke-width:0.1;stroke-dasharray:none;stroke-opacity:1"
         d="m 62.198849,141.88923 0.793927,-0.009 0.314834,-0.31483 h -0.679858 -0.155135 z"
         id="path7448-8-5-3-2-0-5-7-1" /><path
         style="fill:#282323;fill-opacity:1;stroke:none;stroke-width:0.1;stroke-dasharray:none;stroke-opacity:1"
         d="m 63.172824,141.90375 0.793927,-0.009 0.314834,-0.31483 h -0.679858 -0.155135 z"
         id="path7448-8-5-8-3-5-6-6-6-8" /><path
         style="fill:#282323;fill-opacity:1;stroke:none;stroke-width:0.1;stroke-dasharray:none;stroke-opacity:1"
         d="m 64.284242,141.91038 0.793927,-0.009 0.314834,-0.31483 H 64.713145 64.55801 Z"
         id="path7448-8-5-8-9-7-6-0-8-8-4" /><path
         style="fill:#282323;fill-opacity:1;stroke:none;stroke-width:0.1;stroke-dasharray:none;stroke-opacity:1"
         d="m 61.588592,141.43789 0.793927,-0.009 0.314834,-0.31483 H 62.017495 61.86236 Z"
         id="path7448-9-7-3-4-5-6-9" /><path
         style="fill:#282323;fill-opacity:1;stroke:none;stroke-width:0.1;stroke-dasharray:none;stroke-opacity:1"
         d="m 60.515557,141.43558 0.793927,-0.009 0.314834,-0.31483 H 60.94446 60.789325 Z"
         id="path7448-8-9-3-4-0-3-7-7" /><path
         style="fill:#282323;fill-opacity:1;stroke:none;stroke-width:0.1;stroke-dasharray:none;stroke-opacity:1"
         d="m 62.652485,141.43559 0.793927,-0.009 0.314834,-0.31483 h -0.679858 -0.155135 z"
         id="path7448-8-5-3-2-0-5-7-1-3" /><path
         style="fill:#282323;fill-opacity:1;stroke:none;stroke-width:0.1;stroke-dasharray:none;stroke-opacity:1"
         d="m 63.62646,141.45011 0.793927,-0.009 0.314834,-0.31483 h -0.679858 -0.155135 z"
         id="path7448-8-5-8-3-5-6-6-6-8-1" /><path
         style="fill:#282323;fill-opacity:1;stroke:none;stroke-width:0.1;stroke-dasharray:none;stroke-opacity:1"
         d="m 64.737878,141.45674 0.793927,-0.009 0.314834,-0.31483 h -0.679858 -0.155135 z"
         id="path7448-8-5-8-9-7-6-0-8-8-4-0" /><path
         style="fill:#282323;fill-opacity:1;stroke:none;stroke-width:0.1;stroke-dasharray:none;stroke-opacity:1"
         d="m 62.042229,140.98426 0.793927,-0.009 0.314834,-0.31483 h -0.679858 -0.155135 z"
         id="path7448-9-7-3-4-5-6-9-2" /><path
         style="fill:#282323;fill-opacity:1;stroke:none;stroke-width:0.1;stroke-dasharray:none;stroke-opacity:1"
         d="m 60.969194,140.98195 0.793927,-0.009 0.314834,-0.31483 h -0.679858 -0.155135 z"
         id="path7448-8-9-3-4-0-3-7-7-3" /><path
         style="fill:#282323;fill-opacity:1;stroke:none;stroke-width:0.1;stroke-dasharray:none;stroke-opacity:1"
         d="m 63.106122,140.98196 0.793927,-0.009 0.314834,-0.31483 H 63.535025 63.37989 Z"
         id="path7448-8-5-3-2-0-5-7-1-3-7" /><path
         style="fill:#282323;fill-opacity:1;stroke:none;stroke-width:0.1;stroke-dasharray:none;stroke-opacity:1"
         d="m 64.080097,140.99648 0.793927,-0.009 0.314834,-0.31483 H 64.509 64.353865 Z"
         id="path7448-8-5-8-3-5-6-6-6-8-1-1" /><path
         style="fill:#282323;fill-opacity:1;stroke:none;stroke-width:0.1;stroke-dasharray:none;stroke-opacity:1"
         d="m 65.191515,141.00311 0.793927,-0.009 0.314834,-0.31483 h -0.679858 -0.155135 z"
         id="path7448-8-5-8-9-7-6-0-8-8-4-0-8" /><path
         style="fill:#282323;fill-opacity:1;stroke:none;stroke-width:0.1;stroke-dasharray:none;stroke-opacity:1"
         d="m 62.495867,140.53062 0.793927,-0.009 0.314834,-0.31483 H 62.92477 62.769635 Z"
         id="path7448-9-7-3-4-5-6-9-2-9" /><path
         style="fill:#282323;fill-opacity:1;stroke:none;stroke-width:0.1;stroke-dasharray:none;stroke-opacity:1"
         d="m 61.422832,140.52831 0.793927,-0.009 0.314834,-0.31483 H 61.851735 61.6966 Z"
         id="path7448-8-9-3-4-0-3-7-7-3-3" /><path
         style="fill:#282323;fill-opacity:1;stroke:none;stroke-width:0.1;stroke-dasharray:none;stroke-opacity:1"
         d="m 63.55976,140.52832 0.793927,-0.009 0.314834,-0.31483 h -0.679858 -0.155135 z"
         id="path7448-8-5-3-2-0-5-7-1-3-7-7" /><path
         style="fill:#282323;fill-opacity:1;stroke:none;stroke-width:0.1;stroke-dasharray:none;stroke-opacity:1"
         d="m 64.533735,140.54284 0.793927,-0.009 0.314834,-0.31483 h -0.679858 -0.155135 z"
         id="path7448-8-5-8-3-5-6-6-6-8-1-1-4" /><path
         style="fill:#282323;fill-opacity:1;stroke:none;stroke-width:0.1;stroke-dasharray:none;stroke-opacity:1"
         d="m 65.645153,140.54947 0.793927,-0.009 0.314834,-0.31483 h -0.679858 -0.155135 z"
         id="path7448-8-5-8-9-7-6-0-8-8-4-0-8-8" /><path
         style="fill:#282323;fill-opacity:1;stroke:none;stroke-width:0.1;stroke-dasharray:none;stroke-opacity:1"
         d="m 63.029558,140.0503 0.793927,-0.009 0.314834,-0.31483 h -0.679858 -0.155135 z"
         id="path7448-9-7-3-4-5-6-9-2-0" /><path
         style="fill:#282323;fill-opacity:1;stroke:none;stroke-width:0.1;stroke-dasharray:none;stroke-opacity:1"
         d="m 61.956523,140.04799 0.793927,-0.009 0.314834,-0.31483 h -0.679858 -0.155135 z"
         id="path7448-8-9-3-4-0-3-7-7-3-4" /><path
         style="fill:#282323;fill-opacity:1;stroke:none;stroke-width:0.1;stroke-dasharray:none;stroke-opacity:1"
         d="m 64.093451,140.048 0.793927,-0.009 0.314834,-0.31483 h -0.679858 -0.155135 z"
         id="path7448-8-5-3-2-0-5-7-1-3-7-0" /><path
         style="fill:#282323;fill-opacity:1;stroke:none;stroke-width:0.1;stroke-dasharray:none;stroke-opacity:1"
         d="m 65.067426,140.06252 0.793927,-0.009 0.314834,-0.31483 h -0.679858 -0.155135 z"
         id="path7448-8-5-8-3-5-6-6-6-8-1-1-5" /><path
         style="fill:#282323;fill-opacity:1;stroke:none;stroke-width:0.1;stroke-dasharray:none;stroke-opacity:1"
         d="m 66.178844,140.06915 0.793927,-0.009 0.314834,-0.31483 h -0.679858 -0.155135 z"
         id="path7448-8-5-8-9-7-6-0-8-8-4-0-8-7" /><path
         style="fill:#282323;fill-opacity:1;stroke:none;stroke-width:0.1;stroke-dasharray:none;stroke-opacity:1"
         d="m 63.45651,139.59666 0.793927,-0.009 0.314834,-0.31483 h -0.679858 -0.155135 z"
         id="path7448-9-7-3-4-5-6-9-2-00" /><path
         style="fill:#282323;fill-opacity:1;stroke:none;stroke-width:0.1;stroke-dasharray:none;stroke-opacity:1"
         d="m 62.383475,139.59435 0.793927,-0.009 0.314834,-0.31483 h -0.679858 -0.155135 z"
         id="path7448-8-9-3-4-0-3-7-7-3-5" /><path
         style="fill:#282323;fill-opacity:1;stroke:none;stroke-width:0.1;stroke-dasharray:none;stroke-opacity:1"
         d="m 64.520403,139.59436 0.793927,-0.009 0.314834,-0.31483 h -0.679858 -0.155135 z"
         id="path7448-8-5-3-2-0-5-7-1-3-7-6" /><path
         style="fill:#282323;fill-opacity:1;stroke:none;stroke-width:0.1;stroke-dasharray:none;stroke-opacity:1"
         d="m 65.494378,139.60888 0.793927,-0.009 0.314834,-0.31483 h -0.679858 -0.155135 z"
         id="path7448-8-5-8-3-5-6-6-6-8-1-1-7" /><path
         style="fill:#282323;fill-opacity:1;stroke:none;stroke-width:0.1;stroke-dasharray:none;stroke-opacity:1"
         d="m 66.605796,139.61551 0.793927,-0.009 0.314834,-0.31483 h -0.679858 -0.155135 z"
         id="path7448-8-5-8-9-7-6-0-8-8-4-0-8-80" /><path
         style="fill:#282323;fill-opacity:1;stroke:none;stroke-width:0.1;stroke-dasharray:none;stroke-opacity:1"
         d="m 63.830094,139.16971 0.793927,-0.009 0.314834,-0.31483 h -0.679858 -0.155135 z"
         id="path7448-9-7-3-4-5-6-9-2-6" /><path
         style="fill:#282323;fill-opacity:1;stroke:none;stroke-width:0.1;stroke-dasharray:none;stroke-opacity:1"
         d="m 62.757059,139.1674 0.793927,-0.009 0.314834,-0.31483 h -0.679858 -0.155135 z"
         id="path7448-8-9-3-4-0-3-7-7-3-57" /><path
         style="fill:#282323;fill-opacity:1;stroke:none;stroke-width:0.1;stroke-dasharray:none;stroke-opacity:1"
         d="m 64.893987,139.16741 0.793927,-0.009 0.314834,-0.31483 H 65.32289 65.167755 Z"
         id="path7448-8-5-3-2-0-5-7-1-3-7-3" /><path
         style="fill:#282323;fill-opacity:1;stroke:none;stroke-width:0.1;stroke-dasharray:none;stroke-opacity:1"
         d="m 65.867962,139.18193 0.793927,-0.009 0.314834,-0.31483 H 66.296865 66.14173 Z"
         id="path7448-8-5-8-3-5-6-6-6-8-1-1-43" /><path
         style="fill:#282323;fill-opacity:1;stroke:none;stroke-width:0.1;stroke-dasharray:none;stroke-opacity:1"
         d="m 66.97938,139.18856 0.793927,-0.009 0.314834,-0.31483 h -0.679858 -0.155135 z"
         id="path7448-8-5-8-9-7-6-0-8-8-4-0-8-0" /><path
         style="fill:#282323;fill-opacity:1;stroke:none;stroke-width:0.1;stroke-dasharray:none;stroke-opacity:1"
         d="m 64.203677,138.71607 0.793927,-0.009 0.314834,-0.31483 H 64.63258 64.477445 Z"
         id="path7448-9-7-3-4-5-6-9-2-4" /><path
         style="fill:#282323;fill-opacity:1;stroke:none;stroke-width:0.1;stroke-dasharray:none;stroke-opacity:1"
         d="m 63.130642,138.71376 0.793927,-0.009 0.314834,-0.31483 H 63.559545 63.40441 Z"
         id="path7448-8-9-3-4-0-3-7-7-3-8" /><path
         style="fill:#282323;fill-opacity:1;stroke:none;stroke-width:0.1;stroke-dasharray:none;stroke-opacity:1"
         d="m 65.26757,138.71377 0.793927,-0.009 0.314834,-0.31483 h -0.679858 -0.155135 z"
         id="path7448-8-5-3-2-0-5-7-1-3-7-75" /><path
         style="fill:#282323;fill-opacity:1;stroke:none;stroke-width:0.1;stroke-dasharray:none;stroke-opacity:1"
         d="m 66.241545,138.72829 0.793927,-0.009 0.314834,-0.31483 h -0.679858 -0.155135 z"
         id="path7448-8-5-8-3-5-6-6-6-8-1-1-9" /><path
         style="fill:#282323;fill-opacity:1;stroke:none;stroke-width:0.1;stroke-dasharray:none;stroke-opacity:1"
         d="m 67.352963,138.73492 0.793927,-0.009 0.314834,-0.31483 h -0.679858 -0.155135 z"
         id="path7448-8-5-8-9-7-6-0-8-8-4-0-8-5" /><path
         style="fill:#282323;fill-opacity:1;stroke:none;stroke-width:0.1;stroke-dasharray:none;stroke-opacity:1"
         d="m 64.683998,138.28912 0.793927,-0.009 0.314834,-0.31483 h -0.679858 -0.155135 z"
         id="path7448-9-7-3-4-5-6-9-2-3" /><path
         style="fill:#282323;fill-opacity:1;stroke:none;stroke-width:0.1;stroke-dasharray:none;stroke-opacity:1"
         d="m 63.610963,138.28681 0.793927,-0.009 0.314834,-0.31483 h -0.679858 -0.155135 z"
         id="path7448-8-9-3-4-0-3-7-7-3-2" /><path
         style="fill:#282323;fill-opacity:1;stroke:none;stroke-width:0.1;stroke-dasharray:none;stroke-opacity:1"
         d="m 65.747891,138.28682 0.793927,-0.009 0.314834,-0.31483 h -0.679858 -0.155135 z"
         id="path7448-8-5-3-2-0-5-7-1-3-7-73" /><path
         style="fill:#282323;fill-opacity:1;stroke:none;stroke-width:0.1;stroke-dasharray:none;stroke-opacity:1"
         d="m 66.721866,138.30134 0.793927,-0.009 0.314834,-0.31483 h -0.679858 -0.155135 z"
         id="path7448-8-5-8-3-5-6-6-6-8-1-1-97" /><path
         style="fill:#282323;fill-opacity:1;stroke:none;stroke-width:0.1;stroke-dasharray:none;stroke-opacity:1"
         d="m 67.833284,138.30797 0.793927,-0.009 0.314834,-0.31483 h -0.679858 -0.155135 z"
         id="path7448-8-5-8-9-7-6-0-8-8-4-0-8-79" /><path
         style="fill:#282323;fill-opacity:1;stroke:none;stroke-width:0.1;stroke-dasharray:none;stroke-opacity:1"
         d="m 65.004213,137.8088 0.793926,-0.009 0.314835,-0.31483 H 65.433115 65.27798 Z"
         id="path7448-9-7-3-4-5-6-9-2-5" /><path
         style="fill:#282323;fill-opacity:1;stroke:none;stroke-width:0.1;stroke-dasharray:none;stroke-opacity:1"
         d="m 63.931177,137.80649 0.793927,-0.009 0.314834,-0.31483 H 64.36008 64.204945 Z"
         id="path7448-8-9-3-4-0-3-7-7-3-33" /><path
         style="fill:#282323;fill-opacity:1;stroke:none;stroke-width:0.1;stroke-dasharray:none;stroke-opacity:1"
         d="m 66.068105,137.8065 0.793927,-0.009 0.314834,-0.31483 h -0.679858 -0.155135 z"
         id="path7448-8-5-3-2-0-5-7-1-3-7-38" /><path
         style="fill:#282323;fill-opacity:1;stroke:none;stroke-width:0.1;stroke-dasharray:none;stroke-opacity:1"
         d="m 67.04208,137.82102 0.793927,-0.009 0.314834,-0.31483 h -0.679858 -0.155135 z"
         id="path7448-8-5-8-3-5-6-6-6-8-1-1-58" /><path
         style="fill:#282323;fill-opacity:1;stroke:none;stroke-width:0.1;stroke-dasharray:none;stroke-opacity:1"
         d="m 68.153498,137.82765 0.793927,-0.009 0.314834,-0.31483 h -0.679858 -0.155135 z"
         id="path7448-8-5-8-9-7-6-0-8-8-4-0-8-9" /><path
         d="m 72.890685,138.46698 c -0.22648,-0.0103 -1.853,-0.42207 -1.853,-0.42207 l -2.3162,-0.27794 c 0,0 -1.3074,-0.0926 -1.8633,-0.24707 -0.5559,-0.15438 -2.4809,-0.21618 -2.4809,-0.21618 0,0 -0.42207,0.0721 -0.59707,0.17501 l -0.81325,1.2868 c 0,0 -0.0072,0.19743 0.17073,0.17766 0.17791,-0.0198 0.72152,-0.54361 0.72152,-0.54361 0,0 0.18779,-0.42501 0.43489,-0.42501 0.2471,0 0.47443,-0.01 0.51396,0.0198 0.03954,0.0297 -0.4942,0.39535 -0.54361,0.59303 -0.04942,0.19768 -0.31628,0.81048 -0.31628,0.96862 0,0.15815 -0.0593,0.48431 0.0099,0.5535 0.06919,0.0692 0.19768,0.0791 0.29652,0.0692 0.09884,-0.01 0.03954,-0.0988 0.11861,-0.32617 0.07907,-0.22733 0.0593,-0.53373 0.17791,-0.67211 0.11861,-0.13837 0.32617,-0.35582 0.46454,-0.52384 0.13838,-0.16803 0.45466,-0.28664 0.56338,-0.28664 0.10872,0 0.2471,0.0395 0.23721,0.0988 -0.0099,0.0593 -0.31628,0.2471 -0.46454,0.3064 -0.14826,0.0593 -0.5535,0.22733 -0.5535,0.22733 0,0 -0.41512,0.2471 -0.26686,0.36571 0.14826,0.11861 0.64245,0.14826 0.75118,0.10872 0.10872,-0.0395 0.77094,-0.21744 0.77094,-0.21744 0,0 0.44478,-0.01 0.74129,-0.0395 0.29652,-0.0297 0.79071,-0.10872 0.83025,-0.18779 0.03954,-0.0791 0.14826,-0.1878 0.14826,-0.1878 0,0 0.33605,-0.22733 0.48431,-0.01 0.14826,0.21744 3.6669,1.9867 4.8431,2.0163 1.1762,0.0297 3.7361,-1.0675 3.7361,-1.0675 0,0 -1.5419,-2.0262 -1.5122,-2.2041 0.02965,-0.17791 -2.4338,0.88778 -2.4338,0.88778 z"
         fill="#ffb380"
         stroke-width="0.26458"
         id="path108"
         transform="translate(2.9166667e-7)" /></g><path
       d="m82.224 134.4 0.82776 1.4026"
       fill="#f00"
       opacity=".35738"
       stroke-width=".26458"
       id="path118" /><path
       d="m82.201 134.37 2.6442-2.1154"
       fill="#f00"
       opacity=".35738"
       stroke-width=".26458"
       id="path120" /><path
       d="m82.109 134.53s2.5063-1.8854 2.6902-2.1154c0.18395-0.22993 0.59783 0.55184 0.59783 0.55184s0.59783 0.6898 0.48286 1.0347c-0.11497 0.3449-0.27592 0.75878-0.41388 0.87375-0.13796 0.11496-0.66913 0.71442-0.89674 0.87374-0.22993 0.16096-0.82776 0.32191-1.1037 0.3449-0.27592 0.023-1.3566-1.5635-1.3566-1.5635z"
       fill="#ffb380"
       stroke-width=".26458"
       id="path122" /><path
       d="m77.638 129.22s0.86869 4.5885 2.0184 5.3243c1.1497 0.73578 1.1056 0.5569 1.1056 0.5569s1.0149-0.0639 2.0726-0.89167c1.0577-0.82776 1.8625-1.5406 1.9774-1.7015 0.11497-0.16095 0.43688-0.96572 0.43688-1.2876 0-0.32191-0.32191-0.85076-0.59783-0.89674-0.27592-0.046-0.57483-0.22994-0.75878 0.069-0.18395 0.29891-0.16095 0.80476-0.16095 0.80476s-1.0347-0.64381-1.0577-0.80476c-0.02299-0.16096-0.52885-1.4946-0.52885-1.4946z"
       fill="#ffb380"
       stroke-width=".26458"
       id="path124" /><path
       d="m77.805 130.56s0.14459 0.48197-0.17672 1.4941c-0.32131 1.0121-0.7872 0.96392-0.7872 0.96392s-0.38557-0.28917-0.4659-0.59442c-0.08033-0.30524 0.0482-0.49803 0.28918-0.53016 0.24098-0.0321 0.30524-1.0282 0.30524-1.0282s-0.36951-1.0603-0.22492-1.6226c0.14459-0.56229 0.27311-1.3977 0.56229-1.6387 0.28918-0.24098 0.97999-0.72294 1.3334-0.65868 0.35344 0.0643 1.0443 0.72294 1.0603 1.2852 0.01606 0.56229-0.20885 2.1046-0.20885 2.1046s0.38557-3.1167 0.61049-3.1006c0.22492 0.0161 0.94786-0.43376 1.5262-0.0161 0.57835 0.4177 1.3977 1.9118 1.4941 2.5544 0.09639 0.64261-0.08033 1.6387 0.09639 1.976s1.1085 0.33737 1.1085 0.33737 0.17672-0.11245 0.27311-0.53015c0.09639-0.41771-0.25704-0.62656-0.25704-0.62656s-0.54622-1.2049-0.57836-1.8636c-0.03213-0.65868-0.7872-2.2974-0.7872-2.2974s-1.5905-1.3013-2.217-0.8354c-0.62655 0.4659-2.1688 0.97999-2.1688 0.97999z"
       stroke-width=".26458"
       id="path126" /><path
       d="m77.805 130.55s0.95437-1.1847 1.3328-1.1683c0.37846 0.0164 0.6911 0.0823 0.6911 0.0823l0.31264-0.19745s1.2506-0.23037 1.629-0.0823c0.37846 0.14809 0.60882 1.1025 0.60882 1.1025s0.08227 0.39492 0.57591 0.67464c0.49364 0.27974 0.65819 0.23037 0.65819 0.23037l0.09873-0.57591 0.16455-0.14809h0.39491l0.16455 0.0823 0.362 0.19745 0.34555 0.64174-0.181 0.77336-0.13164 0.39492-0.06582 0.23036 0.41137 0.37846 0.21391 0.27973 0.46073 0.0494s0.08227 0.11518 0.181-0.64173c0.09873-0.75691 0.55946-1.9087 0.55946-2.1885s-0.23036-1.4809-0.23036-1.4809-0.362-0.95437-0.62528-1.448c-0.26327-0.49364-1.2176-1.7442-1.4809-1.81-0.26328-0.0658-1.9416-1.0696-2.4024-0.93791-0.46073 0.13163-2.3366 0.0823-2.5998 0.27973-0.26327 0.19745-1.7277 0.57591-1.7606 0.93791-0.03291 0.362-0.52655 1.267-0.543 1.5796-0.01646 0.31264 0.01646 1.4809 0.08227 1.6455 0.06582 0.16455 0.77337 1.1189 0.77337 1.1189z"
       stroke-width=".26458"
       id="path128" /><ellipse
       transform="rotate(-7.626)"
       cx="61.17"
       cy="140.53"
       rx=".29844"
       ry=".52906"
       fill="#008000"
       stroke-width=".26458"
       id="ellipse130" /><ellipse
       transform="rotate(-7.626 8.4295e-6 3.0736e-6)"
       cx="62.965"
       cy="140.62"
       rx=".29844"
       ry=".52906"
       fill="#008000"
       stroke-width=".26458"
       id="ellipse132" /><path
       d="m81.22 128.22c0.24625 0.0127 0.46167 0.17302 0.69124 0.23041 0.05588 0.014 0.13207-0.0407 0.17281 0 0.01357 0.0136-0.01357 0.044 0 0.0576s0.04043-9e-3 0.0576 0c0.04857 0.0243 0.06663 0.0909 0.1152 0.11521 0.07813 0.0391 0.17281-0.0759 0.17281 0.0576"
       stroke-width=".26458"
       id="path134" /><path
       d="m79.995 131.6s0 0.48493-0.08083 0.80823c-0.08082 0.32329-0.22226 0.50514-0.16165 0.60617 0.06062 0.10103 0.66679 0.0606 0.66679 0.0606h0.06062"
       fill="none"
       stroke="#000"
       stroke-opacity=".84249"
       stroke-width=".065"
       id="path136" /><path
       d="m84.746 132.79s0.03781-0.10912 0.08219 0.0684c0.04438 0.17751-1.2075 1.1316-1.2075 1.1316s-1.2922 0.81541-1.575 0.89139c-0.33156 0.0891-1.2364 0.33061-1.0451 0.22317 0.07839-0.044 0.87856-0.2939 0.87856-0.2939z"
       fill="#161616"
       opacity=".37377"
       id="path138" /><path
       d="m51.218 137.43 4.9774 6.3908 6.7288-6.483-4.1479-7.2818z"
       fill="#f2f2f2"
       opacity=".8623"
       id="path140"
       style="fill:#8e8b75;fill-opacity:1" /><rect
       transform="rotate(-42.799)"
       x="-53.701"
       y="142.79"
       width="4.7725"
       height=".62019"
       rx="0"
       ry=".080561"
       fill="#98a1a5"
       stroke-opacity=".84249"
       stroke-width=".065"
       id="rect142" /><rect
       transform="rotate(-32.192756)"
       x="-20.771742"
       y="144.37248"
       width="0.84385997"
       height="0.60826999"
       rx="0"
       ry="0"
       fill="#0095bd"
       stroke-opacity="0.84249"
       stroke-width="0.065"
       id="rect152" /><rect
       transform="rotate(-32.192756)"
       x="-20.801664"
       y="145.26331"
       width="0.84385997"
       height="0.60826999"
       rx="0"
       ry="0"
       fill="#0095bd"
       stroke-opacity="0.84249"
       stroke-width="0.065"
       id="rect152-7" /><rect
       transform="matrix(0.84724634,-0.53120019,0.62514709,0.78050696,0,0)"
       x="-37.235794"
       y="145.22571"
       width="0.22739936"
       height="0.16111994"
       rx="0"
       ry="0"
       fill="#0095bd"
       stroke-opacity="0.84249"
       stroke-width="0.017366"
       id="rect154"
       inkscape:transform-center-x="-0.017594116"
       inkscape:transform-center-y="-0.061579406" /><rect
       transform="rotate(-32.192756)"
       x="-20.766487"
       y="143.45033"
       width="0.84385997"
       height="0.60826999"
       rx="0"
       ry="0"
       fill="#0095bd"
       stroke-opacity="0.84249"
       stroke-width="0.065"
       id="rect152-5" /><rect
       transform="matrix(0.84724634,-0.53120019,0.62514709,0.78050696,0,0)"
       x="-37.12545"
       y="144.29738"
       width="0.22739936"
       height="0.16111994"
       rx="0"
       ry="0"
       fill="#0095bd"
       stroke-opacity="0.84249"
       stroke-width="0.017366"
       id="rect154-7"
       inkscape:transform-center-x="-0.017594116"
       inkscape:transform-center-y="-0.061579406" /><rect
       transform="rotate(-32.192756)"
       x="-20.797134"
       y="142.55785"
       width="0.84385997"
       height="0.60826999"
       rx="0"
       ry="0"
       fill="#0095bd"
       stroke-opacity="0.84249"
       stroke-width="0.065"
       id="rect152-5-6" /><rect
       transform="matrix(0.84724634,-0.53120019,0.62514709,0.78050696,0,0)"
       x="-37.054394"
       y="143.39899"
       width="0.22739936"
       height="0.16111994"
       rx="0"
       ry="0"
       fill="#0095bd"
       stroke-opacity="0.84249"
       stroke-width="0.017366"
       id="rect154-7-2"
       inkscape:transform-center-x="-0.017594116"
       inkscape:transform-center-y="-0.061579406" /><rect
       transform="rotate(-40.747)"
       x="-45.986"
       y="139.89999"
       width="0.84385997"
       height="0.60826999"
       rx="0"
       ry="0"
       fill="#0095bd"
       stroke-opacity="0.84249"
       stroke-width="0.065"
       id="rect156" /><rect
       transform="matrix(0.79365,-0.60837,0.69564,0.71839,0,0)"
       x="-54.402"
       y="143.12"
       width="0.2274"
       height="0.16112"
       rx="0"
       ry="0"
       fill="#0095bd"
       stroke-opacity="0.84249"
       stroke-width="0.017366"
       id="rect158" /><rect
       transform="rotate(-40.601)"
       x="-48.063"
       y="144.83"
       width=".45417"
       height=".45417"
       ry=".080561"
       fill="#f2f2f2"
       stroke-opacity=".84249"
       stroke-width=".065"
       id="rect160" /><rect
       transform="rotate(-40.601)"
       x="-47.53"
       y="144.81"
       width=".45417"
       height=".45417"
       ry=".080561"
       fill="#f2f2f2"
       stroke-opacity=".84249"
       stroke-width=".065"
       id="rect162" /><rect
       transform="rotate(-40.601)"
       x="-47.012"
       y="144.8"
       width=".45417"
       height=".45417"
       ry=".080561"
       fill="#f2f2f2"
       stroke-opacity=".84249"
       stroke-width=".065"
       id="rect164" /><rect
       transform="rotate(-40.601)"
       x="-46.488"
       y="144.78"
       width=".45417"
       height=".45417"
       ry=".080561"
       fill="#f2f2f2"
       stroke-opacity=".84249"
       stroke-width=".065"
       id="rect166" /><rect
       transform="rotate(-40.601)"
       x="-45.933"
       y="144.76"
       width=".45417"
       height=".45417"
       ry=".080561"
       fill="#f2f2f2"
       stroke-opacity=".84249"
       stroke-width=".065"
       id="rect168" /><rect
       transform="rotate(-40.601)"
       x="-45.41"
       y="144.74"
       width=".45417"
       height=".45417"
       ry=".080561"
       fill="#f2f2f2"
       stroke-opacity=".84249"
       stroke-width=".065"
       id="rect170" /><rect
       transform="rotate(-40.601)"
       x="-44.864"
       y="144.72"
       width=".45417"
       height=".45417"
       ry=".080561"
       fill="#f2f2f2"
       stroke-opacity=".84249"
       stroke-width=".065"
       id="rect172" /><path
       d="m60.669 138.62 0.29197 0.29197-0.0065-6e-3"
       fill="#666"
       stroke="#666"
       stroke-width=".05"
       id="path174" /><ellipse
       transform="matrix(.82699 -.56221 .68379 .72968 0 0)"
       cx="-50.717"
       cy="150.64"
       rx=".097996"
       ry=".066218"
       fill="#666"
       stroke="#666"
       stroke-width=".036762"
       id="ellipse176" /><path
       d="m61 138.52 0.21917 0.14257 0.07209-0.0643-0.1285-0.23298z"
       fill="#666"
       stroke-width="0"
       id="path178" /><path
       d="m 78.569836,140.5208 1.708038,-1.57897 0.126603,-0.11703"
       fill="#666666"
       stroke="#000000"
       stroke-width="0.106156"
       id="path180"
       style="opacity:0.59633;fill:#161616;fill-opacity:1"
       sodipodi:nodetypes="ccc" /><path
       d="m81.281 141.69 1.2364-1.9985"
       fill="#666"
       stroke="#000"
       stroke-width=".1"
       id="path182"
       style="opacity:0.72782875" /><path
       d="m79.534 133.66s0.1359 0.27769 1.2231 0.0724c1.0872-0.20526 0.6795 0.14488 0.6795 0.14488s-0.44167 0.36222-1.0759 0.41051c-0.6342 0.0483-0.82672-0.62783-0.82672-0.62783z"
       fill="#fff"
       stroke="#000"
       stroke-width=".013"
       id="path184"
       style="stroke:#c32b0d;stroke-opacity:1;fill:#ffffff;fill-opacity:1;stroke-width:0.013;stroke-dasharray:none" /><path
       style="fill:none;fill-opacity:1;stroke:#0e0e0e;stroke-width:0.055;stroke-dasharray:none;stroke-opacity:1"
       d="m 80.625479,127.7734 c 0,0 1.771933,-0.16677 2.35563,0.79216 0.583695,0.95893 0.187616,1.41755 0.396079,1.89701 0.208462,0.47946 0.08339,0.60454 0.562848,0.87554 0.479465,0.271 0.708774,0 0.708774,0 v 0"
       id="path2694" /><path
       style="fill:none;fill-opacity:1;stroke:#0f0f0f;stroke-width:0.055;stroke-dasharray:none;stroke-opacity:1"
       d="m 80.418496,127.24421 c 0,0 1.612647,-0.75294 2.48483,-0.0462 0.87218,0.70679 0.6534,1.2719 1.01096,1.65333 0.35756,0.38143 0.281836,0.54129 0.824504,0.63526 0.542675,0.094 0.667494,-0.23835 0.667494,-0.23835 v 0"
       id="path2694-1" /><path
       style="fill:none;fill-opacity:1;stroke:#0f0f0f;stroke-width:0.0297586;stroke-dasharray:none;stroke-opacity:1"
       d="m 82.070674,125.89051 c 0,0 0.915156,-0.38842 1.410109,-0.0238 0.494951,0.36462 0.370796,0.65614 0.573707,0.85291 0.20291,0.19677 0.159938,0.27924 0.467895,0.32772 0.307961,0.0485 0.378794,-0.12296 0.378794,-0.12296 v 0"
       id="path2694-1-8" /><path
       style="fill:none;fill-opacity:1;stroke:#0f0f0f;stroke-width:0.055;stroke-dasharray:none;stroke-opacity:1"
       d="m 84.526154,128.17992 c 0,0 0.367205,0.28852 0.813094,0.39343 0.445892,0.10492 0.629494,0.52458 0.577035,0.78687 -0.05246,0.26229 -0.314746,0.41966 -0.183602,0.91801 0.131146,0.49835 0.708181,0.60327 0.708181,0.60327 v -0.0262"
       id="path3820" /><path
       style="fill:none;fill-opacity:1;stroke:#0f0f0f;stroke-width:0.055;stroke-dasharray:none;stroke-opacity:1"
       d="m 79.480505,127.96193 c 0,0 -0.132112,-0.64168 -0.585062,-0.66056 -0.452951,-0.0189 -0.641681,0.0566 -0.717172,0.20761 -0.07549,0.15098 0.09436,0.6228 -0.226475,0.83041 -0.320842,0.2076 -0.132112,0.49069 -0.660554,0.60393 -0.528443,0.11324 -0.585062,0.0566 -0.585062,0.0566"
       id="path3822" /><path
       style="fill:none;fill-opacity:1;stroke:#0f0f0f;stroke-width:0.055;stroke-dasharray:none;stroke-opacity:1"
       d="m 79.197412,128.6791 c 0,0 -0.679427,-0.16986 -1.075759,0.0566 -0.396333,0.22648 -0.603935,0.45295 -0.698302,0.81154 -0.09436,0.35858 0.283096,1.00026 0.245351,1.26449 -0.03775,0.26422 0,0.66055 -0.226475,0.81153 -0.226478,0.15099 -0.490698,0.15099 -0.490698,0.15099 l 0.01887,0.0189"
       id="path3824" /><path
       style="fill:none;fill-opacity:1;stroke:#0f0f0f;stroke-width:0.055;stroke-dasharray:none;stroke-opacity:1"
       d="m 79.857965,127.05603 c 0,0 -0.585062,-0.73605 -1.038013,-0.41521 -0.452951,0.32084 -0.528442,-0.16986 -0.698299,-0.0189 -0.169857,0.15098 -0.736047,0.39633 -0.811538,1.01914 -0.07549,0.62281 -0.226476,0.64168 -0.226476,0.64168 h 0.01886"
       id="path3826" /><path
       style="fill:none;fill-opacity:1;stroke:#0f0f0f;stroke-width:0.055;stroke-dasharray:none;stroke-opacity:1"
       d="m 80.329789,126.5842 c 0,0 -0.490697,-0.50957 -0.773793,-0.4907 -0.283093,0.0189 -0.736044,0.0189 -0.981392,0.0189 -0.245349,0 -0.792666,0.0944 -0.924775,0.2076 -0.132111,0.11324 -0.09437,0.11324 -0.09437,0.11324"
       id="path3828" /><path
       style="fill:none;fill-opacity:1;stroke:#0f0f0f;stroke-width:0.055;stroke-dasharray:none;stroke-opacity:1"
       d="m 81.292311,125.90478 c 0,0 -0.452953,-0.50957 -0.924777,-0.45296 -0.471823,0.0566 -0.603935,0.2831 -0.981392,0.32084 -0.37746,0.0378 -0.698302,-0.11323 -0.698302,-0.11323"
       id="path3830" /><path
       style="fill:none;fill-opacity:1;stroke:#0f0f0f;stroke-width:0.055;stroke-dasharray:none;stroke-opacity:1"
       d="m 80.104949,129.22498 c 0,0 -0.391845,-0.69661 0.370075,-0.71838 0.761918,-0.0218 0.957842,0.283 1.240841,0.37007 0.282998,0.0871 0.152384,0.34831 0.674843,0.65308 0.52246,0.30476 0.805458,0.30476 0.805458,0.30476"
       id="path3832" /></g></svg>
