<?xml version="1.0" encoding="UTF-8"?>
<svg width="39.573mm" height="22.017mm" version="1.1" viewBox="0 0 39.573 22.017" xml:space="preserve" xmlns="http://www.w3.org/2000/svg"><g transform="translate(-50.586 -124.98)"><path d="m79.29 145.54s0.54123 1.1276 1.9394 1.1727c1.3982 0.0451 6.0437 0.54123 6.6751 0.0902 0.63143-0.45103 1.7139-1.5786 1.8041-2.9768 0.09021-1.3982 0.72164-4.4651 0.31572-5.9535-0.40592-1.4884-2.6159-4.1494-2.6159-4.1494l-2.0747-0.85694s0.54123 0.58632 0.45102 1.1726c-0.0902 0.58633-0.54123 1.0374-0.76674 1.2178-0.22551 0.18041-1.308 1.1276-1.8041 0.58633-0.49612-0.54122-0.94715-1.308-0.94715-1.308s-1.308 0.63143-1.7139 0.49612c-0.40592-0.1353-0.81184-0.54122-0.81184-0.54122l-4.4651 3.0218s1.4433 2.5708 2.0747 2.7963c0.63143 0.22551 1.308 0.18041 1.308 0.18041l0.99225-1.0374-0.36082 2.8865z" fill="#483737" stroke-width=".26458"/><g><path d="m50.586 137.4 8.2725-8.2725 4.8119 8.3344-7.4146 7.4146z" stroke-width=".26458"/><path d="m56.263 144.81 13.212-0.0962 4.7437-8.085-11.096 0.77613z" stroke-width=".26976"/><path d="m66.878 142.46 2.6655 0.66016 1.5906-2.9307-2.4817-1.0447z" fill="#161616" opacity=".8623"/><path d="m57.904 144.16 0.66431 0.0785 0.3964-0.34854-0.61848-0.12423z" fill="#161616" opacity=".8623"/><path d="m58.456 143.65 0.66431 0.0785 0.3964-0.34854-0.61848-0.12423z" fill="#161616" opacity=".8623"/><path d="m59.04 143.07 0.66431 0.0785 0.3964-0.34854-0.61848-0.12423z" fill="#161616" opacity=".8623"/><path d="m59.625 142.48 0.66431 0.0785 0.3964-0.34854-0.61848-0.12423z" fill="#161616" opacity=".8623"/><path d="m60.186 141.93 0.66431 0.0785 0.3964-0.34854-0.61848-0.12423z" fill="#161616" opacity=".8623"/><path d="m60.737 141.35 0.66431 0.0785 0.3964-0.34854-0.61848-0.12423z" fill="#161616" opacity=".8623"/><path d="m61.378 140.8 0.66431 0.0785 0.3964-0.34854-0.61848-0.12423z" fill="#161616" opacity=".8623"/><path d="m61.963 140.27 0.66431 0.0785 0.3964-0.34854-0.61848-0.12423z" fill="#161616" opacity=".8623"/><path d="m62.536 139.72 0.66431 0.0785 0.3964-0.34854-0.61848-0.12423z" fill="#161616" opacity=".8623"/><path d="m63.029 139.19 0.66431 0.0785 0.3964-0.34854-0.61848-0.12423z" fill="#161616" opacity=".8623"/><path d="m63.487 138.7 0.66431 0.0785 0.3964-0.34854-0.61848-0.12423z" fill="#161616" opacity=".8623"/><path d="m63.831 138.21 0.66431 0.0785 0.3964-0.34854-0.61848-0.12423z" fill="#161616" opacity=".8623"/><path d="m59.286 144.02 0.66431 0.0785 0.3964-0.34854-0.61848-0.12423z" fill="#161616" opacity=".8623"/><path d="m59.838 143.51 0.66431 0.0785 0.3964-0.34854-0.61848-0.12423z" fill="#161616" opacity=".8623"/><path d="m60.422 142.92 0.66431 0.0785 0.3964-0.34854-0.61848-0.12423z" fill="#161616" opacity=".8623"/><path d="m61.007 142.34 0.66431 0.0785 0.3964-0.34854-0.61848-0.12423z" fill="#161616" opacity=".8623"/><path d="m61.569 141.79 0.66431 0.0785 0.3964-0.34854-0.61848-0.12423z" fill="#161616" opacity=".8623"/><path d="m62.119 141.2 0.66431 0.0785 0.3964-0.34854-0.61848-0.12423z" fill="#161616" opacity=".8623"/><path d="m62.76 140.65 0.66431 0.0785 0.3964-0.34854-0.61848-0.12423z" fill="#161616" opacity=".8623"/><path d="m63.345 140.13 0.66431 0.0785 0.3964-0.34854-0.61848-0.12423z" fill="#161616" opacity=".8623"/><path d="m63.918 139.58 0.66431 0.0785 0.3964-0.34854-0.61848-0.12423z" fill="#161616" opacity=".8623"/><path d="m64.411 139.05 0.66431 0.0785 0.3964-0.34854-0.61848-0.12423z" fill="#161616" opacity=".8623"/><path d="m64.869 138.56 0.66431 0.0785 0.3964-0.34854-0.61848-0.12423z" fill="#161616" opacity=".8623"/><path d="m65.213 138.06 0.66431 0.0785 0.3964-0.34854-0.61848-0.12423z" fill="#161616" opacity=".8623"/><path d="m60.49 144.09 0.66431 0.0785 0.3964-0.34854-0.61848-0.12423z" fill="#161616" opacity=".8623"/><path d="m61.042 143.58 0.66431 0.0785 0.3964-0.34854-0.61848-0.12423z" fill="#161616" opacity=".8623"/><path d="m61.627 143 0.66431 0.0785 0.3964-0.34854-0.61848-0.12423z" fill="#161616" opacity=".8623"/><path d="m62.211 142.42 0.66431 0.0785 0.3964-0.34854-0.61848-0.12423z" fill="#161616" opacity=".8623"/><path d="m62.773 141.87 0.66431 0.0785 0.3964-0.34854-0.61848-0.12423z" fill="#161616" opacity=".8623"/><path d="m63.323 141.28 0.66431 0.0785 0.3964-0.34854-0.61848-0.12423z" fill="#161616" opacity=".8623"/><path d="m63.965 140.73 0.66431 0.0785 0.3964-0.34854-0.61848-0.12423z" fill="#161616" opacity=".8623"/><path d="m64.549 140.2 0.66431 0.0785 0.3964-0.34854-0.61848-0.12423z" fill="#161616" opacity=".8623"/><path d="m65.122 139.65 0.66431 0.0785 0.3964-0.34854-0.61848-0.12423z" fill="#161616" opacity=".8623"/><path d="m65.615 139.13 0.66431 0.0785 0.3964-0.34854-0.61848-0.12423z" fill="#161616" opacity=".8623"/><path d="m66.074 138.63 0.66431 0.0785 0.3964-0.34854-0.61848-0.12423z" fill="#161616" opacity=".8623"/><path d="m66.417 138.14 0.66431 0.0785 0.3964-0.34854-0.61848-0.12423z" fill="#161616" opacity=".8623"/><path d="m62.016 144.01 0.66431 0.0785 0.3964-0.34854-0.61848-0.12423z" fill="#161616" opacity=".8623"/><path d="m62.568 143.5 0.66431 0.0785 0.3964-0.34854-0.61848-0.12423z" fill="#161616" opacity=".8623"/><path d="m63.153 142.92 0.66431 0.0785 0.3964-0.34854-0.61848-0.12423z" fill="#161616" opacity=".8623"/><path d="m63.737 142.33 0.66431 0.0785 0.3964-0.34854-0.61848-0.12423z" fill="#161616" opacity=".8623"/><path d="m64.299 141.78 0.66431 0.0785 0.3964-0.34854-0.61848-0.12423z" fill="#161616" opacity=".8623"/><path d="m64.849 141.2 0.66431 0.0785 0.3964-0.34854-0.61848-0.12423z" fill="#161616" opacity=".8623"/><path d="m65.491 140.65 0.66431 0.0785 0.3964-0.34854-0.61848-0.12423z" fill="#161616" opacity=".8623"/><path d="m66.075 140.12 0.66431 0.0785 0.3964-0.34854-0.61848-0.12423z" fill="#161616" opacity=".8623"/><path d="m66.648 139.57 0.66431 0.0785 0.3964-0.34854-0.61848-0.12423z" fill="#161616" opacity=".8623"/><path d="m67.141 139.04 0.66431 0.0785 0.3964-0.34854-0.61848-0.12423z" fill="#161616" opacity=".8623"/><path d="m67.599 138.55 0.66431 0.0785 0.3964-0.34854-0.61848-0.12423z" fill="#161616" opacity=".8623"/><path d="m67.943 138.06 0.66431 0.0785 0.3964-0.34854-0.61848-0.12423z" fill="#161616" opacity=".8623"/><path d="m67.393 142.31 0.27491-0.20618 0.27491-0.2749 0.17869-0.31615 0.16495-0.21992 0.16494-0.0412 0.35738 0.19243 0.98967 0.50858 0.81097 0.27491 0.75599 0.12371 0.74225 0.3024 1.8006 0.7697 2.158 0.89344 1.7457 0.68727 2.2405 0.71476s1.6082 0.57731 2.323-0.0412c0.71476-0.61854 2.2542-2.1305 2.2542-2.1305s-0.54981-1.1134-0.93468-1.3196-2.2542-0.74225-2.4604-0.38487c-0.20618 0.35738-0.35738 0.72851-0.35738 0.72851l-4.4947-0.65978-4.8246-0.68727-1.5395-1.0172s-2.2542-0.13746-2.4879 0.0137c-0.23367 0.1512-1.2096 1.0172-1.2371 1.1821-0.02749 0.16494-0.12371 0.35738-0.02749 0.39862 0.09622 0.0412 0.34363 0.0275 0.4536-0.0275 0.10996-0.055 0.19244-0.21993 0.19244-0.21993s0.01375 0.39861 0.09622 0.48109c0.08247 0.0825 0.23367 0.19243 0.23367 0.19243z" fill="#ffb380" stroke-width=".26458"/><path d="m72.93 138.46c-0.22648-0.0103-1.853-0.42207-1.853-0.42207l-2.3162-0.27794s-1.3074-0.0926-1.8633-0.24707c-0.5559-0.15438-2.4809-0.21618-2.4809-0.21618s-0.42207 0.0721-0.59707 0.17501l-0.81325 1.2868s-0.0072 0.19743 0.17073 0.17766c0.17791-0.0198 0.72152-0.54361 0.72152-0.54361s0.18779-0.42501 0.43489-0.42501c0.2471 0 0.47443-0.01 0.51396 0.0198 0.03954 0.0297-0.4942 0.39535-0.54361 0.59303-0.04942 0.19768-0.31628 0.81048-0.31628 0.96862 0 0.15815-0.0593 0.48431 0.0099 0.5535 0.06919 0.0692 0.19768 0.0791 0.29652 0.0692 0.09884-0.01 0.03954-0.0988 0.11861-0.32617 0.07907-0.22733 0.0593-0.53373 0.17791-0.67211 0.11861-0.13837 0.32617-0.35582 0.46454-0.52384 0.13838-0.16803 0.45466-0.28664 0.56338-0.28664s0.2471 0.0395 0.23721 0.0988c-0.0099 0.0593-0.31628 0.2471-0.46454 0.3064s-0.5535 0.22733-0.5535 0.22733-0.41512 0.2471-0.26686 0.36571c0.14826 0.11861 0.64245 0.14826 0.75118 0.10872 0.10872-0.0395 0.77094-0.21744 0.77094-0.21744s0.44478-0.01 0.74129-0.0395c0.29652-0.0297 0.79071-0.10872 0.83025-0.18779 0.03954-0.0791 0.14826-0.1878 0.14826-0.1878s0.33605-0.22733 0.48431-0.01c0.14826 0.21744 3.6669 1.9867 4.8431 2.0163 1.1762 0.0297 3.7361-1.0675 3.7361-1.0675s-1.5419-2.0262-1.5122-2.2041c0.02965-0.17791-2.4338 0.88778-2.4338 0.88778z" fill="#ffb380" stroke-width=".26458"/><path d="m84.612 143.5s0.39939 0.29585 0.44377 0.47336c0.04438 0.17751-0.17751 0.51773-0.17751 0.51773s-0.35502 0.17751-0.56211-0.0296c-0.20709-0.2071-0.31064-0.31064-0.31064-0.31064z" fill="#161616" opacity=".86885"/><path d="m76.87 139.77s0.35538 0.18256 0.52005 0.26233c0.40808 0.19767 1.2612 0.45819 1.2612 0.45819s-0.15269 0.01-0.33232-2e-3c-0.35872-0.0238-0.90265-0.0963-1.0971-0.23866-0.0074-5e-3 -0.01199-0.0144-0.01962-0.0196-0.24067-0.16584-0.41584-0.41562-0.41584-0.41562z" fill="#161616" opacity=".8623"/></g><path d="m82.224 134.4 0.82776 1.4026" fill="#f00" opacity=".35738" stroke-width=".26458"/><path d="m82.201 134.37 2.6442-2.1154" fill="#f00" opacity=".35738" stroke-width=".26458"/><path d="m82.109 134.53s2.5063-1.8854 2.6902-2.1154c0.18395-0.22993 0.59783 0.55184 0.59783 0.55184s0.59783 0.6898 0.48286 1.0347c-0.11497 0.3449-0.27592 0.75878-0.41388 0.87375-0.13796 0.11496-0.66913 0.71442-0.89674 0.87374-0.22993 0.16096-0.82776 0.32191-1.1037 0.3449-0.27592 0.023-1.3566-1.5635-1.3566-1.5635z" fill="#ffb380" stroke-width=".26458"/><path d="m77.638 129.22s0.86869 4.5885 2.0184 5.3243c1.1497 0.73578 1.1056 0.5569 1.1056 0.5569s1.0149-0.0639 2.0726-0.89167c1.0577-0.82776 1.8625-1.5406 1.9774-1.7015 0.11497-0.16095 0.43688-0.96572 0.43688-1.2876 0-0.32191-0.32191-0.85076-0.59783-0.89674-0.27592-0.046-0.57483-0.22994-0.75878 0.069-0.18395 0.29891-0.16095 0.80476-0.16095 0.80476s-1.0347-0.64381-1.0577-0.80476c-0.02299-0.16096-0.52885-1.4946-0.52885-1.4946z" fill="#ffb380" stroke-width=".26458"/><path d="m77.805 130.56s0.14459 0.48197-0.17672 1.4941c-0.32131 1.0121-0.7872 0.96392-0.7872 0.96392s-0.38557-0.28917-0.4659-0.59442c-0.08033-0.30524 0.0482-0.49803 0.28918-0.53016 0.24098-0.0321 0.30524-1.0282 0.30524-1.0282s-0.36951-1.0603-0.22492-1.6226c0.14459-0.56229 0.27311-1.3977 0.56229-1.6387 0.28918-0.24098 0.97999-0.72294 1.3334-0.65868 0.35344 0.0643 1.0443 0.72294 1.0603 1.2852 0.01606 0.56229-0.20885 2.1046-0.20885 2.1046s0.38557-3.1167 0.61049-3.1006c0.22492 0.0161 0.94786-0.43376 1.5262-0.0161 0.57835 0.4177 1.3977 1.9118 1.4941 2.5544 0.09639 0.64261-0.08033 1.6387 0.09639 1.976s1.1085 0.33737 1.1085 0.33737 0.17672-0.11245 0.27311-0.53015c0.09639-0.41771-0.25704-0.62656-0.25704-0.62656s-0.54622-1.2049-0.57836-1.8636c-0.03213-0.65868-0.7872-2.2974-0.7872-2.2974s-1.5905-1.3013-2.217-0.8354c-0.62655 0.4659-2.1688 0.97999-2.1688 0.97999z" stroke-width=".26458"/><path d="m77.805 130.55s0.95437-1.1847 1.3328-1.1683c0.37846 0.0164 0.6911 0.0823 0.6911 0.0823l0.31264-0.19745s1.2506-0.23037 1.629-0.0823c0.37846 0.14809 0.60882 1.1025 0.60882 1.1025s0.08227 0.39492 0.57591 0.67464c0.49364 0.27974 0.65819 0.23037 0.65819 0.23037l0.09873-0.57591 0.16455-0.14809h0.39491l0.16455 0.0823 0.362 0.19745 0.34555 0.64174-0.181 0.77336-0.13164 0.39492-0.06582 0.23036 0.41137 0.37846 0.21391 0.27973 0.46073 0.0494s0.08227 0.11518 0.181-0.64173c0.09873-0.75691 0.55946-1.9087 0.55946-2.1885s-0.23036-1.4809-0.23036-1.4809-0.362-0.95437-0.62528-1.448c-0.26327-0.49364-1.2176-1.7442-1.4809-1.81-0.26328-0.0658-1.9416-1.0696-2.4024-0.93791-0.46073 0.13163-2.3366 0.0823-2.5998 0.27973-0.26327 0.19745-1.7277 0.57591-1.7606 0.93791-0.03291 0.362-0.52655 1.267-0.543 1.5796-0.01646 0.31264 0.01646 1.4809 0.08227 1.6455 0.06582 0.16455 0.77337 1.1189 0.77337 1.1189z" stroke-width=".26458"/><ellipse transform="rotate(-7.626)" cx="61.17" cy="140.53" rx=".29844" ry=".52906" fill="#007b00" stroke-width=".26458"/><ellipse transform="rotate(-7.626)" cx="62.965" cy="140.62" rx=".29844" ry=".52906" fill="#007b00" stroke-width=".26458"/><path d="m81.22 128.22c0.24625 0.0127 0.46167 0.17302 0.69124 0.23041 0.05588 0.014 0.13207-0.0407 0.17281 0 0.01357 0.0136-0.01357 0.044 0 0.0576s0.04043-9e-3 0.0576 0c0.04857 0.0243 0.06663 0.0909 0.1152 0.11521 0.07813 0.0391 0.17281-0.0759 0.17281 0.0576" stroke-width=".26458"/><path d="m79.995 131.6s0 0.48493-0.08083 0.80823c-0.08082 0.32329-0.22226 0.50514-0.16165 0.60617 0.06062 0.10103 0.66679 0.0606 0.66679 0.0606h0.06062" fill="none" stroke="#000" stroke-opacity=".84249" stroke-width=".065"/><path d="m84.746 132.79s0.03781-0.10912 0.08219 0.0684c0.04438 0.17751-1.2075 1.1316-1.2075 1.1316s-1.2922 0.81541-1.575 0.89139c-0.33156 0.0891-1.2364 0.33061-1.0451 0.22317 0.07839-0.044 0.87856-0.2939 0.87856-0.2939z" fill="#161616" opacity=".37377"/><path d="m51.218 137.43 4.9774 6.3908 6.7288-6.483-4.1479-7.2818z" fill="#161616" opacity=".8623"/><path d="m57.555 140.88 3.2704-3.0657s0.12494-0.13252 0.34746 0.09c0.22252 0.22253 0.3702 0.23886 0.12295 0.48612-0.24726 0.24725-3.3515 3.2571-3.3515 3.2571s-0.32446-0.1091-0.50954-0.29419c-0.18509-0.18509-0.01725-0.33574 0.12028-0.47327z" fill="#f2f2f2" opacity=".8623"/><path d="m58.146 130.94 0.43346-0.43345 0.33294 0.44601-0.38948 0.38949z" fill="#f2f2f2" opacity=".8623"/><path d="m58.529 131.52 0.43346-0.43345 0.33294 0.44601-0.38948 0.38949z" fill="#f2f2f2" opacity=".8623"/><path d="m58.931 132.14 0.43346-0.43345 0.33294 0.44601-0.38948 0.38949z" fill="#f2f2f2" opacity=".8623"/><path d="m59.369 132.73 0.43346-0.43345 0.33294 0.44601-0.38948 0.38949z" fill="#f2f2f2" opacity=".8623"/><path d="m57.672 140.96 0.43346-0.43345 0.33294 0.44601-0.38948 0.38949z" fill="#333" opacity=".8623"/><path d="m58.263 140.35 0.43346-0.43345 0.33294 0.44601-0.38948 0.38949z" fill="#333" opacity=".8623"/><path d="m58.898 139.78 0.43346-0.43345 0.33294 0.44601-0.38948 0.38949z" fill="#333" opacity=".8623"/><path d="m59.554 139.17 0.43346-0.43345 0.33294 0.44601-0.38948 0.38949z" fill="#333" opacity=".8623"/><path d="m60.211 138.51 0.43346-0.43345 0.33294 0.44601-0.38948 0.38949z" fill="#333" opacity=".8623"/><path d="m55.496 136.13 0.43346-0.43345 0.33294 0.44601-0.38948 0.38949z" fill="#f2f2f2" opacity=".8623"/></g></svg>
